<svg width="123" height="44" viewBox="0 0 123 44" fill="none" xmlns="http://www.w3.org/2000/svg">
<path d="M9.27344 29.0962C9.3214 29.0338 9.37097 28.9698 9.41893 28.9043C9.37097 28.9682 9.3214 29.0322 9.27344 29.0962Z" fill="url(#paint0_linear_1586_23070)"/>
<path d="M7.75452 5.67822C8.84652 4.81645 10.084 4.09378 11.4494 3.5166C10.084 4.09218 8.84652 4.81645 7.75452 5.67822C6.31397 6.81498 5.16762 8.1532 4.34742 9.6577C4.12678 10.0638 3.93652 10.4795 3.77344 10.9048C3.93652 10.4795 4.12678 10.0638 4.34742 9.6577C5.16762 8.1532 6.31397 6.81338 7.75452 5.67822V5.67822Z" fill="url(#paint1_linear_1586_23070)"/>
<path d="M10.6873 26.0521C10.6362 25.889 10.537 25.686 10.3516 25.4941C10.537 25.686 10.6346 25.889 10.6873 26.0521C10.7577 26.2728 10.7976 26.5989 10.6617 26.989C10.7976 26.6005 10.7577 26.2728 10.6873 26.0521Z" fill="url(#paint2_linear_1586_23070)"/>
<path d="M9.875 28.291C10.086 27.9936 10.2811 27.6946 10.473 27.3765C10.2811 27.6946 10.0844 27.9936 9.875 28.291Z" fill="url(#paint3_linear_1586_23070)"/>
<path d="M6.4375 22.5747C6.62936 22.7714 6.82442 22.9648 7.02907 23.1503C6.82442 22.9648 6.62936 22.7714 6.4375 22.5747Z" fill="url(#paint4_linear_1586_23070)"/>
<path d="M8.36328 30.2143C8.42723 30.1407 8.49438 30.0624 8.56154 29.9824C8.49279 30.0624 8.42723 30.1407 8.36328 30.2143Z" fill="url(#paint5_linear_1586_23070)"/>
<path d="M23.3281 24.3769C23.5887 23.5151 23.9597 22.6933 24.4425 21.9179C24.7543 21.4174 25.106 20.9426 25.4913 20.4917C25.106 20.9426 24.7543 21.419 24.4425 21.9179C23.9597 22.6933 23.5871 23.5151 23.3281 24.3769Z" fill="url(#paint6_linear_1586_23070)"/>
<path d="M11.6285 29.2466C11.5533 29.277 11.4798 29.3057 11.4062 29.3345C11.4798 29.3057 11.5549 29.277 11.6285 29.2466Z" fill="url(#paint7_linear_1586_23070)"/>
<path d="M34.6663 15.7114C34.4713 15.7386 34.2794 15.769 34.0859 15.8026C34.2778 15.7706 34.4713 15.7402 34.6663 15.7114Z" fill="url(#paint8_linear_1586_23070)"/>
<path d="M34 11.0059C34.0512 11.1354 34.0991 11.2681 34.1439 11.3992C34.0975 11.2681 34.0512 11.1354 34 11.0059Z" fill="url(#paint9_linear_1586_23070)"/>
<path d="M33.6172 10.1458C33.7595 10.4288 33.8874 10.715 34.0025 11.006C33.8874 10.715 33.7595 10.4272 33.6172 10.1458C32.8482 8.61415 31.7466 7.23755 30.3444 6.05442C29.3404 5.20704 28.2004 4.47958 26.9453 3.87842C28.2004 4.47958 29.342 5.20704 30.3444 6.05442C31.7466 7.23755 32.8482 8.61415 33.6172 10.1458V10.1458Z" fill="url(#paint10_linear_1586_23070)"/>
<path d="M7.75192 23.7613C7.53448 23.5902 7.32184 23.4127 7.11719 23.2305C7.32184 23.4127 7.53448 23.5902 7.75192 23.7613Z" fill="url(#paint11_linear_1586_23070)"/>
<path d="M27.9204 18.2964C27.4679 18.6129 27.0442 18.9519 26.6445 19.3116C27.0442 18.9535 27.4679 18.6129 27.9204 18.2964C29.3402 17.3067 30.9758 16.56 32.7824 16.0788C32.9983 16.0212 33.2173 15.9717 33.438 15.9253C33.2173 15.9717 32.9983 16.0212 32.7824 16.0788C30.9758 16.56 29.3402 17.3067 27.9204 18.2964Z" fill="url(#paint12_linear_1586_23070)"/>
<path d="M22.616 27.0498C22.4849 27.0738 22.3538 27.0978 22.2227 27.1202C22.3538 27.0978 22.4849 27.0754 22.616 27.0498Z" fill="url(#paint13_linear_1586_23070)"/>
<path d="M18.4741 27.3956C18.3143 27.3924 18.156 27.3876 17.9961 27.3796C18.156 27.3876 18.3143 27.3924 18.4741 27.3956C19.2831 27.4084 20.073 27.3748 20.8452 27.3013C20.073 27.3748 19.2831 27.4084 18.4741 27.3956Z" fill="url(#paint14_linear_1586_23070)"/>
<path d="M23.0898 25.3119C23.1218 25.1536 23.157 24.9969 23.197 24.8418C23.1586 24.9969 23.1218 25.1552 23.0898 25.3119Z" fill="url(#paint15_linear_1586_23070)"/>
<path d="M22.8984 26.9977C22.9016 26.9065 22.9016 26.8154 22.9048 26.7227C22.9016 26.8138 22.9016 26.9049 22.8984 26.9977Z" fill="url(#paint16_linear_1586_23070)"/>
<path d="M16.5273 27.2446L16.5865 27.2494C16.724 27.2686 16.8631 27.2862 17.0038 27.3022C16.8631 27.2862 16.724 27.2702 16.5865 27.2494L16.5273 27.2446Z" fill="url(#paint17_linear_1586_23070)"/>
<path d="M47.2064 21.3678C46.1272 20.3446 44.8242 19.4956 43.3293 18.8481C41.8296 18.1973 40.1684 17.7992 38.3889 17.6649C37.7366 17.6154 37.1002 17.617 36.4719 17.6425C35.7108 17.6729 34.969 17.7545 34.2511 17.892C33.9377 17.9527 33.626 18.0135 33.3222 18.095C31.7505 18.5123 30.3372 19.1566 29.1173 20.0072C27.915 20.845 26.9381 21.8602 26.2122 23.0226C25.5647 24.0602 25.1794 25.2098 25.0371 26.4361C25.0227 26.5528 24.9987 26.6679 24.9907 26.7862C24.9443 27.4018 24.9731 28.0093 25.061 28.6057C25.1266 29.055 25.2225 29.4994 25.3632 29.9327C25.6958 30.9592 26.2122 31.9313 26.8981 32.8202C27.5904 33.7219 28.4522 34.5374 29.4578 35.244C30.4715 35.9571 31.6306 36.5455 32.8985 36.9916C34.1728 37.4408 35.5685 37.7238 37.0491 37.8357C37.3033 37.8549 37.5591 37.8661 37.8133 37.8693C38.0723 37.8757 38.3201 37.8693 38.5679 37.8565L38.6303 37.8533L38.6943 37.8581C38.8397 37.8693 38.9868 37.8949 39.1387 37.9349C39.345 37.9908 39.5448 38.0867 39.7543 38.2274C40.2771 38.5824 40.8223 38.9229 41.3739 39.2395C41.9287 39.5577 42.4739 39.8487 42.9967 40.0997C43.5083 40.3459 43.98 40.5457 44.4005 40.6912C44.4516 40.7088 44.5028 40.7264 44.5508 40.7424C44.5188 40.6944 44.4852 40.6449 44.4516 40.5937C44.2486 40.2915 44.0471 39.9702 43.8473 39.6312C43.641 39.2843 43.4588 38.9421 43.3005 38.6096C43.0782 38.074 43.1598 37.6838 43.2637 37.4424C43.3596 37.2106 43.5819 36.8812 44.0647 36.6846C45.2335 36.1953 46.2903 35.535 47.1936 34.726C48.0906 33.9234 48.8148 32.9945 49.3488 31.9648C49.8749 30.948 50.1866 29.8464 50.273 28.6904C50.3753 27.3298 50.1595 26.0156 49.6286 24.7861C49.0866 23.531 48.2728 22.3815 47.2096 21.3694L47.2064 21.3678ZM42.9759 27.0133C42.92 27.7599 42.6514 28.4826 42.1685 29.1813C41.6873 29.88 41.0429 30.5515 40.2387 31.1926C39.4345 31.8337 38.5184 32.4413 37.4903 33.0153C37.4472 33.0377 37.4024 33.0568 37.356 33.0696C37.3081 33.0824 37.2649 33.0872 37.2233 33.084C37.1866 33.0808 37.145 33.0696 37.097 33.0488C37.0507 33.0281 37.0091 33.0041 36.9739 32.9753C36.0434 32.2542 35.228 31.5172 34.5293 30.7625C33.8306 30.0079 33.295 29.2484 32.9225 28.4842C32.5516 27.7199 32.3933 26.9653 32.4492 26.2187C32.4828 25.7646 32.5883 25.3537 32.7626 24.986C32.9369 24.6182 33.1671 24.3065 33.4517 24.049C33.7363 23.7916 34.0625 23.6014 34.4286 23.4767C34.7947 23.352 35.1864 23.3056 35.6037 23.336C36.0914 23.3727 36.539 23.539 36.9451 23.8348C37.3512 24.1306 37.647 24.5095 37.8325 24.9684C38.0883 24.5415 38.4384 24.2121 38.8845 23.9803C39.3306 23.7485 39.799 23.6509 40.2867 23.6877C40.704 23.7197 41.0845 23.8236 41.4283 24.0027C41.772 24.1801 42.0646 24.4184 42.3076 24.7158C42.5506 25.0131 42.7313 25.3569 42.848 25.7454C42.9647 26.1355 43.0063 26.5576 42.9727 27.0117L42.9759 27.0133Z" fill="url(#paint18_linear_1586_23070)"/>
<path d="M13.1252 28.6055C12.879 28.7174 12.636 28.8245 12.3945 28.9284C12.636 28.8245 12.879 28.7174 13.1252 28.6055V28.6055Z" fill="url(#paint19_linear_1586_23070)"/>
<path d="M9.05469 30.0929C9.10745 30.0801 9.16021 30.0689 9.21457 30.0561C9.48477 29.989 9.77256 29.9075 10.0747 29.8115C9.77256 29.9075 9.48477 29.989 9.21457 30.0561C9.16021 30.0705 9.10745 30.0817 9.05469 30.0929Z" fill="url(#paint20_linear_1586_23070)"/>
<path d="M23.326 24.3766C23.5866 23.5148 23.9576 22.693 24.4404 21.9176C24.7522 21.4171 25.1039 20.9423 25.4892 20.4914C25.8442 20.0757 26.2311 19.6824 26.6452 19.3099C27.0449 18.9517 27.4686 18.6112 27.9211 18.2946C29.3408 17.305 30.9764 16.5583 32.7831 16.0771C32.9989 16.0195 33.218 15.9699 33.4386 15.9236C33.6529 15.8788 33.8671 15.8372 34.0845 15.8005C34.2764 15.7685 34.4699 15.7381 34.6649 15.7093C34.6841 15.4727 34.7065 15.2361 34.7113 14.9963C34.7321 13.7476 34.5402 12.542 34.1437 11.3973C34.0973 11.2662 34.051 11.1335 33.9998 11.004C33.8847 10.713 33.7568 10.4252 33.6145 10.1438C32.8439 8.61213 31.7439 7.23554 30.3417 6.05241C29.3376 5.20503 28.1977 4.47756 26.9426 3.8764C26.6484 3.73571 26.351 3.59821 26.044 3.4719C25.8138 3.37597 25.5788 3.28484 25.3406 3.1969C24.6259 2.93469 23.884 2.71725 23.1182 2.54778C22.6082 2.43426 22.0869 2.34153 21.5577 2.26958C20.7615 2.16086 19.9445 2.10011 19.1083 2.08572C19.1035 2.08572 19.1003 2.08572 19.0955 2.08572C18.9788 2.08412 18.8621 2.08252 18.747 2.08252C17.9652 2.08252 17.1977 2.12569 16.4479 2.21043C15.9474 2.26798 15.455 2.34313 14.9706 2.43746C14.2447 2.57975 13.5364 2.76362 12.8505 2.98905C12.3677 3.14734 11.8992 3.32321 11.4435 3.51507C10.0781 4.09065 8.84065 4.81492 7.74865 5.67668C6.30811 6.81345 5.16175 8.15167 4.34155 9.65617C4.12091 10.0623 3.93065 10.478 3.76757 10.9033C3.7196 11.028 3.67484 11.1527 3.63167 11.2774C3.5869 11.4101 3.54373 11.5428 3.50376 11.6771C3.23996 12.574 3.09926 13.5077 3.08327 14.4718C3.07847 14.7532 3.08807 15.0314 3.10405 15.3096C3.1744 16.4704 3.42542 17.6007 3.8635 18.6768C4.1369 19.3499 4.47425 19.999 4.87076 20.6161C5.26727 21.2333 5.72294 21.82 6.23456 22.3716C6.29851 22.4404 6.36726 22.5075 6.43281 22.5763C6.62467 22.7729 6.81973 22.9664 7.02438 23.1519C7.05476 23.179 7.08514 23.2046 7.11392 23.2318C7.31857 23.4141 7.53121 23.5915 7.74865 23.7626C8.41536 24.2886 9.13963 24.7635 9.91666 25.176C10.0989 25.2703 10.2412 25.3806 10.3515 25.4958C10.537 25.6876 10.6345 25.8907 10.6873 26.0537C10.7576 26.2744 10.7976 26.6005 10.6617 26.9907C10.6345 27.069 10.6026 27.1489 10.5594 27.2305C10.5306 27.28 10.5002 27.328 10.4699 27.3776C10.278 27.6957 10.0813 27.9947 9.87189 28.2921C9.83352 28.3449 9.79675 28.3992 9.75838 28.4536C9.64646 28.6087 9.53294 28.759 9.42102 28.9076C9.37306 28.9716 9.3235 29.0356 9.27553 29.0995C9.15722 29.253 9.0389 29.4049 8.92059 29.5504C8.79588 29.7055 8.67597 29.8478 8.56245 29.9837C8.4937 30.0636 8.42815 30.1419 8.3642 30.2155C8.56725 30.1947 8.79908 30.1531 9.05329 30.0956C9.10606 30.0828 9.15882 30.0716 9.21318 30.0588C9.48338 29.9917 9.77117 29.9101 10.0733 29.8142C10.3755 29.7183 10.6921 29.6079 11.0215 29.4864C11.1478 29.4401 11.2757 29.3889 11.4036 29.3393C11.4771 29.3106 11.5523 29.2818 11.6258 29.2514C11.8768 29.1507 12.1326 29.0435 12.39 28.9332C12.6315 28.8293 12.8745 28.7222 13.1207 28.6103C13.837 28.2809 14.5485 27.9228 15.2328 27.5454C15.4838 27.4079 15.714 27.3216 15.9394 27.2832C16.0258 27.2688 16.1137 27.2593 16.1985 27.2529C16.2848 27.2465 16.3679 27.2433 16.4479 27.2433L16.5214 27.2497L16.5806 27.2545C16.7181 27.2736 16.8572 27.2912 16.9979 27.3072C17.1689 27.3264 17.3416 27.344 17.5159 27.3568C17.6742 27.3696 17.8341 27.3792 17.9923 27.3856C18.1522 27.3936 18.3105 27.3984 18.4704 27.4016C19.2794 27.4143 20.0692 27.3808 20.8415 27.3072C21.3083 27.2625 21.7672 27.2017 22.2196 27.1266C22.3507 27.1042 22.4818 27.0818 22.613 27.0562C22.7073 27.0386 22.8032 27.0226 22.8959 27.0034C22.8991 26.9123 22.8991 26.8212 22.9023 26.7284C22.9023 26.6981 22.9023 26.6661 22.9055 26.6357C22.9391 26.188 22.9999 25.75 23.0878 25.3183C23.1198 25.16 23.155 25.0033 23.1949 24.8482C23.2349 24.6915 23.2765 24.5365 23.3228 24.383L23.326 24.3766ZM20.9534 20.8576C20.9438 21.4571 20.4497 21.9352 19.8502 21.924L17.7093 21.8888C17.1098 21.8792 16.6317 21.3852 16.6429 20.7856L16.7037 17.1275L13.0456 17.0667C12.446 17.0571 11.968 16.5631 11.9791 15.9635L12.0143 13.8227C12.0239 13.2231 12.518 12.7451 13.1175 12.7563L16.7756 12.817L16.8364 9.15893C16.846 8.55937 17.34 8.08132 17.9396 8.09251L20.0804 8.12769C20.68 8.13728 21.158 8.63132 21.1468 9.23088L21.0861 12.889L24.7442 12.9498C25.3438 12.9593 25.8218 13.4534 25.8106 14.0529L25.7754 16.1938C25.7658 16.7933 25.2718 17.2714 24.6722 17.2602L21.0141 17.1994L20.9534 20.8576Z" fill="url(#paint21_linear_1586_23070)"/>
<g filter="url(#filter0_d_1586_23070)">
<path d="M25.773 16.1942L25.8082 14.0533C25.8178 13.4538 25.3397 12.9597 24.7417 12.9502L21.0836 12.8894L21.1444 9.23128C21.154 8.63172 20.6759 8.13768 20.078 8.12809L17.9371 8.09292C17.3376 8.08332 16.8435 8.56137 16.8339 9.15933L16.7732 12.8175L13.1151 12.7567C12.5155 12.7471 12.0215 13.2252 12.0119 13.8231L11.9767 15.9639C11.9671 16.5635 12.4452 17.0575 13.0431 17.0671L16.7012 17.1279L16.6405 20.786C16.6309 21.3856 17.1089 21.8796 17.7069 21.8892L19.8477 21.9244C20.4473 21.934 20.9413 21.4559 20.9509 20.858L21.0117 17.1998L24.6698 17.2606C25.2694 17.2702 25.7634 16.7921 25.773 16.1942V16.1942Z" fill="white"/>
</g>
<g filter="url(#filter1_d_1586_23070)">
<path d="M48.6437 19.857C47.3886 18.6642 45.8793 17.681 44.1606 16.9359C42.4482 16.1909 40.5584 15.7368 38.5455 15.5849C37.9427 15.5385 37.3512 15.5305 36.7644 15.5417C36.774 15.3723 36.7948 15.2044 36.7964 15.0333C36.8299 12.9804 36.3871 11.0202 35.4773 9.20877C34.5804 7.42288 33.3045 5.82565 31.6865 4.45866C30.0829 3.10445 28.1899 2.02204 26.0586 1.24022C23.9338 0.459987 21.6075 0.0426932 19.1453 0.00272247C16.6863 -0.0340506 14.3584 0.301703 12.2016 1.00998C10.04 1.72146 8.107 2.73992 6.46181 4.04136C4.79743 5.354 3.4704 6.90806 2.5143 8.66197C1.54541 10.4415 1.03698 12.384 1.00181 14.4385C0.973029 16.1765 1.288 17.868 1.93712 19.4637C2.58145 21.0465 3.51517 22.503 4.71269 23.7917C5.77271 24.9316 7.0166 25.9181 8.42037 26.7271C8.31005 26.8934 8.19494 27.0597 8.07342 27.2292C7.81601 27.5841 7.5602 27.9199 7.30279 28.2348C7.04858 28.5498 6.82154 28.8184 6.6057 29.0566C5.90701 29.8672 5.9294 30.6011 6.07169 31.0727C6.18201 31.4389 6.58651 32.2942 7.9711 32.3182C7.99508 32.3182 8.01906 32.3182 8.04305 32.3182C8.52429 32.3182 9.07269 32.2399 9.71862 32.08C10.3374 31.9265 11.0249 31.7091 11.7555 31.4357C12.475 31.1671 13.2296 30.8521 13.9955 30.5004C14.7581 30.1502 15.5144 29.7697 16.301 29.3332C16.325 29.3284 16.3506 29.3252 16.3745 29.3236C16.6975 29.3684 17.0269 29.4036 17.361 29.4291C17.7208 29.4563 18.0805 29.4739 18.4402 29.4803C20.0247 29.5027 21.5659 29.3732 23.0321 29.0982C23.0033 28.9255 22.9921 28.7496 22.9729 28.5754C22.9921 28.7496 23.0033 28.9255 23.0321 29.0982C23.1152 29.597 23.2223 30.0911 23.379 30.5739C23.7867 31.8274 24.4134 33.0105 25.2432 34.0897C26.065 35.1593 27.0787 36.1202 28.257 36.9484C29.4274 37.7718 30.756 38.4481 32.2045 38.9582C33.6515 39.4666 35.2279 39.7895 36.8907 39.9143C37.1865 39.9366 37.4855 39.9494 37.7828 39.9542C37.8756 39.9542 37.9667 39.9542 38.0562 39.9542C38.2561 39.9542 38.4639 39.9574 38.5855 39.9526C39.1498 40.3363 39.7398 40.7041 40.3362 41.0462C40.9325 41.39 41.5241 41.7033 42.0933 41.9767C42.6769 42.2581 43.2237 42.4868 43.7177 42.6594C44.2725 42.8513 44.7441 42.9616 45.1646 42.992C45.2366 42.9984 45.3069 43 45.3757 43C46.4661 43 46.8658 42.3141 46.9921 42.0023C47.128 41.6602 47.2703 40.9647 46.6739 40.1285C46.53 39.935 46.367 39.7032 46.1847 39.4314C46.0024 39.1596 45.8218 38.8718 45.6427 38.568C45.5931 38.4849 45.5452 38.4034 45.5004 38.3234C46.6388 37.7782 47.6732 37.0923 48.5845 36.2769C49.6701 35.3048 50.5495 34.1761 51.2002 32.921C51.8573 31.6531 52.2442 30.2797 52.353 28.8424C52.4809 27.1428 52.2091 25.4992 51.544 23.9564C50.8916 22.4407 49.9164 21.0609 48.6453 19.8538L48.6437 19.857ZM22.9089 26.6296C22.9074 26.66 22.9074 26.692 22.9058 26.7223C22.9026 26.8135 22.9026 26.9046 22.8994 26.9973C22.805 27.0165 22.7107 27.0325 22.6164 27.0501C22.4853 27.0741 22.3542 27.0981 22.2231 27.1204C21.7706 27.1956 21.3117 27.2563 20.8449 27.3011C20.0726 27.3747 19.2828 27.4082 18.4738 27.3954C18.3139 27.3922 18.1556 27.3874 17.9958 27.3794C17.8359 27.3715 17.6776 27.3619 17.5193 27.3507C17.345 27.3379 17.1724 27.3203 17.0013 27.3011C16.8606 27.2851 16.7215 27.2691 16.584 27.2483L16.5248 27.2435L16.4513 27.2372C16.3713 27.2372 16.2866 27.2404 16.2019 27.2467C16.1171 27.2531 16.0292 27.2627 15.9429 27.2771C15.7174 27.3155 15.4872 27.4018 15.2362 27.5393C14.5519 27.9167 13.8404 28.2748 13.1241 28.6042C12.8779 28.7161 12.6349 28.8232 12.3935 28.9271C12.136 29.0374 11.8802 29.1446 11.6292 29.2453C11.5541 29.2757 11.4805 29.3044 11.407 29.3332C11.2791 29.3828 11.1512 29.4339 11.0249 29.4803C10.6955 29.6034 10.3789 29.7137 10.0768 29.8081C9.77458 29.904 9.48679 29.9855 9.21659 30.0527C9.16223 30.0671 9.10946 30.0783 9.0567 30.0895C8.80089 30.147 8.57066 30.1886 8.36761 30.2094C8.43156 30.1358 8.49871 30.0575 8.56586 29.9775C8.67938 29.8432 8.79929 29.6993 8.924 29.5443C9.04231 29.3988 9.16063 29.2469 9.27894 29.0934C9.32691 29.031 9.37647 28.9671 9.42443 28.9015C9.53635 28.7528 9.64987 28.6026 9.76179 28.4475C9.80016 28.3931 9.83853 28.3403 9.8753 28.286C10.0863 27.9886 10.2814 27.6896 10.4733 27.3715C10.502 27.3219 10.5324 27.2755 10.5628 27.2244C10.606 27.1412 10.6379 27.0629 10.6651 26.9845C10.801 26.596 10.7611 26.2683 10.6907 26.0476C10.6395 25.8845 10.5404 25.6815 10.355 25.4896C10.2446 25.3745 10.1023 25.2642 9.92007 25.1699C9.14304 24.7574 8.42037 24.2825 7.75206 23.7565C7.53462 23.5854 7.32197 23.408 7.11732 23.2257C7.08695 23.1985 7.05657 23.1729 7.02779 23.1458C6.82314 22.9603 6.62808 22.7668 6.43622 22.5702C6.37067 22.5014 6.30192 22.4359 6.23797 22.3655C5.72634 21.8139 5.27068 21.2272 4.87417 20.61C4.47766 19.9929 4.14191 19.3453 3.86691 18.6706C3.42883 17.593 3.17621 16.4643 3.10746 15.3035C3.09148 15.0253 3.08188 14.7471 3.08668 14.4657C3.10267 13.5016 3.24336 12.5679 3.50717 11.671C3.54714 11.5367 3.59031 11.404 3.63508 11.2713C3.67825 11.145 3.72301 11.0202 3.77098 10.8971C3.93406 10.4718 4.12432 10.0562 4.34496 9.65005C5.16516 8.14555 6.31152 6.80573 7.75206 5.67057C8.84406 4.8088 10.0816 4.08613 11.447 3.50895C11.9026 3.31709 12.3711 3.14122 12.8539 2.98294C13.5398 2.7575 14.2465 2.57364 14.974 2.43134C15.4584 2.33701 15.9508 2.26187 16.4513 2.20431C17.2011 2.11957 17.9686 2.0764 18.7504 2.0764C18.8655 2.0764 18.9822 2.0764 19.0989 2.0796C19.1037 2.0796 19.1069 2.0796 19.1117 2.0796C19.9479 2.09399 20.7649 2.15474 21.5595 2.26346C22.0903 2.33541 22.61 2.42814 23.12 2.54166C23.8858 2.71114 24.6261 2.92858 25.3424 3.19078C25.5806 3.27872 25.814 3.36985 26.0458 3.46578C26.3528 3.59209 26.6502 3.72959 26.9444 3.87029C28.1995 4.47145 29.341 5.19891 30.3435 6.04629C31.7457 7.22942 32.8473 8.60601 33.6163 10.1377C33.7586 10.4207 33.8865 10.7069 34.0016 10.9979C34.0528 11.1274 34.1007 11.2601 34.1455 11.3912C34.5436 12.5359 34.7339 13.7414 34.7131 14.9901C34.7099 15.23 34.6875 15.4666 34.6667 15.7032C34.4717 15.7304 34.2798 15.7608 34.0864 15.7943C33.8689 15.8311 33.6531 15.8727 33.4404 15.9175C33.2198 15.9638 33.0008 16.0134 32.7849 16.0709C30.9782 16.5522 29.3426 17.2988 27.9229 18.2885C27.4704 18.6051 27.0467 18.944 26.647 19.3038C26.2329 19.6763 25.846 20.0696 25.4911 20.4853C25.1057 20.9362 24.754 21.4126 24.4422 21.9115C23.9594 22.6869 23.5869 23.5087 23.3278 24.3705C23.2815 24.5239 23.2383 24.679 23.1999 24.8357C23.1616 24.9908 23.1248 25.1491 23.0928 25.3058C23.0065 25.7359 22.9441 26.1755 22.9105 26.6232L22.9089 26.6296ZM50.2713 28.6905C50.185 29.8464 49.8732 30.948 49.3472 31.9649C48.8132 32.9945 48.0889 33.9234 47.1919 34.7261C46.287 35.5351 45.2318 36.1954 44.063 36.6846C43.5802 36.8813 43.3596 37.2106 43.262 37.4425C43.1581 37.6839 43.0766 38.0756 43.2988 38.6096C43.4571 38.9422 43.6394 39.2843 43.8456 39.6313C44.0455 39.9702 44.2485 40.2916 44.45 40.5938C44.4835 40.6449 44.5171 40.6929 44.5491 40.7425C44.5011 40.7265 44.4516 40.7105 44.3988 40.6913C43.9783 40.5458 43.5051 40.3459 42.995 40.0997C42.4722 39.8471 41.9254 39.5577 41.3722 39.2396C40.819 38.923 40.2738 38.5824 39.7526 38.2275C39.5432 38.0852 39.3433 37.9909 39.1371 37.9349C38.9852 37.8949 38.8381 37.8694 38.6926 37.8582L38.6286 37.8534L38.5663 37.8566C38.3185 37.8694 38.0706 37.8742 37.8116 37.8694C37.5574 37.8662 37.3016 37.855 37.0474 37.8358C35.5669 37.7239 34.1711 37.4409 32.8968 36.9916C31.6274 36.5455 30.4698 35.9572 29.4561 35.2441C28.4505 34.5374 27.5887 33.722 26.8964 32.8203C26.2105 31.9297 25.6941 30.9592 25.3616 29.9328C25.2209 29.4995 25.1249 29.055 25.0594 28.6057C24.7796 28.6889 24.503 28.7752 24.2184 28.8472C24.5046 28.7752 24.7812 28.6889 25.0594 28.6057C24.9714 28.0094 24.9443 27.4018 24.989 26.7863C24.9986 26.668 25.0226 26.5529 25.0354 26.4361C25.1777 25.2114 25.563 24.0619 26.2105 23.0226C26.9348 21.8603 27.9133 20.845 29.1156 20.0073C30.3355 19.1567 31.7505 18.5124 33.3205 18.0951C33.6243 18.0135 33.9377 17.9528 34.2494 17.892C34.9673 17.7529 35.7092 17.673 36.4702 17.6426C37.0985 17.617 37.7349 17.617 38.3872 17.665C40.1667 17.7993 41.8295 18.1974 43.3276 18.8481C44.8225 19.4972 46.1271 20.3446 47.2047 21.3679C48.2696 22.3799 49.0818 23.5295 49.6238 24.7846C50.1546 26.0141 50.372 27.3283 50.2681 28.6889L50.2713 28.6905Z" fill="white"/>
</g>
<path d="M22.9002 26.9971C22.8058 27.0163 22.7115 27.0322 22.6172 27.0498C22.7115 27.0322 22.8074 27.0163 22.9002 26.9971Z" fill="white"/>
<path d="M22.2219 27.1206C21.7695 27.1958 21.3106 27.2565 20.8438 27.3013C21.3106 27.2565 21.7695 27.1958 22.2219 27.1206Z" fill="white"/>
<path d="M15.2371 27.5405C14.5528 27.9179 13.8413 28.276 13.125 28.6053C13.8413 28.276 14.5528 27.9179 15.2371 27.5405V27.5405Z" fill="white"/>
<path d="M8.36328 30.2146C8.56633 30.1939 8.79816 30.1523 9.05238 30.0947C8.79656 30.1523 8.56633 30.1939 8.36328 30.2146Z" fill="white"/>
<path d="M9.91801 25.1741C9.14098 24.7616 8.41831 24.2868 7.75 23.7607C8.41671 24.2868 9.14098 24.7616 9.91801 25.1741Z" fill="white"/>
<path d="M7.11688 23.2308C7.0865 23.2036 7.05612 23.1781 7.02734 23.1509C7.05772 23.1781 7.0881 23.2036 7.11688 23.2308Z" fill="white"/>
<path d="M12.3931 28.9282C12.1357 29.0385 11.8799 29.1457 11.6289 29.2464C11.8799 29.1457 12.1357 29.0385 12.3931 28.9282Z" fill="white"/>
<path d="M10.0742 29.8113C10.3764 29.7153 10.693 29.605 11.0223 29.4835C11.1486 29.4372 11.2765 29.386 11.4044 29.3364C11.2765 29.386 11.1486 29.4372 11.0223 29.4835C10.693 29.6066 10.3764 29.7169 10.0742 29.8113Z" fill="white"/>
<path d="M9.27558 29.0962C9.15726 29.2497 9.03895 29.4016 8.92064 29.5471C8.79593 29.7021 8.67602 29.8444 8.5625 29.9803C8.67602 29.846 8.79593 29.7021 8.92064 29.5471C9.03895 29.4016 9.15726 29.2497 9.27558 29.0962Z" fill="white"/>
<path d="M15.2344 27.5411C15.4854 27.4036 15.7156 27.3173 15.9411 27.2789C16.0274 27.2645 16.1153 27.2549 16.2001 27.2485C16.1153 27.2549 16.0274 27.2645 15.9411 27.2789C15.7156 27.3173 15.4854 27.4036 15.2344 27.5411Z" fill="white"/>
<path d="M9.87274 28.291C9.83437 28.3438 9.7976 28.3981 9.75923 28.4525C9.64731 28.6076 9.53379 28.7579 9.42188 28.9066C9.53379 28.7579 9.64731 28.6076 9.75923 28.4525C9.7976 28.3981 9.83597 28.3454 9.87274 28.291Z" fill="white"/>
<path d="M17 27.3013C17.1711 27.3205 17.3437 27.338 17.518 27.3508C17.6763 27.3636 17.8362 27.3732 17.9945 27.3796C17.8346 27.3716 17.6763 27.362 17.518 27.3508C17.3437 27.338 17.1711 27.3205 17 27.3013Z" fill="white"/>
<path d="M34.0873 15.8022C33.8699 15.839 33.6541 15.8806 33.4414 15.9254C33.6556 15.8806 33.8699 15.839 34.0873 15.8022Z" fill="white"/>
<path d="M22.9062 26.7222C22.9062 26.6918 22.9063 26.6598 22.9094 26.6294C22.943 26.1818 23.0038 25.7437 23.0917 25.312C23.0054 25.7421 22.943 26.1818 22.9094 26.6294C22.9078 26.6598 22.9078 26.6918 22.9062 26.7222Z" fill="white"/>
<path d="M10.6645 26.9897C10.6373 27.0681 10.6054 27.148 10.5622 27.2296C10.5334 27.2791 10.503 27.3271 10.4727 27.3767C10.503 27.3271 10.5318 27.2807 10.5622 27.2296C10.6054 27.1464 10.6373 27.0681 10.6645 26.9897Z" fill="white"/>
<path d="M16.2031 27.2479C16.2895 27.2415 16.3726 27.2383 16.4525 27.2383L16.5261 27.2447L16.4525 27.2383C16.3726 27.2383 16.2879 27.2415 16.2031 27.2479Z" fill="white"/>
<path d="M34.7121 14.9984C34.7089 15.2382 34.6865 15.4748 34.6658 15.7115C34.6849 15.4748 34.7073 15.2382 34.7121 14.9984C34.7329 13.7497 34.541 12.5442 34.1445 11.3994C34.5426 12.5442 34.7329 13.7497 34.7121 14.9984Z" fill="white"/>
<path d="M4.875 20.6162C5.27151 21.2334 5.72718 21.8201 6.2388 22.3717C6.30275 22.4405 6.3715 22.5076 6.43705 22.5764C6.3715 22.5076 6.30275 22.4421 6.2388 22.3717C5.72718 21.8201 5.27151 21.2334 4.875 20.6162V20.6162Z" fill="white"/>
<path d="M25.4883 20.4916C25.8432 20.0759 26.2301 19.6826 26.6442 19.3101C26.2301 19.6826 25.8432 20.0759 25.4883 20.4916Z" fill="white"/>
<path d="M23.3271 24.377C23.2808 24.5304 23.2376 24.6855 23.1992 24.8422C23.2392 24.6855 23.2808 24.5304 23.3271 24.377Z" fill="white"/>
<g filter="url(#filter2_d_1586_23070)">
<path d="M42.3147 24.717C42.0716 24.4197 41.7774 24.183 41.4353 24.004C41.0915 23.8265 40.711 23.721 40.2937 23.689C39.8061 23.6522 39.3392 23.7498 38.8916 23.9816C38.4455 24.2134 38.0937 24.5428 37.8395 24.9697C37.6557 24.5092 37.3599 24.1319 36.9522 23.8361C36.5461 23.5403 36.0984 23.3724 35.6108 23.3373C35.1935 23.3053 34.8018 23.3532 34.4356 23.478C34.0695 23.6027 33.7433 23.7945 33.4587 24.0503C33.1742 24.3077 32.9439 24.6195 32.7696 24.9872C32.5954 25.355 32.4915 25.7659 32.4563 26.2199C32.4003 26.9666 32.5586 27.7212 32.9295 28.4855C33.3005 29.2497 33.8361 30.0092 34.5364 30.7638C35.235 31.5185 36.0504 32.2571 36.981 32.9766C37.0161 33.0054 37.0561 33.0293 37.1041 33.0501C37.1504 33.0709 37.192 33.0821 37.2304 33.0853C37.2703 33.0885 37.3151 33.0837 37.3631 33.0709C37.411 33.0581 37.4558 33.0405 37.4974 33.0166C38.5254 32.4442 39.4416 31.8366 40.2458 31.1939C41.05 30.5528 41.6927 29.8813 42.1756 29.1826C42.6568 28.4839 42.927 27.7596 42.983 27.0146C43.0165 26.5605 42.975 26.1384 42.8583 25.7483C42.7415 25.3582 42.5609 25.0144 42.3178 24.7186L42.3147 24.717Z" fill="white"/>
</g>
<path d="M3.10938 15.3101C3.17812 16.4708 3.43074 17.6012 3.86882 18.6772C4.14222 19.3519 4.47957 19.9994 4.87608 20.6166C4.47957 19.9994 4.14382 19.3519 3.86882 18.6772C3.43074 17.5996 3.17812 16.4708 3.10938 15.3101V15.3101Z" fill="url(#paint22_linear_1586_23070)"/>
<path d="M14.9727 2.43944C15.4571 2.34511 15.9495 2.26996 16.45 2.2124C15.9495 2.26996 15.4571 2.34511 14.9727 2.43944Z" fill="url(#paint23_linear_1586_23070)"/>
<path d="M3.50781 11.6785C3.54778 11.5442 3.59095 11.4115 3.63572 11.2788C3.59095 11.4115 3.54778 11.5442 3.50781 11.6785V11.6785Z" fill="url(#paint24_linear_1586_23070)"/>
<path d="M19.0969 2.08767C18.9802 2.08607 18.8634 2.08447 18.7483 2.08447C17.9665 2.08447 17.1991 2.12764 16.4492 2.21238C17.1991 2.12764 17.9665 2.08447 18.7483 2.08447C18.8634 2.08447 18.9802 2.08447 19.0969 2.08767Z" fill="url(#paint25_linear_1586_23070)"/>
<path d="M3.63281 11.2789C3.67598 11.1526 3.72075 11.0279 3.76871 10.9048C3.72075 11.0295 3.67598 11.1542 3.63281 11.2789Z" fill="white"/>
<path d="M26.043 3.47217C26.3499 3.59848 26.6473 3.73597 26.9415 3.87667C26.6473 3.73597 26.3499 3.59848 26.043 3.47217Z" fill="white"/>
<path d="M26.043 3.47197C25.8128 3.37604 25.5778 3.28491 25.3396 3.19698C24.6249 2.93477 23.883 2.71733 23.1172 2.54785C23.883 2.71733 24.6233 2.93477 25.3396 3.19698C25.5778 3.28491 25.8112 3.37604 26.043 3.47197Z" fill="white"/>
<path d="M3.50767 11.6787C3.24386 12.5757 3.10316 13.5094 3.08718 14.4735C3.08238 14.7549 3.09197 15.0331 3.10796 15.3112C3.09197 15.0331 3.08238 14.7549 3.08718 14.4735C3.10316 13.5094 3.24386 12.5757 3.50767 11.6787V11.6787Z" fill="white"/>
<path d="M14.9723 2.43945C14.2465 2.58175 13.5382 2.76401 12.8523 2.99105C12.3694 3.14933 11.901 3.3252 11.4453 3.51706C11.901 3.3252 12.3694 3.14933 12.8523 2.99105C13.5382 2.76561 14.2449 2.58175 14.9723 2.43945V2.43945Z" fill="white"/>
<path d="M21.5583 2.27176C20.762 2.16304 19.945 2.10228 19.1104 2.08789C19.1057 2.08789 19.1025 2.08789 19.0977 2.08789C19.1025 2.08789 19.1057 2.08789 19.1104 2.08789C19.9466 2.10228 20.7636 2.16304 21.5599 2.27176H21.5583Z" fill="white"/>
<path d="M59.8729 25.7047L69.7003 13.7654H60.0982V12.3293H71.8686V13.6246L62.0975 25.5639H71.8404V27H59.8729V25.7047ZM81.0046 27.2816C79.9533 27.2816 78.9771 27.0845 78.076 26.6903C77.175 26.2773 76.3959 25.7235 75.7389 25.0289C75.0818 24.3155 74.5656 23.4989 74.1901 22.5791C73.8335 21.6592 73.6551 20.6737 73.6551 19.6224C73.6551 18.252 73.9649 16.9942 74.5844 15.8491C75.2226 14.704 76.0955 13.7935 77.2031 13.1177C78.3107 12.4231 79.5685 12.0758 80.9764 12.0758C82.4219 12.0758 83.6796 12.4231 84.7497 13.1177C85.8385 13.8123 86.6926 14.7322 87.3121 15.8773C87.9316 17.0036 88.2414 18.2426 88.2414 19.5942C88.2414 19.7444 88.2414 19.8946 88.2414 20.0448C88.2414 20.1762 88.232 20.2794 88.2132 20.3545H75.6544C75.7482 21.4058 76.0392 22.3444 76.5273 23.1704C77.0342 23.9776 77.6818 24.6253 78.4703 25.1134C79.2775 25.5827 80.1504 25.8173 81.089 25.8173C82.0464 25.8173 82.9475 25.5733 83.7923 25.0852C84.6558 24.5971 85.2565 23.9589 85.5944 23.1704L87.2558 23.6209C86.9555 24.3155 86.4955 24.9444 85.876 25.5076C85.2565 26.0708 84.5244 26.5119 83.6796 26.831C82.8537 27.1314 81.962 27.2816 81.0046 27.2816ZM75.5981 18.9747H86.4392C86.3641 17.9047 86.0731 16.9661 85.5663 16.1589C85.0782 15.3516 84.4305 14.7228 83.6233 14.2722C82.8349 13.8029 81.962 13.5683 81.0046 13.5683C80.0472 13.5683 79.1742 13.8029 78.3858 14.2722C77.5973 14.7228 76.9497 15.361 76.4428 16.187C75.9547 16.9942 75.6732 17.9235 75.5981 18.9747ZM91.2801 6.44408H93.1949V23.6773C93.1949 24.4094 93.3263 24.8881 93.5891 25.1134C93.8519 25.3386 94.1711 25.4513 94.5465 25.4513C94.8844 25.4513 95.2223 25.4137 95.5602 25.3386C95.8981 25.2635 96.1891 25.1885 96.4332 25.1134L96.7711 26.6621C96.4144 26.8123 95.9732 26.9343 95.4476 27.0282C94.9407 27.122 94.4996 27.169 94.1241 27.169C93.2606 27.169 92.566 26.9155 92.0404 26.4087C91.5335 25.9018 91.2801 25.2072 91.2801 24.3249V6.44408ZM98.9523 6.44408H100.867V23.6773C100.867 24.4094 100.998 24.8881 101.261 25.1134C101.524 25.3386 101.843 25.4513 102.219 25.4513C102.557 25.4513 102.894 25.4137 103.232 25.3386C103.57 25.2635 103.861 25.1885 104.105 25.1134L104.443 26.6621C104.087 26.8123 103.645 26.9343 103.12 27.0282C102.613 27.122 102.172 27.169 101.796 27.169C100.933 27.169 100.238 26.9155 99.7126 26.4087C99.2057 25.9018 98.9523 25.2072 98.9523 24.3249V6.44408ZM112.791 27.2816C111.74 27.2816 110.764 27.0845 109.863 26.6903C108.98 26.2773 108.211 25.7235 107.554 25.0289C106.915 24.3155 106.418 23.5083 106.061 22.6072C105.705 21.6874 105.526 20.7206 105.526 19.7069C105.526 18.6556 105.705 17.6794 106.061 16.7784C106.418 15.8585 106.925 15.0513 107.582 14.3567C108.239 13.6433 109.009 13.0896 109.891 12.6953C110.792 12.2823 111.768 12.0758 112.819 12.0758C113.871 12.0758 114.837 12.2823 115.72 12.6953C116.602 13.0896 117.372 13.6433 118.029 14.3567C118.686 15.0513 119.193 15.8585 119.549 16.7784C119.906 17.6794 120.084 18.6556 120.084 19.7069C120.084 20.7206 119.906 21.6874 119.549 22.6072C119.193 23.5083 118.686 24.3155 118.029 25.0289C117.39 25.7235 116.621 26.2773 115.72 26.6903C114.837 27.0845 113.861 27.2816 112.791 27.2816ZM107.469 19.735C107.469 20.8238 107.704 21.8188 108.173 22.7199C108.661 23.6022 109.309 24.3061 110.116 24.8318C110.923 25.3386 111.815 25.5921 112.791 25.5921C113.767 25.5921 114.659 25.3292 115.466 24.8036C116.274 24.278 116.921 23.5646 117.409 22.6635C117.897 21.7437 118.141 20.7487 118.141 19.6787C118.141 18.5899 117.897 17.595 117.409 16.6939C116.921 15.7928 116.274 15.0794 115.466 14.5538C114.659 14.0282 113.767 13.7654 112.791 13.7654C111.815 13.7654 110.923 14.0376 110.116 14.582C109.328 15.1264 108.689 15.8491 108.201 16.7502C107.713 17.6325 107.469 18.6275 107.469 19.735Z" fill="#494949"/>
<defs>
<filter id="filter0_d_1586_23070" x="10.986" y="8.09277" width="14.8226" height="14.8221" filterUnits="userSpaceOnUse" color-interpolation-filters="sRGB">
<feFlood flood-opacity="0" result="BackgroundImageFix"/>
<feColorMatrix in="SourceAlpha" type="matrix" values="0 0 0 0 0 0 0 0 0 0 0 0 0 0 0 0 0 0 127 0" result="hardAlpha"/>
<feOffset dx="-0.495265" dy="0.495265"/>
<feGaussianBlur stdDeviation="0.247632"/>
<feColorMatrix type="matrix" values="0 0 0 0 0 0 0 0 0 0 0 0 0 0 0 0 0 0 0.2 0"/>
<feBlend mode="normal" in2="BackgroundImageFix" result="effect1_dropShadow_1586_23070"/>
<feBlend mode="normal" in="SourceGraphic" in2="effect1_dropShadow_1586_23070" result="shape"/>
</filter>
<filter id="filter1_d_1586_23070" x="0.00947058" y="0" width="52.3733" height="43.9905" filterUnits="userSpaceOnUse" color-interpolation-filters="sRGB">
<feFlood flood-opacity="0" result="BackgroundImageFix"/>
<feColorMatrix in="SourceAlpha" type="matrix" values="0 0 0 0 0 0 0 0 0 0 0 0 0 0 0 0 0 0 127 0" result="hardAlpha"/>
<feOffset dx="-0.495265" dy="0.495265"/>
<feGaussianBlur stdDeviation="0.247632"/>
<feColorMatrix type="matrix" values="0 0 0 0 0 0 0 0 0 0 0 0 0 0 0 0 0 0 0.25 0"/>
<feBlend mode="normal" in2="BackgroundImageFix" result="effect1_dropShadow_1586_23070"/>
<feBlend mode="normal" in="SourceGraphic" in2="effect1_dropShadow_1586_23070" result="shape"/>
</filter>
<filter id="filter2_d_1586_23070" x="31.4548" y="23.3276" width="11.5413" height="10.7493" filterUnits="userSpaceOnUse" color-interpolation-filters="sRGB">
<feFlood flood-opacity="0" result="BackgroundImageFix"/>
<feColorMatrix in="SourceAlpha" type="matrix" values="0 0 0 0 0 0 0 0 0 0 0 0 0 0 0 0 0 0 127 0" result="hardAlpha"/>
<feOffset dx="-0.495265" dy="0.495265"/>
<feGaussianBlur stdDeviation="0.247632"/>
<feColorMatrix type="matrix" values="0 0 0 0 0 0 0 0 0 0 0 0 0 0 0 0 0 0 0.2 0"/>
<feBlend mode="normal" in2="BackgroundImageFix" result="effect1_dropShadow_1586_23070"/>
<feBlend mode="normal" in="SourceGraphic" in2="effect1_dropShadow_1586_23070" result="shape"/>
</filter>
<linearGradient id="paint0_linear_1586_23070" x1="9.34698" y1="-13.6505" x2="9.34698" y2="56.6538" gradientUnits="userSpaceOnUse">
<stop stop-color="#27C5DA"/>
<stop offset="1" stop-color="#05A0F0"/>
</linearGradient>
<linearGradient id="paint1_linear_1586_23070" x1="7.61222" y1="-13.65" x2="7.61222" y2="56.6536" gradientUnits="userSpaceOnUse">
<stop stop-color="#27C5DA"/>
<stop offset="1" stop-color="#05A0F0"/>
</linearGradient>
<linearGradient id="paint2_linear_1586_23070" x1="10.5514" y1="-13.6499" x2="10.5514" y2="56.6537" gradientUnits="userSpaceOnUse">
<stop stop-color="#27C5DA"/>
<stop offset="1" stop-color="#05A0F0"/>
</linearGradient>
<linearGradient id="paint3_linear_1586_23070" x1="10.174" y1="-13.6495" x2="10.174" y2="56.6542" gradientUnits="userSpaceOnUse">
<stop stop-color="#27C5DA"/>
<stop offset="1" stop-color="#05A0F0"/>
</linearGradient>
<linearGradient id="paint4_linear_1586_23070" x1="6.73328" y1="-13.65" x2="6.73328" y2="56.6538" gradientUnits="userSpaceOnUse">
<stop stop-color="#27C5DA"/>
<stop offset="1" stop-color="#05A0F0"/>
</linearGradient>
<linearGradient id="paint5_linear_1586_23070" x1="8.46241" y1="-13.6495" x2="8.46241" y2="56.654" gradientUnits="userSpaceOnUse">
<stop stop-color="#27C5DA"/>
<stop offset="1" stop-color="#05A0F0"/>
</linearGradient>
<linearGradient id="paint6_linear_1586_23070" x1="24.4105" y1="-13.6497" x2="24.4105" y2="56.654" gradientUnits="userSpaceOnUse">
<stop stop-color="#27C5DA"/>
<stop offset="1" stop-color="#05A0F0"/>
</linearGradient>
<linearGradient id="paint7_linear_1586_23070" x1="11.5166" y1="-13.6502" x2="11.5166" y2="56.6538" gradientUnits="userSpaceOnUse">
<stop stop-color="#27C5DA"/>
<stop offset="1" stop-color="#05A0F0"/>
</linearGradient>
<linearGradient id="paint8_linear_1586_23070" x1="34.3769" y1="-13.6494" x2="34.3769" y2="56.6542" gradientUnits="userSpaceOnUse">
<stop stop-color="#27C5DA"/>
<stop offset="1" stop-color="#05A0F0"/>
</linearGradient>
<linearGradient id="paint9_linear_1586_23070" x1="34.0719" y1="-13.6497" x2="34.0719" y2="56.6541" gradientUnits="userSpaceOnUse">
<stop stop-color="#27C5DA"/>
<stop offset="1" stop-color="#05A0F0"/>
</linearGradient>
<linearGradient id="paint10_linear_1586_23070" x1="30.4723" y1="-13.6495" x2="30.4723" y2="56.6541" gradientUnits="userSpaceOnUse">
<stop stop-color="#27C5DA"/>
<stop offset="1" stop-color="#05A0F0"/>
</linearGradient>
<linearGradient id="paint11_linear_1586_23070" x1="7.43376" y1="-13.6496" x2="7.43376" y2="56.6539" gradientUnits="userSpaceOnUse">
<stop stop-color="#27C5DA"/>
<stop offset="1" stop-color="#05A0F0"/>
</linearGradient>
<linearGradient id="paint12_linear_1586_23070" x1="30.042" y1="-13.6498" x2="30.042" y2="56.6538" gradientUnits="userSpaceOnUse">
<stop stop-color="#27C5DA"/>
<stop offset="1" stop-color="#05A0F0"/>
</linearGradient>
<linearGradient id="paint13_linear_1586_23070" x1="22.4193" y1="-13.6502" x2="22.4193" y2="56.6539" gradientUnits="userSpaceOnUse">
<stop stop-color="#27C5DA"/>
<stop offset="1" stop-color="#05A0F0"/>
</linearGradient>
<linearGradient id="paint14_linear_1586_23070" x1="19.4206" y1="-13.6503" x2="19.4206" y2="56.6547" gradientUnits="userSpaceOnUse">
<stop stop-color="#27C5DA"/>
<stop offset="1" stop-color="#05A0F0"/>
</linearGradient>
<linearGradient id="paint15_linear_1586_23070" x1="23.1426" y1="-13.65" x2="23.1426" y2="56.6537" gradientUnits="userSpaceOnUse">
<stop stop-color="#27C5DA"/>
<stop offset="1" stop-color="#05A0F0"/>
</linearGradient>
<linearGradient id="paint16_linear_1586_23070" x1="22.9016" y1="-13.6494" x2="22.9016" y2="56.6543" gradientUnits="userSpaceOnUse">
<stop stop-color="#27C5DA"/>
<stop offset="1" stop-color="#05A0F0"/>
</linearGradient>
<linearGradient id="paint17_linear_1586_23070" x1="16.7656" y1="-13.6503" x2="16.7656" y2="56.6535" gradientUnits="userSpaceOnUse">
<stop stop-color="#27C5DA"/>
<stop offset="1" stop-color="#05A0F0"/>
</linearGradient>
<linearGradient id="paint18_linear_1586_23070" x1="37.631" y1="-13.6497" x2="37.631" y2="56.6539" gradientUnits="userSpaceOnUse">
<stop stop-color="#27C5DA"/>
<stop offset="1" stop-color="#05A0F0"/>
</linearGradient>
<linearGradient id="paint19_linear_1586_23070" x1="12.7591" y1="-13.65" x2="12.7591" y2="56.6538" gradientUnits="userSpaceOnUse">
<stop stop-color="#27C5DA"/>
<stop offset="1" stop-color="#05A0F0"/>
</linearGradient>
<linearGradient id="paint20_linear_1586_23070" x1="9.56471" y1="-13.6493" x2="9.56471" y2="56.6542" gradientUnits="userSpaceOnUse">
<stop stop-color="#27C5DA"/>
<stop offset="1" stop-color="#05A0F0"/>
</linearGradient>
<linearGradient id="paint21_linear_1586_23070" x1="18.9005" y1="-13.6499" x2="18.9005" y2="56.6537" gradientUnits="userSpaceOnUse">
<stop stop-color="#27C5DA"/>
<stop offset="1" stop-color="#05A0F0"/>
</linearGradient>
<linearGradient id="paint22_linear_1586_23070" x1="3.99193" y1="-13.6495" x2="3.99193" y2="56.6541" gradientUnits="userSpaceOnUse">
<stop stop-color="#27C5DA"/>
<stop offset="1" stop-color="#05A0F0"/>
</linearGradient>
<linearGradient id="paint23_linear_1586_23070" x1="15.7113" y1="-13.6496" x2="15.7113" y2="56.6541" gradientUnits="userSpaceOnUse">
<stop stop-color="#27C5DA"/>
<stop offset="1" stop-color="#05A0F0"/>
</linearGradient>
<linearGradient id="paint24_linear_1586_23070" x1="3.57177" y1="-13.6501" x2="3.57177" y2="56.6535" gradientUnits="userSpaceOnUse">
<stop stop-color="#27C5DA"/>
<stop offset="1" stop-color="#05A0F0"/>
</linearGradient>
<linearGradient id="paint25_linear_1586_23070" x1="17.7714" y1="-13.6496" x2="17.7714" y2="56.6541" gradientUnits="userSpaceOnUse">
<stop stop-color="#27C5DA"/>
<stop offset="1" stop-color="#05A0F0"/>
</linearGradient>
</defs>
</svg>
