<svg width="36" height="37" viewBox="0 0 36 37" fill="none" xmlns="http://www.w3.org/2000/svg">
<g clip-path="url(#clip0_1770_23838)">
<path d="M25.1305 36.4127H10.3097C4.63712 36.4127 0 31.7711 0 26.103V10.3097C0 4.64163 4.64163 0 10.3097 0H25.1305C30.8031 0 35.4402 4.64163 35.4402 10.3097V26.103C35.4402 31.7756 30.7986 36.4127 25.1305 36.4127ZM25.1305 33.6889C27.1474 33.6889 29.0473 32.8966 30.488 31.4559C31.9286 30.0152 32.7165 28.1154 32.7165 26.0985V10.3097C32.7165 8.2928 31.9241 6.39293 30.488 4.95227C29.0518 3.51161 27.1474 2.71925 25.1305 2.71925H10.3097C8.2928 2.71925 6.39293 3.51161 4.95227 4.95227C3.51161 6.39293 2.71925 8.2928 2.71925 10.3097V26.103C2.71925 28.1199 3.51161 30.0197 4.95227 31.4604C6.39293 32.9011 8.2928 33.6934 10.3097 33.6934H25.1305V33.6889Z" fill="#636366"/>
<path d="M27.5366 18.0676C27.5366 23.4566 23.1651 27.8281 17.7761 27.8281C12.3871 27.8281 8.01562 23.4566 8.01562 18.0676C8.01562 12.6786 12.3871 8.30713 17.7761 8.30713C23.1651 8.30713 27.5366 12.6786 27.5366 18.0676ZM17.7311 11.6837C14.2015 11.6837 11.3381 14.547 11.3381 18.0766C11.3381 21.6062 14.2015 24.4695 17.7311 24.4695C21.2607 24.4695 24.124 21.6062 24.124 18.0766C24.124 14.547 21.2607 11.6837 17.7311 11.6837V11.6837Z" fill="#636366"/>
<path d="M27.6963 10.4629C28.9718 10.4629 30.0058 9.42884 30.0058 8.15331C30.0058 6.87777 28.9718 5.84375 27.6963 5.84375C26.4207 5.84375 25.3867 6.87777 25.3867 8.15331C25.3867 9.42884 26.4207 10.4629 27.6963 10.4629Z" fill="#636366"/>
</g>
<defs>
<clipPath id="clip0_1770_23838">
<rect width="35.4402" height="36.4127" fill="white"/>
</clipPath>
</defs>
</svg>
