<svg width="82" height="81" viewBox="0 0 82 81" fill="none" xmlns="http://www.w3.org/2000/svg">
<g filter="url(#filter0_d_1770_23771)">
<rect x="4" y="2" width="66.3204" height="66.3204" rx="33.1602" fill="white" shape-rendering="crispEdges"/>
<path d="M38.2288 28.4428L35.2755 31.3961C36.3247 31.4998 37.2379 31.7265 38.0151 32.0762C38.8052 32.413 39.4788 32.8534 40.0358 33.3974C41.0591 34.4207 41.7391 35.5541 42.0759 36.7976C42.4256 38.0282 42.4256 39.2587 42.0759 40.4893C41.7391 41.7198 41.0591 42.8468 40.0358 43.8701L33.8959 49.9905C32.8726 51.0138 31.7457 51.6938 30.5152 52.0306C29.2846 52.3803 28.0541 52.3803 26.8235 52.0306C25.5929 51.6938 24.466 51.0138 23.4427 49.9905C22.4194 48.9672 21.7329 47.8402 21.3832 46.6097C21.0464 45.3791 21.0464 44.1486 21.3832 42.918C21.7329 41.6875 22.4129 40.5605 23.4233 39.5372L26.3766 36.5839C26.0787 35.8715 25.8779 35.1008 25.7743 34.2718C25.6836 33.4428 25.729 32.6526 25.9103 31.9013L20.7031 37.0891C19.1876 38.6046 18.1708 40.282 17.6526 42.1214C17.1475 43.9607 17.1475 45.8066 17.6526 47.6589C18.1578 49.4982 19.1811 51.1822 20.7225 52.7106C22.251 54.2521 23.9349 55.2754 25.7743 55.7805C27.6266 56.2857 29.4724 56.2792 31.3118 55.7611C33.1511 55.2559 34.8286 54.2456 36.3441 52.7301L42.7754 46.2988C44.2909 44.7833 45.3012 43.1058 45.8064 41.2665C46.3245 39.4271 46.3245 37.5878 45.8064 35.7484C45.3012 33.8961 44.2844 32.2057 42.7559 30.6772C42.2249 30.1591 41.5901 29.7058 40.8518 29.3172C40.1264 28.9286 39.2521 28.6371 38.2288 28.4428ZM36.0915 44.0838L39.0254 41.1305C37.9762 41.0268 37.0565 40.8066 36.2664 40.4699C35.4892 40.1201 34.8351 39.6668 34.304 39.1098C33.2677 38.0865 32.5747 36.9595 32.225 35.729C31.8882 34.4984 31.8882 33.2679 32.225 32.0373C32.5747 30.8068 33.2548 29.6798 34.2651 28.6565L40.4244 22.5167C41.4347 21.4934 42.5552 20.8134 43.7857 20.4766C45.0163 20.1398 46.2468 20.1398 47.4774 20.4766C48.7079 20.8134 49.8413 21.4934 50.8776 22.5167C51.9009 23.553 52.5809 24.6929 52.9177 25.9364C53.2675 27.1669 53.2675 28.3975 52.9177 29.628C52.5809 30.8456 51.9009 31.9661 50.8776 32.9894L47.9437 35.9427C48.2416 36.6422 48.4359 37.4064 48.5266 38.2354C48.6302 39.0644 48.5914 39.8611 48.41 40.6253L53.6172 35.4375C55.1457 33.9091 56.1625 32.2316 56.6677 30.4052C57.1728 28.5659 57.1664 26.7265 56.6482 24.8872C56.1431 23.0349 55.1262 21.3445 53.5978 19.816C52.0563 18.2746 50.3659 17.2513 48.5266 16.7461C46.6872 16.228 44.8479 16.228 43.0085 16.7461C41.1692 17.2513 39.4982 18.2681 37.9956 19.7966L31.5449 26.2278C30.0294 27.7433 29.0191 29.4208 28.5139 31.2601C28.0087 33.0995 28.0022 34.9388 28.4945 36.7782C28.9996 38.6176 30.0229 40.3079 31.5644 41.8494C32.0825 42.3546 32.7107 42.8014 33.4491 43.19C34.1874 43.5786 35.0682 43.8766 36.0915 44.0838Z" fill="url(#paint0_linear_1770_23771)"/>
</g>
<defs>
<filter id="filter0_d_1770_23771" x="0.415115" y="0.207558" width="80.6599" height="80.6599" filterUnits="userSpaceOnUse" color-interpolation-filters="sRGB">
<feFlood flood-opacity="0" result="BackgroundImageFix"/>
<feColorMatrix in="SourceAlpha" type="matrix" values="0 0 0 0 0 0 0 0 0 0 0 0 0 0 0 0 0 0 127 0" result="hardAlpha"/>
<feOffset dx="3.58488" dy="5.37733"/>
<feGaussianBlur stdDeviation="3.58488"/>
<feComposite in2="hardAlpha" operator="out"/>
<feColorMatrix type="matrix" values="0 0 0 0 0.516667 0 0 0 0 0.516667 0 0 0 0 0.516667 0 0 0 0.2 0"/>
<feBlend mode="normal" in2="BackgroundImageFix" result="effect1_dropShadow_1770_23771"/>
<feBlend mode="normal" in="SourceGraphic" in2="effect1_dropShadow_1770_23771" result="shape"/>
</filter>
<linearGradient id="paint0_linear_1770_23771" x1="37.1602" y1="11.6602" x2="37.1602" y2="58.6602" gradientUnits="userSpaceOnUse">
<stop stop-color="#2ABEBE"/>
<stop offset="1" stop-color="#08A5F1"/>
</linearGradient>
</defs>
</svg>
