<svg width="44" height="44" viewBox="0 0 44 44" fill="none" xmlns="http://www.w3.org/2000/svg">
<g filter="url(#filter0_d_1721_23172)">
<rect x="2" y="1" width="36" height="36" rx="18" fill="white" shape-rendering="crispEdges"/>
<path d="M12.9441 30.607C13.4082 30.607 14.0023 30.4734 14.7266 30.2063C15.4578 29.9461 16.2242 29.598 17.0258 29.1621C17.8344 28.7262 18.5937 28.2551 19.3039 27.7488C20.7242 27.7629 22.0566 27.6223 23.3012 27.327C24.5457 27.0316 25.6777 26.6027 26.6973 26.0402C27.7238 25.4777 28.6063 24.8062 29.3445 24.0258C30.0828 23.2453 30.6524 22.3805 31.0531 21.4312C31.4539 20.475 31.6543 19.459 31.6543 18.3832C31.6543 17.0824 31.352 15.866 30.7473 14.734C30.1496 13.5949 29.3164 12.5965 28.2477 11.7387C27.1859 10.8808 25.9484 10.2094 24.5352 9.7242C23.1219 9.23202 21.6066 8.98592 19.9895 8.98592C18.3723 8.98592 16.8605 9.23202 15.4543 9.7242C14.048 10.2094 12.8105 10.8808 11.7418 11.7387C10.673 12.5965 9.83632 13.5949 9.23163 14.734C8.63397 15.866 8.33515 17.0824 8.33515 18.3832C8.33515 19.473 8.54608 20.5137 8.96796 21.5051C9.39687 22.4894 9.99452 23.3789 10.7609 24.1734C11.5344 24.968 12.4379 25.6219 13.4715 26.1352C13.3309 26.3953 13.1621 26.6801 12.9652 26.9895C12.7754 27.2988 12.582 27.5941 12.3851 27.8754C12.1953 28.1637 12.0266 28.4027 11.8789 28.5926C11.6609 28.8879 11.5625 29.1902 11.5836 29.4996C11.6047 29.816 11.7312 30.0797 11.9633 30.2906C12.2023 30.5016 12.5293 30.607 12.9441 30.607ZM14.1992 28.4238C14.1359 28.452 14.0902 28.452 14.0621 28.4238C14.041 28.3957 14.0551 28.35 14.1043 28.2867C14.3504 27.9844 14.6316 27.6152 14.948 27.1793C15.2715 26.7434 15.5281 26.3496 15.718 25.998C15.8727 25.7168 15.9148 25.4602 15.8445 25.2281C15.7742 24.9891 15.5809 24.7922 15.2644 24.6375C14.259 24.1734 13.4012 23.618 12.691 22.9711C11.9809 22.3242 11.4359 21.6141 11.0562 20.8406C10.6836 20.0601 10.4973 19.241 10.4973 18.3832C10.4973 17.3848 10.7398 16.4496 11.225 15.5777C11.7172 14.6988 12.3957 13.9289 13.2605 13.268C14.1324 12.6 15.1414 12.0797 16.2875 11.707C17.4406 11.3344 18.6746 11.148 19.9895 11.148C21.3184 11.148 22.5559 11.3344 23.702 11.707C24.8481 12.0797 25.8535 12.6 26.7184 13.268C27.5902 13.9289 28.2688 14.6988 28.7539 15.5777C29.2461 16.4496 29.4922 17.3848 29.4922 18.3832C29.4922 19.3746 29.2461 20.3098 28.7539 21.1887C28.2688 22.0605 27.5902 22.8305 26.7184 23.4984C25.8535 24.1594 24.8481 24.6797 23.702 25.0594C22.5559 25.432 21.3184 25.6184 19.9895 25.6184C19.9051 25.6184 19.7961 25.6184 19.6625 25.6184C19.5359 25.6113 19.3883 25.6043 19.2195 25.5973C19.0016 25.5973 18.8047 25.6324 18.6289 25.7027C18.4531 25.766 18.2668 25.8785 18.0699 26.0402C17.6691 26.3355 17.2227 26.6449 16.7305 26.9684C16.2453 27.2918 15.7742 27.5836 15.3172 27.8438C14.8672 28.1109 14.4945 28.3043 14.1992 28.4238Z" fill="url(#paint0_linear_1721_23172)"/>
</g>
<defs>
<filter id="filter0_d_1721_23172" x="0.0540525" y="0.0270264" width="43.7838" height="43.7838" filterUnits="userSpaceOnUse" color-interpolation-filters="sRGB">
<feFlood flood-opacity="0" result="BackgroundImageFix"/>
<feColorMatrix in="SourceAlpha" type="matrix" values="0 0 0 0 0 0 0 0 0 0 0 0 0 0 0 0 0 0 127 0" result="hardAlpha"/>
<feOffset dx="1.94595" dy="2.91892"/>
<feGaussianBlur stdDeviation="1.94595"/>
<feComposite in2="hardAlpha" operator="out"/>
<feColorMatrix type="matrix" values="0 0 0 0 0.516667 0 0 0 0 0.516667 0 0 0 0 0.516667 0 0 0 0.2 0"/>
<feBlend mode="normal" in2="BackgroundImageFix" result="effect1_dropShadow_1721_23172"/>
<feBlend mode="normal" in="SourceGraphic" in2="effect1_dropShadow_1721_23172" result="shape"/>
</filter>
<linearGradient id="paint0_linear_1721_23172" x1="20" y1="6" x2="20" y2="32" gradientUnits="userSpaceOnUse">
<stop stop-color="#2ABEBE"/>
<stop offset="1" stop-color="#08A5F1"/>
</linearGradient>
</defs>
</svg>
