<svg width="44" height="44" viewBox="0 0 44 44" fill="none" xmlns="http://www.w3.org/2000/svg">
<g filter="url(#filter0_d_1721_23177)">
<rect x="2" y="1" width="36" height="36" rx="18" fill="white" shape-rendering="crispEdges"/>
<path d="M19.7891 30.4699H20.1687C20.9 30.4699 21.4203 30.3328 21.7297 30.0586C22.0461 29.7914 22.2043 29.2852 22.2043 28.5398V22.1801L21.002 22.8762L26.4758 26.0297C26.7008 26.1562 26.9117 26.2582 27.1086 26.3355C27.3055 26.4059 27.4918 26.441 27.6676 26.441C27.9559 26.441 28.2125 26.3461 28.4375 26.1562C28.6695 25.9664 28.9016 25.6852 29.1336 25.3125L29.334 24.9961C29.6363 24.5039 29.7875 24.082 29.7875 23.7305C29.7875 23.4211 29.6856 23.1539 29.4816 22.9289C29.2848 22.6969 29 22.4754 28.6274 22.2644L22.9637 19.0266V20.4293L28.6274 17.3074C28.993 17.1035 29.2707 16.8891 29.4606 16.6641C29.6574 16.432 29.7559 16.1683 29.7559 15.873C29.7559 15.6902 29.7172 15.4969 29.6399 15.293C29.5625 15.0891 29.4606 14.8676 29.334 14.6285L29.1336 14.2805C28.9016 13.9008 28.6695 13.6125 28.4375 13.4156C28.2055 13.2187 27.9453 13.1203 27.657 13.1203C27.4883 13.1203 27.302 13.159 27.0981 13.2363C26.8941 13.3066 26.6797 13.4086 26.4547 13.5422L21.023 16.7062L22.2043 17.3812V11.0531C22.2043 10.3148 22.0461 9.80858 21.7297 9.53436C21.4203 9.26014 20.9 9.12303 20.1687 9.12303H19.7891C19.0578 9.12303 18.534 9.26014 18.2176 9.53436C17.9082 9.80858 17.7535 10.3183 17.7535 11.0637V17.3707L18.9875 16.7168L13.5137 13.5422C13.2816 13.4086 13.0601 13.3031 12.8492 13.2258C12.6383 13.1414 12.4379 13.0992 12.248 13.0992C11.9598 13.0992 11.6961 13.1976 11.457 13.3945C11.218 13.5914 11 13.8902 10.8031 14.291L10.6238 14.618C10.5043 14.857 10.4094 15.082 10.3391 15.293C10.2687 15.4969 10.2336 15.6867 10.2336 15.8625C10.2336 16.1648 10.3285 16.432 10.5184 16.6641C10.7082 16.8891 10.9859 17.107 11.3516 17.318L16.9941 20.4187V19.0266L11.341 22.2644C10.9754 22.4754 10.6941 22.6934 10.4973 22.9184C10.3004 23.1363 10.2019 23.3965 10.2019 23.6988C10.2019 23.8746 10.2406 24.0715 10.318 24.2895C10.4023 24.5004 10.5113 24.7254 10.6449 24.9645L10.8348 25.2914C11.0598 25.6711 11.2848 25.9594 11.5098 26.1562C11.7418 26.3531 12.0055 26.4516 12.3008 26.4516C12.4766 26.4516 12.6629 26.4129 12.8598 26.3355C13.0566 26.2582 13.2711 26.1562 13.5031 26.0297L18.9664 22.8656L17.7535 22.1906V28.5398C17.7535 29.2852 17.9082 29.7914 18.2176 30.0586C18.534 30.3328 19.0578 30.4699 19.7891 30.4699Z" fill="url(#paint0_linear_1721_23177)"/>
</g>
<defs>
<filter id="filter0_d_1721_23177" x="0.0540525" y="0.0270264" width="43.7838" height="43.7838" filterUnits="userSpaceOnUse" color-interpolation-filters="sRGB">
<feFlood flood-opacity="0" result="BackgroundImageFix"/>
<feColorMatrix in="SourceAlpha" type="matrix" values="0 0 0 0 0 0 0 0 0 0 0 0 0 0 0 0 0 0 127 0" result="hardAlpha"/>
<feOffset dx="1.94595" dy="2.91892"/>
<feGaussianBlur stdDeviation="1.94595"/>
<feComposite in2="hardAlpha" operator="out"/>
<feColorMatrix type="matrix" values="0 0 0 0 0.516667 0 0 0 0 0.516667 0 0 0 0 0.516667 0 0 0 0.2 0"/>
<feBlend mode="normal" in2="BackgroundImageFix" result="effect1_dropShadow_1721_23177"/>
<feBlend mode="normal" in="SourceGraphic" in2="effect1_dropShadow_1721_23177" result="shape"/>
</filter>
<linearGradient id="paint0_linear_1721_23177" x1="20" y1="6" x2="20" y2="32" gradientUnits="userSpaceOnUse">
<stop stop-color="#2ABEBE"/>
<stop offset="1" stop-color="#08A5F1"/>
</linearGradient>
</defs>
</svg>
