<svg width="82" height="81" viewBox="0 0 82 81" fill="none" xmlns="http://www.w3.org/2000/svg">
<g filter="url(#filter0_d_1770_23773)">
<rect x="4" y="2" width="66.3204" height="66.3204" rx="33.1602" fill="white" shape-rendering="crispEdges"/>
<path d="M25.9621 33.9882H31.9216C34.7091 33.9882 36.0387 32.6746 36.0387 29.839V23.9596C36.0387 21.124 34.7091 19.7944 31.9216 19.7944H25.9621C23.1746 19.7944 21.8449 21.124 21.8449 23.9596V29.839C21.8449 32.6746 23.1746 33.9882 25.9621 33.9882ZM42.3987 33.9882H48.3582C51.1457 33.9882 52.4754 32.6746 52.4754 29.839V23.9596C52.4754 21.124 51.1457 19.7944 48.3582 19.7944H42.3987C39.6112 19.7944 38.2816 21.124 38.2816 23.9596V29.839C38.2816 32.6746 39.6112 33.9882 42.3987 33.9882ZM25.7538 30.9764C25.129 30.9764 24.8567 30.6881 24.8567 30.0633V23.7193C24.8567 23.0945 25.129 22.8062 25.7538 22.8062H32.1298C32.7386 22.8062 33.027 23.0945 33.027 23.7193V30.0633C33.027 30.6881 32.7386 30.9764 32.1298 30.9764H25.7538ZM42.1905 30.9764C41.5657 30.9764 41.2934 30.6881 41.2934 30.0633V23.7193C41.2934 23.0945 41.5657 22.8062 42.1905 22.8062H48.5665C49.1913 22.8062 49.4636 23.0945 49.4636 23.7193V30.0633C49.4636 30.6881 49.1913 30.9764 48.5665 30.9764H42.1905ZM27.4039 28.7817H30.4637C30.7201 28.7817 30.8322 28.6855 30.8322 28.3651V25.4014C30.8322 25.1131 30.7201 25.0009 30.4637 25.0009H27.4039C27.1315 25.0009 27.0514 25.1131 27.0514 25.4014V28.3651C27.0514 28.6855 27.1315 28.7817 27.4039 28.7817ZM43.8886 28.7817H46.9485C47.2208 28.7817 47.333 28.6855 47.333 28.3651V25.4014C47.333 25.1131 47.2208 25.0009 46.9485 25.0009H43.8886C43.6323 25.0009 43.5362 25.1131 43.5362 25.4014V28.3651C43.5362 28.6855 43.6323 28.7817 43.8886 28.7817ZM25.9621 50.4249H31.9216C34.7091 50.4249 36.0387 49.1112 36.0387 46.2757V40.3963C36.0387 37.5607 34.7091 36.231 31.9216 36.231H25.9621C23.1746 36.231 21.8449 37.5607 21.8449 40.3963V46.2757C21.8449 49.1112 23.1746 50.4249 25.9621 50.4249ZM39.4671 40.7327H42.5269C42.7992 40.7327 42.9114 40.6366 42.9114 40.3162V37.3524C42.9114 37.0641 42.7992 36.9519 42.5269 36.9519H39.4671C39.2107 36.9519 39.1146 37.0641 39.1146 37.3524V40.3162C39.1146 40.6366 39.2107 40.7327 39.4671 40.7327ZM48.166 40.7327H51.2258C51.4982 40.7327 51.5943 40.6366 51.5943 40.3162V37.3524C51.5943 37.0641 51.4982 36.9519 51.2258 36.9519H48.166C47.9097 36.9519 47.8136 37.0641 47.8136 37.3524V40.3162C47.8136 40.6366 47.9097 40.7327 48.166 40.7327ZM25.7538 47.4131C25.129 47.4131 24.8567 47.1247 24.8567 46.516V40.172C24.8567 39.5312 25.129 39.2428 25.7538 39.2428H32.1298C32.7386 39.2428 33.027 39.5312 33.027 40.172V46.516C33.027 47.1247 32.7386 47.4131 32.1298 47.4131H25.7538ZM43.8566 45.0902H46.9164C47.1888 45.0902 47.3009 44.978 47.3009 44.6737V41.6939C47.3009 41.4055 47.1888 41.2934 46.9164 41.2934H43.8566C43.6003 41.2934 43.5041 41.4055 43.5041 41.6939V44.6737C43.5041 44.978 43.6003 45.0902 43.8566 45.0902ZM27.4039 45.2183H30.4637C30.7201 45.2183 30.8322 45.1222 30.8322 44.8018V41.8381C30.8322 41.5497 30.7201 41.4376 30.4637 41.4376H27.4039C27.1315 41.4376 27.0514 41.5497 27.0514 41.8381V44.8018C27.0514 45.1222 27.1315 45.2183 27.4039 45.2183ZM39.4671 49.4316H42.5269C42.7992 49.4316 42.9114 49.3195 42.9114 49.0151V46.0514C42.9114 45.747 42.7992 45.6509 42.5269 45.6509H39.4671C39.2107 45.6509 39.1146 45.747 39.1146 46.0514V49.0151C39.1146 49.3195 39.2107 49.4316 39.4671 49.4316ZM48.166 49.4316H51.2258C51.4982 49.4316 51.5943 49.3195 51.5943 49.0151V46.0514C51.5943 45.747 51.4982 45.6509 51.2258 45.6509H48.166C47.9097 45.6509 47.8136 45.747 47.8136 46.0514V49.0151C47.8136 49.3195 47.9097 49.4316 48.166 49.4316Z" fill="url(#paint0_linear_1770_23773)"/>
</g>
<defs>
<filter id="filter0_d_1770_23773" x="0.415115" y="0.207558" width="80.6599" height="80.6599" filterUnits="userSpaceOnUse" color-interpolation-filters="sRGB">
<feFlood flood-opacity="0" result="BackgroundImageFix"/>
<feColorMatrix in="SourceAlpha" type="matrix" values="0 0 0 0 0 0 0 0 0 0 0 0 0 0 0 0 0 0 127 0" result="hardAlpha"/>
<feOffset dx="3.58488" dy="5.37733"/>
<feGaussianBlur stdDeviation="3.58488"/>
<feComposite in2="hardAlpha" operator="out"/>
<feColorMatrix type="matrix" values="0 0 0 0 0.516667 0 0 0 0 0.516667 0 0 0 0 0.516667 0 0 0 0.2 0"/>
<feBlend mode="normal" in2="BackgroundImageFix" result="effect1_dropShadow_1770_23773"/>
<feBlend mode="normal" in="SourceGraphic" in2="effect1_dropShadow_1770_23773" result="shape"/>
</filter>
<linearGradient id="paint0_linear_1770_23773" x1="37.1602" y1="15.6602" x2="37.1602" y2="54.6602" gradientUnits="userSpaceOnUse">
<stop stop-color="#2ABEBE"/>
<stop offset="1" stop-color="#08A5F1"/>
</linearGradient>
</defs>
</svg>
