<svg width="85" height="71" viewBox="0 0 85 71" fill="none" xmlns="http://www.w3.org/2000/svg">
<path d="M15.2812 46.6887C15.3582 46.5887 15.4377 46.486 15.5147 46.3809C15.4377 46.4835 15.3582 46.5861 15.2812 46.6887Z" fill="url(#paint0_linear_1770_23645)"/>
<path d="M12.8334 9.1121C14.5856 7.7293 16.5713 6.5697 18.7622 5.64355C16.5713 6.56713 14.5856 7.7293 12.8334 9.1121C10.5219 10.9362 8.68242 13.0835 7.36632 15.4976C7.01229 16.1492 6.70699 16.8163 6.44531 17.4987C6.70699 16.8163 7.01229 16.1492 7.36632 15.4976C8.68242 13.0835 10.5219 10.9336 12.8334 9.1121V9.1121Z" fill="url(#paint1_linear_1770_23645)"/>
<path d="M17.5505 41.804C17.4684 41.5424 17.3093 41.2166 17.0117 40.9087C17.3093 41.2166 17.4658 41.5424 17.5505 41.804C17.6634 42.1581 17.7275 42.6814 17.5094 43.3074C17.7275 42.684 17.6634 42.1581 17.5505 41.804Z" fill="url(#paint2_linear_1770_23645)"/>
<path d="M16.2422 45.3952C16.5808 44.918 16.8938 44.4383 17.2017 43.9277C16.8938 44.4383 16.5783 44.918 16.2422 45.3952Z" fill="url(#paint3_linear_1770_23645)"/>
<path d="M10.7227 36.2236C11.0305 36.5392 11.3435 36.8496 11.6719 37.1472C11.3435 36.8496 11.0305 36.5392 10.7227 36.2236Z" fill="url(#paint4_linear_1770_23645)"/>
<path d="M13.8164 48.4814C13.919 48.3634 14.0268 48.2376 14.1345 48.1094C14.0242 48.2376 13.919 48.3634 13.8164 48.4814Z" fill="url(#paint5_linear_1770_23645)"/>
<path d="M37.8242 39.115C38.2424 37.7322 38.8376 36.4135 39.6124 35.1693C40.1126 34.3663 40.677 33.6043 41.2953 32.8809C40.677 33.6043 40.1126 34.3688 39.6124 35.1693C38.8376 36.4135 38.2398 37.7322 37.8242 39.115Z" fill="url(#paint6_linear_1770_23645)"/>
<path d="M19.0519 46.9292C18.9313 46.9779 18.8133 47.0241 18.6953 47.0703C18.8133 47.0241 18.9339 46.9779 19.0519 46.9292Z" fill="url(#paint7_linear_1770_23645)"/>
<path d="M56.0211 25.2109C55.7081 25.2546 55.4003 25.3033 55.0898 25.3572C55.3977 25.3059 55.7081 25.2571 56.0211 25.2109Z" fill="url(#paint8_linear_1770_23645)"/>
<path d="M54.9531 17.6602C55.0352 17.868 55.1122 18.0809 55.184 18.2913C55.1096 18.0809 55.0352 17.868 54.9531 17.6602Z" fill="url(#paint9_linear_1770_23645)"/>
<path d="M54.3386 16.2794C54.5669 16.7335 54.7722 17.1927 54.9569 17.6596C54.7722 17.1927 54.5669 16.7309 54.3386 16.2794C53.1046 13.8216 51.337 11.6128 49.087 9.71429C47.4759 8.35458 45.6467 7.18728 43.6328 6.22266C45.6467 7.18728 47.4785 8.35458 49.087 9.71429C51.337 11.6128 53.1046 13.8216 54.3386 16.2794V16.2794Z" fill="url(#paint10_linear_1770_23645)"/>
<path d="M12.8349 38.1276C12.486 37.8531 12.1448 37.5683 11.8164 37.2759C12.1448 37.5683 12.486 37.8531 12.8349 38.1276Z" fill="url(#paint11_linear_1770_23645)"/>
<path d="M45.1957 29.3583C44.4697 29.8663 43.7898 30.4102 43.1484 30.9874C43.7898 30.4128 44.4697 29.8663 45.1957 29.3583C47.4739 27.7703 50.0984 26.5722 52.9974 25.8C53.3437 25.7076 53.6952 25.6281 54.0492 25.5537C53.6952 25.6281 53.3437 25.7076 52.9974 25.8C50.0984 26.5722 47.4739 27.7703 45.1957 29.3583Z" fill="url(#paint12_linear_1770_23645)"/>
<path d="M36.6858 43.4043C36.4754 43.4428 36.2651 43.4813 36.0547 43.5172C36.2651 43.4813 36.4754 43.4453 36.6858 43.4043Z" fill="url(#paint13_linear_1770_23645)"/>
<path d="M30.0366 43.9585C29.7801 43.9534 29.5261 43.9457 29.2695 43.9328C29.5261 43.9457 29.7801 43.9534 30.0366 43.9585C31.3348 43.979 32.6021 43.9251 33.8412 43.8071C32.6021 43.9251 31.3348 43.979 30.0366 43.9585Z" fill="url(#paint14_linear_1770_23645)"/>
<path d="M37.4492 40.6156C37.5005 40.3616 37.557 40.1102 37.6211 39.8613C37.5595 40.1102 37.5005 40.3642 37.4492 40.6156Z" fill="url(#paint15_linear_1770_23645)"/>
<path d="M37.1367 43.3207C37.1418 43.1744 37.1418 43.0282 37.147 42.8794C37.1418 43.0256 37.1418 43.1719 37.1367 43.3207Z" fill="url(#paint16_linear_1770_23645)"/>
<path d="M26.9102 43.7173L27.0051 43.725C27.2257 43.7558 27.4489 43.784 27.6747 43.8096C27.4489 43.784 27.2257 43.7583 27.0051 43.725L26.9102 43.7173Z" fill="url(#paint17_linear_1770_23645)"/>
<path d="M76.1437 34.2865C74.412 32.6446 72.3211 31.2823 69.9224 30.2433C67.5159 29.1991 64.8504 28.5603 61.995 28.3448C60.9483 28.2653 59.9272 28.2679 58.919 28.3089C57.6978 28.3576 56.5074 28.4885 55.3555 28.7091C54.8527 28.8066 54.3524 28.9041 53.8649 29.0349C51.3431 29.7045 49.0752 30.7384 47.1177 32.1033C45.1884 33.4476 43.6209 35.0767 42.4562 36.9418C41.4172 38.6068 40.7989 40.4514 40.5706 42.4191C40.5475 42.6064 40.509 42.7911 40.4962 42.9809C40.4218 43.9687 40.4679 44.9436 40.609 45.9005C40.7142 46.6214 40.8682 47.3346 41.0939 48.0298C41.6275 49.6769 42.4562 51.2367 43.5568 52.6631C44.6677 54.1101 46.0505 55.4185 47.6641 56.5524C49.2907 57.6966 51.1506 58.6407 53.1851 59.3565C55.2298 60.0774 57.4695 60.5315 59.8451 60.7111C60.253 60.7418 60.6635 60.7598 61.0714 60.7649C61.487 60.7752 61.8847 60.7649 62.2823 60.7444L62.3824 60.7393L62.485 60.747C62.7185 60.7649 62.9545 60.806 63.1982 60.8701C63.5291 60.9599 63.8498 61.1138 64.1859 61.3396C65.0248 61.9092 65.8997 62.4556 66.7848 62.9636C67.675 63.4741 68.5498 63.941 69.3887 64.3438C70.2097 64.7389 70.9665 65.0596 71.6412 65.293C71.7233 65.3213 71.8054 65.3495 71.8824 65.3751C71.8311 65.2982 71.7772 65.2186 71.7233 65.1365C71.3975 64.6517 71.0743 64.136 70.7536 63.5921C70.4226 63.0354 70.1302 62.4864 69.8762 61.9528C69.5196 61.0933 69.6504 60.4673 69.8172 60.08C69.9711 59.708 70.3277 59.1795 71.1025 58.8639C72.9779 58.0789 74.6736 57.0193 76.1231 55.7212C77.5624 54.4333 78.7246 52.9428 79.5814 51.2906C80.4255 49.6589 80.9258 47.8913 81.0643 46.0365C81.2285 43.8532 80.8821 41.7444 80.0304 39.7715C79.1607 37.7576 77.8549 35.913 76.1488 34.2891L76.1437 34.2865ZM69.3554 43.3453C69.2656 44.5433 68.8346 45.7029 68.0598 46.8241C67.2876 47.9452 66.2537 49.0227 64.9633 50.0514C63.6728 51.0802 62.2028 52.0551 60.5532 52.9761C60.4839 53.012 60.4121 53.0428 60.3377 53.0633C60.2607 53.0839 60.1914 53.0916 60.1247 53.0864C60.0657 53.0813 59.999 53.0633 59.9221 53.03C59.8477 52.9966 59.781 52.9581 59.7245 52.912C58.2314 51.7549 56.923 50.5722 55.8019 49.3613C54.6808 48.1504 53.8213 46.9318 53.2236 45.7055C52.6284 44.4792 52.3744 43.2683 52.4642 42.0702C52.5181 41.3416 52.6874 40.6823 52.967 40.0922C53.2467 39.5021 53.6161 39.0019 54.0727 38.5888C54.5294 38.1758 55.0528 37.8705 55.6403 37.6704C56.2278 37.4703 56.8563 37.3959 57.5259 37.4446C58.3084 37.5036 59.0267 37.7704 59.6783 38.2451C60.33 38.7197 60.8046 39.3277 61.1022 40.064C61.5127 39.379 62.0745 38.8505 62.7903 38.4785C63.5061 38.1065 64.2577 37.95 65.0402 38.009C65.7098 38.0603 66.3204 38.2271 66.872 38.5144C67.4236 38.7992 67.893 39.1815 68.283 39.6586C68.673 40.1358 68.9629 40.6874 69.1501 41.3108C69.3374 41.9368 69.4041 42.6141 69.3502 43.3427L69.3554 43.3453Z" fill="url(#paint18_linear_1770_23645)"/>
<path d="M21.4537 45.9009C21.0586 46.0805 20.6686 46.2524 20.2812 46.4191C20.6686 46.2524 21.0586 46.0805 21.4537 45.9009V45.9009Z" fill="url(#paint19_linear_1770_23645)"/>
<path d="M14.9219 48.2865C15.0065 48.266 15.0912 48.248 15.1784 48.2275C15.612 48.1197 16.0738 47.9889 16.5587 47.835C16.0738 47.9889 15.612 48.1197 15.1784 48.2275C15.0912 48.2506 15.0065 48.2685 14.9219 48.2865Z" fill="url(#paint20_linear_1770_23645)"/>
<path d="M37.8235 39.115C38.2417 37.7322 38.8369 36.4135 39.6117 35.1693C40.1119 34.3663 40.6764 33.6043 41.2946 32.8809C41.8642 32.2138 42.485 31.5827 43.1495 30.985C43.7909 30.4103 44.4707 29.8638 45.1968 29.3559C47.4749 27.7678 50.0994 26.5698 52.9984 25.7975C53.3448 25.7052 53.6962 25.6257 54.0503 25.5513C54.394 25.4794 54.7378 25.4127 55.0867 25.3537C55.3946 25.3024 55.705 25.2537 56.018 25.2075C56.0488 24.8278 56.0847 24.4481 56.0924 24.0633C56.1258 22.0596 55.8179 20.1252 55.1816 18.2884C55.1072 18.078 55.0328 17.865 54.9508 17.6572C54.766 17.1903 54.5608 16.7285 54.3325 16.277C53.0959 13.8193 51.3308 11.6104 49.0809 9.71191C47.4698 8.3522 45.6406 7.1849 43.6267 6.22028C43.1546 5.99452 42.6774 5.77388 42.1849 5.57121C41.8154 5.41728 41.4383 5.27105 41.056 5.12994C39.9093 4.7092 38.7189 4.3603 37.49 4.08835C36.6716 3.9062 35.8353 3.75741 34.9861 3.64196C33.7085 3.46751 32.3975 3.37002 31.0558 3.34693C31.0481 3.34693 31.0429 3.34693 31.0352 3.34693C30.848 3.34436 30.6607 3.3418 30.476 3.3418C29.2214 3.3418 27.99 3.41107 26.7868 3.54704C25.9838 3.63939 25.1936 3.75997 24.4163 3.91134C23.2515 4.13966 22.115 4.4347 21.0144 4.79643C20.2396 5.05041 19.488 5.33262 18.7568 5.64048C16.5659 6.56405 14.5802 7.72622 12.8279 9.10902C10.5164 10.9331 8.67697 13.0804 7.36087 15.4945C7.00684 16.1462 6.70154 16.8132 6.43986 17.4956C6.3629 17.6957 6.29106 17.8958 6.2218 18.0959C6.14996 18.3089 6.08069 18.5218 6.01656 18.7373C5.59325 20.1766 5.36749 21.6748 5.34183 23.2218C5.33414 23.6733 5.34953 24.1197 5.37518 24.5661C5.48806 26.4287 5.89085 28.2425 6.59379 29.969C7.03249 31.0491 7.57381 32.0907 8.21005 33.081C8.84629 34.0713 9.57746 35.0128 10.3984 35.8979C10.501 36.0082 10.6114 36.116 10.7165 36.2263C11.0244 36.5418 11.3374 36.8522 11.6658 37.1498C11.7145 37.1935 11.7633 37.2345 11.8094 37.2781C12.1378 37.5706 12.479 37.8554 12.8279 38.1299C13.8977 38.9739 15.0599 39.7359 16.3067 40.3978C16.5992 40.5491 16.8275 40.7261 17.0046 40.9109C17.3022 41.2187 17.4587 41.5445 17.5433 41.8062C17.6562 42.1603 17.7203 42.6836 17.5023 43.3096C17.4587 43.4353 17.4073 43.5636 17.3381 43.6944C17.2919 43.7739 17.2431 43.8509 17.1944 43.9304C16.8865 44.441 16.571 44.9207 16.2349 45.3979C16.1733 45.4826 16.1143 45.5698 16.0528 45.657C15.8732 45.9059 15.691 46.147 15.5114 46.3856C15.4345 46.4882 15.3549 46.5909 15.278 46.6935C15.0881 46.9398 14.8983 47.1835 14.7084 47.4169C14.5083 47.6658 14.3159 47.8941 14.1338 48.1122C14.0235 48.2405 13.9183 48.3662 13.8157 48.4842C14.1415 48.4508 14.5135 48.3841 14.9214 48.2918C15.006 48.2713 15.0907 48.2533 15.1779 48.2328C15.6115 48.125 16.0733 47.9942 16.5582 47.8402C17.043 47.6863 17.551 47.5093 18.0795 47.3143C18.2822 47.2399 18.4874 47.1578 18.6927 47.0783C18.8107 47.0321 18.9312 46.9859 19.0493 46.9372C19.452 46.7756 19.8625 46.6037 20.2756 46.4267C20.6629 46.2599 21.0529 46.088 21.448 45.9084C22.5973 45.3799 23.739 44.8053 24.837 44.1998C25.2398 43.9792 25.6092 43.8406 25.971 43.7791C26.1095 43.756 26.2506 43.7406 26.3866 43.7303C26.5251 43.7201 26.6585 43.7149 26.7868 43.7149L26.9048 43.7252L26.9997 43.7329C27.2203 43.7637 27.4435 43.7919 27.6693 43.8176C27.9438 43.8483 28.2209 43.8766 28.5005 43.8971C28.7545 43.9176 29.0111 43.933 29.265 43.9433C29.5216 43.9561 29.7756 43.9638 30.0321 43.9689C31.3303 43.9894 32.5976 43.9356 33.8368 43.8176C34.5859 43.7457 35.3222 43.6482 36.0482 43.5277C36.2586 43.4917 36.4689 43.4558 36.6793 43.4148C36.8307 43.3866 36.9846 43.3609 37.1334 43.3301C37.1385 43.1839 37.1385 43.0376 37.1437 42.8888C37.1437 42.8401 37.1437 42.7888 37.1488 42.7401C37.2027 42.0217 37.3002 41.3188 37.4413 40.6261C37.4926 40.3721 37.549 40.1207 37.6132 39.8718C37.6773 39.6204 37.744 39.3716 37.8184 39.1253L37.8235 39.115ZM34.0163 33.4684C34.0009 34.4304 33.2082 35.1975 32.2461 35.1795L28.811 35.1231C27.8489 35.1077 27.0818 34.315 27.0998 33.3529L27.1973 27.4831L21.3274 27.3856C20.3654 27.3702 19.5983 26.5775 19.6162 25.6154L19.6727 22.1802C19.6881 21.2181 20.4808 20.4511 21.4429 20.469L27.3127 20.5665L27.4102 14.6967C27.4256 13.7346 28.2183 12.9675 29.1804 12.9855L32.6156 13.0419C33.5776 13.0573 34.3447 13.8501 34.3268 14.8121L34.2293 20.682L40.0991 20.7794C41.0612 20.7948 41.8283 21.5876 41.8103 22.5496L41.7539 25.9848C41.7385 26.9469 40.9457 27.714 39.9837 27.696L34.1138 27.5985L34.0163 33.4684Z" fill="url(#paint21_linear_1770_23645)"/>
<g filter="url(#filter0_d_1770_23645)">
<path d="M41.755 25.9844L41.8115 22.5492C41.8269 21.5872 41.0598 20.7944 40.1003 20.7791L34.2305 20.6816L34.3279 14.8117C34.3433 13.8497 33.5763 13.0569 32.6168 13.0415L29.1816 12.9851C28.2195 12.9697 27.4268 13.7368 27.4114 14.6963L27.3139 20.5661L21.444 20.4686C20.482 20.4532 19.6892 21.2203 19.6739 22.1798L19.6174 25.615C19.602 26.5771 20.3691 27.3698 21.3286 27.3852L27.1984 27.4827L27.101 33.3525C27.0856 34.3146 27.8526 35.1073 28.8121 35.1227L32.2473 35.1792C33.2094 35.1946 34.0021 34.4275 34.0175 33.468L34.115 27.5981L39.9849 27.6956C40.9469 27.711 41.7397 26.9439 41.755 25.9844V25.9844Z" fill="white"/>
</g>
<g filter="url(#filter1_d_1770_23645)">
<path d="M78.4494 31.8626C76.4355 29.9488 74.0137 28.371 71.2558 27.1755C68.5081 25.98 65.4757 25.2514 62.2458 25.0076C61.2786 24.9332 60.3294 24.9204 59.3878 24.9384C59.4032 24.6664 59.4366 24.3971 59.4391 24.1226C59.493 20.8285 58.7824 17.6832 57.3226 14.7765C55.8834 11.9108 53.8361 9.34789 51.2398 7.15439C48.6666 4.98142 45.6291 3.24458 42.2093 1.99006C38.7997 0.738099 35.067 0.0685058 31.1161 0.00436849C27.1704 -0.0546378 23.435 0.484115 19.9742 1.62063C16.5056 2.76227 13.4039 4.39649 10.7641 6.4848C8.09338 8.59107 5.96402 11.0847 4.42986 13.8991C2.87517 16.7545 2.05934 19.8715 2.0029 23.1682C1.95672 25.9569 2.46212 28.6712 3.50371 31.2315C4.53761 33.7714 6.03585 36.1085 7.95741 38.1763C9.65833 40.0055 11.6543 41.5884 13.9068 42.8866C13.7298 43.1534 13.545 43.4202 13.3501 43.6921C12.937 44.2617 12.5265 44.8004 12.1135 45.3058C11.7056 45.8112 11.3413 46.2422 10.995 46.6245C9.87383 47.9252 9.90975 49.1027 10.1381 49.8596C10.3151 50.4471 10.9642 51.8196 13.1859 51.8581C13.2244 51.8581 13.2628 51.8581 13.3013 51.8581C14.0735 51.8581 14.9535 51.7324 15.99 51.4758C16.9828 51.2295 18.086 50.8806 19.2584 50.4419C20.4129 50.0109 21.6238 49.5055 22.8527 48.9411C24.0764 48.3793 25.2899 47.7687 26.5521 47.0683C26.5906 47.0606 26.6316 47.0555 26.6701 47.0529C27.1883 47.1248 27.7168 47.1812 28.253 47.2222C28.8302 47.2659 29.4075 47.2941 29.9847 47.3043C32.5271 47.3403 35.0003 47.1324 37.3528 46.6912C37.3066 46.4141 37.2887 46.1319 37.2579 45.8523C37.2887 46.1319 37.3066 46.4141 37.3528 46.6912C37.4862 47.4916 37.6581 48.2844 37.9095 49.0591C38.5637 51.0705 39.5694 52.9689 40.9009 54.7006C42.2196 56.417 43.8461 57.9588 45.7368 59.2877C47.6148 60.609 49.7467 61.6942 52.071 62.5126C54.3928 63.3284 56.9224 63.8466 59.5905 64.0467C60.0651 64.0826 60.5449 64.1032 61.022 64.1109C61.1708 64.1109 61.3171 64.1109 61.4607 64.1109C61.7814 64.1109 62.1149 64.116 62.3099 64.1083C63.2155 64.724 64.1622 65.3141 65.1191 65.8631C66.0761 66.4147 67.0253 66.9175 67.9386 67.3562C68.875 67.8077 69.7524 68.1746 70.5451 68.4517C71.4354 68.7595 72.1922 68.9366 72.8669 68.9853C72.9824 68.9956 73.0952 68.9981 73.2056 68.9981C74.9552 68.9981 75.5966 67.8975 75.7993 67.3973C76.0173 66.8483 76.2457 65.7323 75.2887 64.3905C75.0578 64.0801 74.7962 63.7081 74.5037 63.272C74.2112 62.8358 73.9213 62.374 73.634 61.8866C73.5545 61.7532 73.4775 61.6223 73.4057 61.4941C75.2323 60.6192 76.8922 59.5186 78.3545 58.2102C80.0965 56.6504 81.5075 54.8392 82.5517 52.8253C83.6061 50.7908 84.2269 48.5871 84.4014 46.2807C84.6066 43.5536 84.1705 40.9163 83.1032 38.4406C82.0565 36.0085 80.4916 33.7945 78.452 31.8575L78.4494 31.8626ZM37.1553 42.7301C37.1527 42.7788 37.1527 42.8301 37.1501 42.8789C37.145 43.0251 37.145 43.1713 37.1399 43.3201C36.9885 43.3509 36.8371 43.3766 36.6858 43.4048C36.4754 43.4433 36.265 43.4818 36.0547 43.5177C35.3286 43.6382 34.5923 43.7357 33.8432 43.8076C32.6041 43.9256 31.3367 43.9795 30.0386 43.9589C29.782 43.9538 29.5281 43.9461 29.2715 43.9333C29.015 43.9205 28.761 43.9051 28.507 43.8871C28.2274 43.8666 27.9503 43.8384 27.6758 43.8076C27.45 43.7819 27.2268 43.7563 27.0062 43.7229L26.9113 43.7152L26.7932 43.7049C26.665 43.7049 26.529 43.7101 26.393 43.7203C26.2571 43.7306 26.116 43.746 25.9774 43.7691C25.6157 43.8307 25.2463 43.9692 24.8435 44.1898C23.7454 44.7953 22.6038 45.37 21.4545 45.8984C21.0594 46.078 20.6694 46.2499 20.282 46.4167C19.869 46.5937 19.4585 46.7656 19.0557 46.9272C18.9351 46.976 18.8171 47.0221 18.6991 47.0683C18.4939 47.1478 18.2886 47.2299 18.086 47.3043C17.5575 47.5019 17.0495 47.6789 16.5646 47.8303C16.0798 47.9842 15.618 48.115 15.1844 48.2228C15.0972 48.2459 15.0125 48.2638 14.9278 48.2818C14.5174 48.3741 14.1479 48.4408 13.8221 48.4742C13.9247 48.3562 14.0325 48.2305 14.1402 48.1022C14.3224 47.8867 14.5148 47.6558 14.7149 47.407C14.9048 47.1735 15.0946 46.9298 15.2845 46.6835C15.3614 46.5834 15.4409 46.4808 15.5179 46.3756C15.6975 46.137 15.8796 45.8959 16.0592 45.647C16.1208 45.5598 16.1824 45.4751 16.2414 45.3879C16.58 44.9107 16.893 44.431 17.2009 43.9205C17.2471 43.8409 17.2958 43.7665 17.3445 43.6844C17.4138 43.551 17.4651 43.4253 17.5087 43.2996C17.7268 42.6762 17.6627 42.1503 17.5498 41.7962C17.4677 41.5345 17.3086 41.2087 17.011 40.9009C16.834 40.7162 16.6057 40.5391 16.3132 40.3878C15.0664 39.7259 13.9068 38.9639 12.8344 38.1199C12.4855 37.8454 12.1443 37.5606 11.8159 37.2681C11.7672 37.2245 11.7184 37.1835 11.6722 37.1399C11.3439 36.8423 11.0309 36.5318 10.723 36.2163C10.6178 36.106 10.5075 36.0008 10.4049 35.8879C9.58393 35.0028 8.85276 34.0613 8.21652 33.071C7.58028 32.0807 7.04153 31.0417 6.60026 29.959C5.89732 28.2299 5.49197 26.4187 5.38165 24.5561C5.356 24.1097 5.34061 23.6633 5.3483 23.2118C5.37396 21.6648 5.59972 20.1666 6.02303 18.7273C6.08716 18.5118 6.15643 18.2989 6.22827 18.086C6.29753 17.8833 6.36937 17.6832 6.44633 17.4856C6.70801 16.8032 7.01331 16.1362 7.36734 15.4845C8.68344 13.0704 10.5229 10.9205 12.8344 9.09904C14.5866 7.71624 16.5723 6.55663 18.7633 5.63049C19.4944 5.32263 20.2461 5.04043 21.0209 4.78644C22.1215 4.42471 23.2554 4.12968 24.4227 3.90135C25.2001 3.74999 25.9902 3.62941 26.7932 3.53705C27.9965 3.40108 29.2279 3.33181 30.4824 3.33181C30.6671 3.33181 30.8544 3.33181 31.0417 3.33694C31.0494 3.33694 31.0545 3.33694 31.0622 3.33694C32.404 3.36003 33.7149 3.45752 34.99 3.63197C35.8417 3.74742 36.6755 3.89622 37.4939 4.07837C38.7228 4.35031 39.9106 4.69922 41.0599 5.11996C41.4422 5.26106 41.8168 5.40729 42.1888 5.56122C42.6813 5.7639 43.1585 5.98453 43.6306 6.21029C45.6445 7.17492 47.4762 8.34222 49.0848 9.70193C51.3347 11.6004 53.1024 13.8093 54.3364 16.267C54.5647 16.7211 54.7699 17.1803 54.9547 17.6473C55.0367 17.8551 55.1137 18.068 55.1855 18.2784C55.8244 20.1153 56.1296 22.0496 56.0963 24.0533C56.0912 24.4381 56.0553 24.8178 56.0219 25.1975C55.7089 25.2411 55.401 25.2899 55.0906 25.3437C54.7417 25.4027 54.3954 25.4694 54.0542 25.5413C53.7001 25.6157 53.3487 25.6952 53.0023 25.7876C50.1033 26.5598 47.4788 27.7579 45.2007 29.3459C44.4746 29.8539 43.7948 30.3977 43.1534 30.975C42.4889 31.5727 41.8681 32.2039 41.2985 32.8709C40.6803 33.5943 40.1158 34.3589 39.6156 35.1593C38.8408 36.4036 38.243 37.7222 37.8274 39.105C37.753 39.3513 37.6838 39.6002 37.6222 39.8516C37.5606 40.1004 37.5016 40.3544 37.4503 40.6058C37.3118 41.296 37.2117 42.0015 37.1578 42.7198L37.1553 42.7301ZM81.0611 46.037C80.9226 47.8918 80.4223 49.6595 79.5782 51.2911C78.7214 52.9433 77.5592 54.4338 76.12 55.7217C74.6679 57.0198 72.9747 58.0794 71.0993 58.8644C70.3245 59.18 69.9705 59.7085 69.814 60.0805C69.6472 60.4679 69.5164 61.0964 69.873 61.9533C70.127 62.4869 70.4194 63.0359 70.7504 63.5926C71.0711 64.1365 71.3969 64.6522 71.7201 65.1371C71.774 65.2192 71.8279 65.2961 71.8792 65.3757C71.8022 65.35 71.7227 65.3243 71.638 65.2936C70.9633 65.0601 70.2039 64.7394 69.3855 64.3443C68.5466 63.939 67.6692 63.4746 66.7816 62.9641C65.8939 62.4561 65.0191 61.9097 64.1827 61.3401C63.8466 61.1118 63.526 60.9604 63.195 60.8707C62.9513 60.8065 62.7153 60.7655 62.4818 60.7475L62.3792 60.7398L62.2791 60.7449C61.8815 60.7655 61.4838 60.7732 61.0682 60.7655C60.6603 60.7603 60.2498 60.7424 59.8419 60.7116C57.4663 60.532 55.2266 60.0779 53.1819 59.357C51.1449 58.6412 49.2875 57.6971 47.661 56.5529C46.0473 55.419 44.6645 54.1106 43.5536 52.6636C42.453 51.2347 41.6244 49.6774 41.0907 48.0304C40.865 47.3351 40.711 46.6219 40.6059 45.901C40.1569 46.0344 39.7131 46.173 39.2564 46.2884C39.7156 46.173 40.1595 46.0344 40.6059 45.901C40.4648 44.9441 40.4211 43.9692 40.493 42.9815C40.5084 42.7916 40.5469 42.6069 40.5674 42.4196C40.7957 40.4545 41.414 38.6099 42.453 36.9423C43.6152 35.0772 45.1853 33.4481 47.1145 32.1038C49.072 30.739 51.3424 29.7051 53.8618 29.0355C54.3492 28.9046 54.852 28.8071 55.3523 28.7097C56.5042 28.4865 57.6946 28.3582 58.9158 28.3094C59.924 28.2684 60.9451 28.2684 61.9918 28.3454C64.8472 28.5609 67.5153 29.1997 69.9192 30.2438C72.3179 31.2854 74.4113 32.6451 76.1405 34.287C77.8491 35.911 79.1524 37.7556 80.0221 39.7695C80.8738 41.7423 81.2227 43.8512 81.056 46.0344L81.0611 46.037Z" fill="white"/>
</g>
<path d="M37.1377 43.3203C36.9863 43.3511 36.835 43.3768 36.6836 43.405C36.835 43.3768 36.9889 43.3511 37.1377 43.3203Z" fill="white"/>
<path d="M36.0552 43.5176C35.3292 43.6382 34.5929 43.7356 33.8438 43.8075C34.5929 43.7356 35.3292 43.6382 36.0552 43.5176Z" fill="white"/>
<path d="M24.8421 44.1929C23.7441 44.7983 22.6025 45.373 21.4531 45.9015C22.6025 45.373 23.7441 44.7983 24.8421 44.1929V44.1929Z" fill="white"/>
<path d="M13.8164 48.4815C14.1422 48.4481 14.5142 48.3814 14.9221 48.2891C14.5117 48.3814 14.1422 48.4481 13.8164 48.4815Z" fill="white"/>
<path d="M16.3108 40.3949C15.064 39.733 13.9044 38.971 12.832 38.127C13.9018 38.971 15.064 39.733 16.3108 40.3949Z" fill="white"/>
<path d="M11.8194 37.2752C11.7707 37.2316 11.722 37.1906 11.6758 37.147C11.7245 37.1906 11.7733 37.2316 11.8194 37.2752Z" fill="white"/>
<path d="M20.281 46.4189C19.8679 46.596 19.4575 46.7678 19.0547 46.9295C19.4575 46.7678 19.8679 46.596 20.281 46.4189Z" fill="white"/>
<path d="M16.5625 47.8357C17.0474 47.6818 17.5553 47.5047 18.0838 47.3098C18.2865 47.2354 18.4918 47.1533 18.697 47.0737C18.4918 47.1533 18.2865 47.2354 18.0838 47.3098C17.5553 47.5073 17.0474 47.6843 16.5625 47.8357Z" fill="white"/>
<path d="M15.2809 46.6885C15.0911 46.9348 14.9012 47.1785 14.7114 47.4119C14.5113 47.6608 14.3189 47.8891 14.1367 48.1072C14.3189 47.8917 14.5113 47.6608 14.7114 47.4119C14.9012 47.1785 15.0911 46.9348 15.2809 46.6885Z" fill="white"/>
<path d="M24.8438 44.1917C25.2465 43.971 25.616 43.8325 25.9777 43.7709C26.1162 43.7478 26.2573 43.7324 26.3933 43.7222C26.2573 43.7324 26.1162 43.7478 25.9777 43.7709C25.616 43.8325 25.2465 43.971 24.8438 44.1917Z" fill="white"/>
<path d="M16.243 45.395C16.1814 45.4797 16.1224 45.5669 16.0609 45.6541C15.8813 45.903 15.6991 46.1441 15.5195 46.3827C15.6991 46.1441 15.8813 45.903 16.0609 45.6541C16.1224 45.5669 16.184 45.4822 16.243 45.395Z" fill="white"/>
<path d="M27.6758 43.8071C27.9503 43.8379 28.2274 43.8661 28.507 43.8867C28.761 43.9072 29.0175 43.9226 29.2715 43.9328C29.015 43.92 28.761 43.9046 28.507 43.8867C28.2274 43.8661 27.9503 43.8379 27.6758 43.8071Z" fill="white"/>
<path d="M55.0951 25.356C54.7461 25.415 54.3998 25.4817 54.0586 25.5535C54.4024 25.4817 54.7461 25.415 55.0951 25.356Z" fill="white"/>
<path d="M37.1484 42.8785C37.1484 42.8297 37.1484 42.7784 37.1536 42.7297C37.2074 42.0113 37.3049 41.3084 37.446 40.6157C37.3075 41.3058 37.2074 42.0113 37.1536 42.7297C37.151 42.7784 37.151 42.8297 37.1484 42.8785Z" fill="white"/>
<path d="M17.511 43.3071C17.4674 43.4328 17.4161 43.5611 17.3468 43.692C17.3006 43.7715 17.2519 43.8484 17.2031 43.928C17.2519 43.8484 17.298 43.774 17.3468 43.692C17.4161 43.5585 17.4674 43.4328 17.511 43.3071Z" fill="white"/>
<path d="M26.3945 43.7224C26.5331 43.7122 26.6665 43.707 26.7947 43.707L26.9128 43.7173L26.7947 43.707C26.6665 43.707 26.5305 43.7122 26.3945 43.7224Z" fill="white"/>
<path d="M56.0983 24.0664C56.0931 24.4512 56.0572 24.8309 56.0239 25.2106C56.0546 24.8309 56.0906 24.4512 56.0983 24.0664C56.1316 22.0628 55.8237 20.1284 55.1875 18.2915C55.8263 20.1284 56.1316 22.0628 56.0983 24.0664Z" fill="white"/>
<path d="M8.21875 33.0815C8.85499 34.0718 9.58616 35.0134 10.4071 35.8985C10.5097 36.0088 10.62 36.1165 10.7252 36.2268C10.62 36.1165 10.5097 36.0113 10.4071 35.8985C9.58616 35.0134 8.85499 34.0718 8.21875 33.0815V33.0815Z" fill="white"/>
<path d="M41.2969 32.8803C41.8664 32.2132 42.4873 31.5821 43.1517 30.9844C42.4873 31.5821 41.8664 32.2132 41.2969 32.8803Z" fill="white"/>
<path d="M37.8263 39.1152C37.7519 39.3615 37.6827 39.6104 37.6211 39.8618C37.6852 39.6104 37.7519 39.3615 37.8263 39.1152Z" fill="white"/>
<g filter="url(#filter2_d_1770_23645)">
<path d="M68.2895 39.6616C67.8996 39.1844 67.4275 38.8047 66.8785 38.5174C66.3269 38.2326 65.7164 38.0633 65.0468 38.012C64.2643 37.953 63.5152 38.1095 62.7968 38.4815C62.0811 38.8535 61.5166 39.3819 61.1087 40.0669C60.8137 39.3281 60.3391 38.7226 59.6849 38.248C59.0333 37.7734 58.3149 37.504 57.5324 37.4476C56.8628 37.3963 56.2343 37.4732 55.6468 37.6733C55.0593 37.8734 54.5359 38.1813 54.0793 38.5918C53.6226 39.0048 53.2532 39.5051 52.9736 40.0951C52.6939 40.6852 52.5272 41.3445 52.4707 42.0731C52.3809 43.2712 52.6349 44.4821 53.2301 45.7084C53.8253 46.9348 54.6847 48.1534 55.8084 49.3643C56.9295 50.5752 58.2379 51.7604 59.7311 52.9149C59.7875 52.9611 59.8516 52.9996 59.9286 53.0329C60.003 53.0663 60.0697 53.0842 60.1313 53.0894C60.1954 53.0945 60.2673 53.0868 60.3442 53.0663C60.4212 53.0458 60.493 53.0175 60.5597 52.979C62.2093 52.0606 63.6794 51.0857 64.9698 50.0544C66.2602 49.0256 67.2916 47.9481 68.0663 46.827C68.8386 45.7059 69.2721 44.5437 69.3619 43.3482C69.4158 42.6196 69.3491 41.9423 69.1618 41.3163C68.9745 40.6903 68.6846 40.1388 68.2947 39.6641L68.2895 39.6616Z" fill="white"/>
</g>
<path d="M5.38672 24.5664C5.49703 26.429 5.90238 28.2428 6.60533 29.9693C7.04403 31.052 7.58535 32.091 8.22159 33.0813C7.58535 32.091 7.04659 31.052 6.60533 29.9693C5.90238 28.2402 5.49703 26.429 5.38672 24.5664V24.5664Z" fill="url(#paint22_linear_1770_23645)"/>
<path d="M24.418 3.9141C25.1953 3.76274 25.9855 3.64216 26.7885 3.5498C25.9855 3.64216 25.1953 3.76274 24.418 3.9141Z" fill="url(#paint23_linear_1770_23645)"/>
<path d="M6.02344 18.7405C6.08757 18.525 6.15684 18.3121 6.22868 18.0991C6.15684 18.3121 6.08757 18.525 6.02344 18.7405V18.7405Z" fill="url(#paint24_linear_1770_23645)"/>
<path d="M31.0414 3.34937C30.8541 3.3468 30.6669 3.34424 30.4821 3.34424C29.2276 3.34424 27.9962 3.41351 26.793 3.54948C27.9962 3.41351 29.2276 3.34424 30.4821 3.34424C30.6669 3.34424 30.8541 3.34424 31.0414 3.34937Z" fill="url(#paint25_linear_1770_23645)"/>
<path d="M6.22656 18.0989C6.29583 17.8962 6.36766 17.6961 6.44463 17.4985C6.36766 17.6986 6.29583 17.8988 6.22656 18.0989Z" fill="white"/>
<path d="M42.1836 5.57129C42.6762 5.77396 43.1533 5.9946 43.6254 6.22036C43.1533 5.9946 42.6762 5.77396 42.1836 5.57129Z" fill="white"/>
<path d="M42.1831 5.57074C41.8137 5.41682 41.4366 5.27058 41.0543 5.12948C39.9075 4.70874 38.7172 4.35983 37.4883 4.08789C38.7172 4.35983 39.905 4.70874 41.0543 5.12948C41.4366 5.27058 41.8111 5.41682 42.1831 5.57074Z" fill="white"/>
<path d="M6.02437 18.7407C5.60106 20.18 5.3753 21.6782 5.34964 23.2252C5.34195 23.6767 5.35734 24.1231 5.383 24.5695C5.35734 24.1231 5.34195 23.6767 5.34964 23.2252C5.3753 21.6782 5.60106 20.18 6.02437 18.7407V18.7407Z" fill="white"/>
<path d="M24.4173 3.91406C23.2526 4.14239 22.116 4.43486 21.0154 4.79916C20.2407 5.05314 19.489 5.33534 18.7578 5.6432C19.489 5.33534 20.2407 5.05314 21.0154 4.79916C22.116 4.43742 23.25 4.14239 24.4173 3.91406V3.91406Z" fill="white"/>
<path d="M34.9913 3.64513C33.7136 3.47068 32.4027 3.37319 31.0635 3.3501C31.0558 3.3501 31.0507 3.3501 31.043 3.3501C31.0507 3.3501 31.0558 3.3501 31.0635 3.3501C32.4052 3.37319 33.7162 3.47068 34.9938 3.64513H34.9913Z" fill="white"/>
<defs>
<filter id="filter0_d_1770_23645" x="18.0278" y="12.9849" width="23.7847" height="23.7837" filterUnits="userSpaceOnUse" color-interpolation-filters="sRGB">
<feFlood flood-opacity="0" result="BackgroundImageFix"/>
<feColorMatrix in="SourceAlpha" type="matrix" values="0 0 0 0 0 0 0 0 0 0 0 0 0 0 0 0 0 0 127 0" result="hardAlpha"/>
<feOffset dx="-0.794706" dy="0.794706"/>
<feGaussianBlur stdDeviation="0.397353"/>
<feColorMatrix type="matrix" values="0 0 0 0 0 0 0 0 0 0 0 0 0 0 0 0 0 0 0.2 0"/>
<feBlend mode="normal" in2="BackgroundImageFix" result="effect1_dropShadow_1770_23645"/>
<feBlend mode="normal" in="SourceGraphic" in2="effect1_dropShadow_1770_23645" result="shape"/>
</filter>
<filter id="filter1_d_1770_23645" x="0.410589" y="0" width="84.0386" height="70.5875" filterUnits="userSpaceOnUse" color-interpolation-filters="sRGB">
<feFlood flood-opacity="0" result="BackgroundImageFix"/>
<feColorMatrix in="SourceAlpha" type="matrix" values="0 0 0 0 0 0 0 0 0 0 0 0 0 0 0 0 0 0 127 0" result="hardAlpha"/>
<feOffset dx="-0.794706" dy="0.794706"/>
<feGaussianBlur stdDeviation="0.397353"/>
<feColorMatrix type="matrix" values="0 0 0 0 0 0 0 0 0 0 0 0 0 0 0 0 0 0 0.25 0"/>
<feBlend mode="normal" in2="BackgroundImageFix" result="effect1_dropShadow_1770_23645"/>
<feBlend mode="normal" in="SourceGraphic" in2="effect1_dropShadow_1770_23645" result="shape"/>
</filter>
<filter id="filter2_d_1770_23645" x="50.8637" y="37.4321" width="18.5152" height="17.2481" filterUnits="userSpaceOnUse" color-interpolation-filters="sRGB">
<feFlood flood-opacity="0" result="BackgroundImageFix"/>
<feColorMatrix in="SourceAlpha" type="matrix" values="0 0 0 0 0 0 0 0 0 0 0 0 0 0 0 0 0 0 127 0" result="hardAlpha"/>
<feOffset dx="-0.794706" dy="0.794706"/>
<feGaussianBlur stdDeviation="0.397353"/>
<feColorMatrix type="matrix" values="0 0 0 0 0 0 0 0 0 0 0 0 0 0 0 0 0 0 0.2 0"/>
<feBlend mode="normal" in2="BackgroundImageFix" result="effect1_dropShadow_1770_23645"/>
<feBlend mode="normal" in="SourceGraphic" in2="effect1_dropShadow_1770_23645" result="shape"/>
</filter>
<linearGradient id="paint0_linear_1770_23645" x1="15.3993" y1="-21.903" x2="15.3993" y2="90.908" gradientUnits="userSpaceOnUse">
<stop stop-color="#27C5DA"/>
<stop offset="1" stop-color="#05A0F0"/>
</linearGradient>
<linearGradient id="paint1_linear_1770_23645" x1="12.6051" y1="-21.9021" x2="12.6051" y2="90.9077" gradientUnits="userSpaceOnUse">
<stop stop-color="#27C5DA"/>
<stop offset="1" stop-color="#05A0F0"/>
</linearGradient>
<linearGradient id="paint2_linear_1770_23645" x1="17.3324" y1="-21.9022" x2="17.3324" y2="90.9075" gradientUnits="userSpaceOnUse">
<stop stop-color="#27C5DA"/>
<stop offset="1" stop-color="#05A0F0"/>
</linearGradient>
<linearGradient id="paint3_linear_1770_23645" x1="16.7219" y1="-21.9028" x2="16.7219" y2="90.907" gradientUnits="userSpaceOnUse">
<stop stop-color="#27C5DA"/>
<stop offset="1" stop-color="#05A0F0"/>
</linearGradient>
<linearGradient id="paint4_linear_1770_23645" x1="11.1973" y1="-21.9028" x2="11.1973" y2="90.9072" gradientUnits="userSpaceOnUse">
<stop stop-color="#27C5DA"/>
<stop offset="1" stop-color="#05A0F0"/>
</linearGradient>
<linearGradient id="paint5_linear_1770_23645" x1="13.9755" y1="-21.9028" x2="13.9755" y2="90.9068" gradientUnits="userSpaceOnUse">
<stop stop-color="#27C5DA"/>
<stop offset="1" stop-color="#05A0F0"/>
</linearGradient>
<linearGradient id="paint6_linear_1770_23645" x1="39.5611" y1="-21.9027" x2="39.5611" y2="90.9072" gradientUnits="userSpaceOnUse">
<stop stop-color="#27C5DA"/>
<stop offset="1" stop-color="#05A0F0"/>
</linearGradient>
<linearGradient id="paint7_linear_1770_23645" x1="18.8723" y1="-21.9033" x2="18.8723" y2="90.9071" gradientUnits="userSpaceOnUse">
<stop stop-color="#27C5DA"/>
<stop offset="1" stop-color="#05A0F0"/>
</linearGradient>
<linearGradient id="paint8_linear_1770_23645" x1="55.5568" y1="-21.9017" x2="55.5568" y2="90.908" gradientUnits="userSpaceOnUse">
<stop stop-color="#27C5DA"/>
<stop offset="1" stop-color="#05A0F0"/>
</linearGradient>
<linearGradient id="paint9_linear_1770_23645" x1="55.0686" y1="-21.9024" x2="55.0686" y2="90.9077" gradientUnits="userSpaceOnUse">
<stop stop-color="#27C5DA"/>
<stop offset="1" stop-color="#05A0F0"/>
</linearGradient>
<linearGradient id="paint10_linear_1770_23645" x1="49.2923" y1="-21.9028" x2="49.2923" y2="90.907" gradientUnits="userSpaceOnUse">
<stop stop-color="#27C5DA"/>
<stop offset="1" stop-color="#05A0F0"/>
</linearGradient>
<linearGradient id="paint11_linear_1770_23645" x1="12.3244" y1="-21.9022" x2="12.3244" y2="90.9074" gradientUnits="userSpaceOnUse">
<stop stop-color="#27C5DA"/>
<stop offset="1" stop-color="#05A0F0"/>
</linearGradient>
<linearGradient id="paint12_linear_1770_23645" x1="48.6001" y1="-21.9028" x2="48.6001" y2="90.907" gradientUnits="userSpaceOnUse">
<stop stop-color="#27C5DA"/>
<stop offset="1" stop-color="#05A0F0"/>
</linearGradient>
<linearGradient id="paint13_linear_1770_23645" x1="36.3702" y1="-21.9032" x2="36.3702" y2="90.9072" gradientUnits="userSpaceOnUse">
<stop stop-color="#27C5DA"/>
<stop offset="1" stop-color="#05A0F0"/>
</linearGradient>
<linearGradient id="paint14_linear_1770_23645" x1="31.5554" y1="-21.904" x2="31.5554" y2="90.9079" gradientUnits="userSpaceOnUse">
<stop stop-color="#27C5DA"/>
<stop offset="1" stop-color="#05A0F0"/>
</linearGradient>
<linearGradient id="paint15_linear_1770_23645" x1="37.5339" y1="-21.9029" x2="37.5339" y2="90.907" gradientUnits="userSpaceOnUse">
<stop stop-color="#27C5DA"/>
<stop offset="1" stop-color="#05A0F0"/>
</linearGradient>
<linearGradient id="paint16_linear_1770_23645" x1="37.1418" y1="-21.9019" x2="37.1418" y2="90.908" gradientUnits="userSpaceOnUse">
<stop stop-color="#27C5DA"/>
<stop offset="1" stop-color="#05A0F0"/>
</linearGradient>
<linearGradient id="paint17_linear_1770_23645" x1="27.2924" y1="-21.903" x2="27.2924" y2="90.907" gradientUnits="userSpaceOnUse">
<stop stop-color="#27C5DA"/>
<stop offset="1" stop-color="#05A0F0"/>
</linearGradient>
<linearGradient id="paint18_linear_1770_23645" x1="60.7789" y1="-21.9029" x2="60.7789" y2="90.9069" gradientUnits="userSpaceOnUse">
<stop stop-color="#27C5DA"/>
<stop offset="1" stop-color="#05A0F0"/>
</linearGradient>
<linearGradient id="paint19_linear_1770_23645" x1="20.8662" y1="-21.9026" x2="20.8662" y2="90.9074" gradientUnits="userSpaceOnUse">
<stop stop-color="#27C5DA"/>
<stop offset="1" stop-color="#05A0F0"/>
</linearGradient>
<linearGradient id="paint20_linear_1770_23645" x1="15.7403" y1="-21.9026" x2="15.7403" y2="90.9069" gradientUnits="userSpaceOnUse">
<stop stop-color="#27C5DA"/>
<stop offset="1" stop-color="#05A0F0"/>
</linearGradient>
<linearGradient id="paint21_linear_1770_23645" x1="30.7222" y1="-21.9026" x2="30.7222" y2="90.9072" gradientUnits="userSpaceOnUse">
<stop stop-color="#27C5DA"/>
<stop offset="1" stop-color="#05A0F0"/>
</linearGradient>
<linearGradient id="paint22_linear_1770_23645" x1="6.80287" y1="-21.9023" x2="6.80287" y2="90.9074" gradientUnits="userSpaceOnUse">
<stop stop-color="#27C5DA"/>
<stop offset="1" stop-color="#05A0F0"/>
</linearGradient>
<linearGradient id="paint23_linear_1770_23645" x1="25.6032" y1="-21.9024" x2="25.6032" y2="90.9074" gradientUnits="userSpaceOnUse">
<stop stop-color="#27C5DA"/>
<stop offset="1" stop-color="#05A0F0"/>
</linearGradient>
<linearGradient id="paint24_linear_1770_23645" x1="6.12606" y1="-21.902" x2="6.12606" y2="90.9078" gradientUnits="userSpaceOnUse">
<stop stop-color="#27C5DA"/>
<stop offset="1" stop-color="#05A0F0"/>
</linearGradient>
<linearGradient id="paint25_linear_1770_23645" x1="28.9146" y1="-21.9028" x2="28.9146" y2="90.9071" gradientUnits="userSpaceOnUse">
<stop stop-color="#27C5DA"/>
<stop offset="1" stop-color="#05A0F0"/>
</linearGradient>
</defs>
</svg>
