<svg width="138" height="160" viewBox="0 0 138 160" fill="none" xmlns="http://www.w3.org/2000/svg">
<path d="M37.3984 53.2034C37.4861 53.0893 37.5768 52.9724 37.6645 52.8525C37.5768 52.9695 37.4861 53.0864 37.3984 53.2034Z" fill="url(#paint0_linear_1770_23776)"/>
<path d="M34.6075 10.3837C36.6043 8.80792 38.867 7.48652 41.3636 6.43115C38.867 7.4836 36.6043 8.80792 34.6075 10.3837C31.9735 12.4622 29.8774 14.9092 28.3776 17.6602C27.9742 18.4027 27.6263 19.1628 27.3281 19.9405C27.6263 19.1628 27.9742 18.4027 28.3776 17.6602C29.8774 14.9092 31.9735 12.4593 34.6075 10.3837V10.3837Z" fill="url(#paint1_linear_1770_23776)"/>
<path d="M39.985 47.637C39.8915 47.3388 39.7102 46.9675 39.3711 46.6167C39.7102 46.9675 39.8885 47.3388 39.985 47.637C40.1137 48.0404 40.1867 48.6368 39.9382 49.3501C40.1867 48.6397 40.1137 48.0404 39.985 47.637Z" fill="url(#paint2_linear_1770_23776)"/>
<path d="M38.4922 51.7293C38.8781 51.1856 39.2347 50.6389 39.5856 50.0571C39.2347 50.6389 38.8752 51.1856 38.4922 51.7293Z" fill="url(#paint3_linear_1770_23776)"/>
<path d="M32.2031 41.2783C32.5539 41.6379 32.9106 41.9916 33.2848 42.3308C32.9106 41.9916 32.5539 41.6379 32.2031 41.2783Z" fill="url(#paint4_linear_1770_23776)"/>
<path d="M35.7266 55.2457C35.8435 55.1112 35.9663 54.968 36.0891 54.8218C35.9634 54.968 35.8435 55.1112 35.7266 55.2457Z" fill="url(#paint5_linear_1770_23776)"/>
<path d="M63.0859 44.5728C63.5625 42.997 64.2407 41.4944 65.1236 40.0765C65.6937 39.1614 66.3368 38.2932 67.0414 37.4688C66.3368 38.2932 65.6937 39.1644 65.1236 40.0765C64.2407 41.4944 63.5595 42.997 63.0859 44.5728Z" fill="url(#paint6_linear_1770_23776)"/>
<path d="M41.6954 53.4775C41.558 53.5331 41.4235 53.5857 41.2891 53.6383C41.4235 53.5857 41.5609 53.5331 41.6954 53.4775Z" fill="url(#paint7_linear_1770_23776)"/>
<path d="M83.819 28.7285C83.4624 28.7782 83.1116 28.8338 82.7578 28.8952C83.1086 28.8367 83.4624 28.7811 83.819 28.7285Z" fill="url(#paint8_linear_1770_23776)"/>
<path d="M82.6016 20.1245C82.6951 20.3613 82.7828 20.604 82.8647 20.8437C82.7799 20.604 82.6951 20.3613 82.6016 20.1245Z" fill="url(#paint9_linear_1770_23776)"/>
<path d="M81.9027 18.5513C82.1629 19.0687 82.3968 19.592 82.6073 20.1241C82.3968 19.592 82.1629 19.0658 81.9027 18.5513C80.4965 15.7506 78.4823 13.2335 75.9184 11.0701C74.0825 9.5207 71.998 8.19053 69.7031 7.09131C71.998 8.19053 74.0854 9.5207 75.9184 11.0701C78.4823 13.2335 80.4965 15.7506 81.9027 18.5513V18.5513Z" fill="url(#paint10_linear_1770_23776)"/>
<path d="M34.6098 43.4476C34.2122 43.1348 33.8234 42.8103 33.4492 42.4771C33.8234 42.8103 34.2122 43.1348 34.6098 43.4476Z" fill="url(#paint11_linear_1770_23776)"/>
<path d="M71.4853 33.4546C70.6579 34.0335 69.8832 34.6532 69.1523 35.311C69.8832 34.6562 70.6579 34.0335 71.4853 33.4546C74.0813 31.645 77.072 30.2798 80.3755 29.3998C80.7702 29.2945 81.1707 29.2039 81.5741 29.1191C81.1707 29.2039 80.7702 29.2945 80.3755 29.3998C77.072 30.2798 74.0813 31.645 71.4853 33.4546Z" fill="url(#paint12_linear_1770_23776)"/>
<path d="M61.7895 49.4604C61.5498 49.5043 61.31 49.5482 61.0703 49.5891C61.31 49.5482 61.5498 49.5072 61.7895 49.4604Z" fill="url(#paint13_linear_1770_23776)"/>
<path d="M54.2101 50.0924C53.9177 50.0866 53.6283 50.0778 53.3359 50.0632C53.6283 50.0778 53.9177 50.0866 54.2101 50.0924C55.6893 50.1158 57.1335 50.0544 58.5455 49.9199C57.1335 50.0544 55.6893 50.1158 54.2101 50.0924Z" fill="url(#paint14_linear_1770_23776)"/>
<path d="M62.6602 46.2828C62.7186 45.9934 62.7829 45.7069 62.856 45.4233C62.7859 45.7069 62.7186 45.9963 62.6602 46.2828Z" fill="url(#paint15_linear_1770_23776)"/>
<path d="M62.3047 49.3651C62.3105 49.1985 62.3105 49.0319 62.3164 48.8623C62.3105 49.0289 62.3105 49.1956 62.3047 49.3651Z" fill="url(#paint16_linear_1770_23776)"/>
<path d="M50.6484 49.8174L50.7566 49.8262C51.008 49.8612 51.2624 49.8934 51.5196 49.9226C51.2624 49.8934 51.008 49.8642 50.7566 49.8262L50.6484 49.8174Z" fill="url(#paint17_linear_1770_23776)"/>
<path d="M106.751 39.0708C104.778 37.1998 102.395 35.6474 99.6621 34.4634C96.9199 33.2736 93.8824 32.5456 90.6286 32.3C89.4358 32.2094 88.2723 32.2123 87.1233 32.2591C85.7318 32.3147 84.3753 32.4638 83.0627 32.7152C82.4897 32.8263 81.9196 32.9374 81.3641 33.0865C78.4904 33.8495 75.906 35.0276 73.6754 36.5829C71.477 38.1148 69.6908 39.9712 68.3635 42.0966C67.1795 43.9939 66.475 46.0959 66.2148 48.3381C66.1885 48.5516 66.1446 48.762 66.13 48.9784C66.0452 50.1039 66.0978 51.2148 66.2586 52.3053C66.3785 53.1268 66.5539 53.9395 66.8111 54.7317C67.4192 56.6086 68.3635 58.3861 69.6177 60.0115C70.8835 61.6603 72.4593 63.1513 74.2981 64.4435C76.1516 65.7473 78.2711 66.8232 80.5894 67.6388C82.9194 68.4603 85.4716 68.9778 88.1787 69.1824C88.6435 69.2175 89.1113 69.238 89.5761 69.2438C90.0497 69.2555 90.5029 69.2438 90.956 69.2204L91.07 69.2146L91.187 69.2233C91.453 69.2438 91.7219 69.2906 91.9997 69.3637C92.3768 69.466 92.7422 69.6414 93.1252 69.8987C94.0812 70.5477 95.0781 71.1704 96.0867 71.7492C97.1011 72.331 98.098 72.863 99.054 73.322C99.9895 73.7722 100.852 74.1377 101.621 74.4037C101.714 74.4359 101.808 74.468 101.896 74.4973C101.837 74.4096 101.776 74.3189 101.714 74.2254C101.343 73.6728 100.975 73.0852 100.609 72.4655C100.232 71.8311 99.8989 71.2054 99.6094 70.5974C99.2031 69.618 99.3522 68.9047 99.5422 68.4632C99.7176 68.0393 100.124 67.4371 101.007 67.0775C103.144 66.1829 105.076 64.9755 106.728 63.4963C108.368 62.0287 109.692 60.3302 110.669 58.4475C111.631 56.5881 112.201 54.5739 112.359 52.4602C112.546 49.9724 112.151 47.5693 111.18 45.3211C110.189 43.0262 108.701 40.9243 106.757 39.0737L106.751 39.0708ZM99.016 49.3935C98.9136 50.7588 98.4225 52.0802 97.5396 53.3577C96.6597 54.6353 95.4815 55.8631 94.011 57.0354C92.5405 58.2077 90.8654 59.3187 88.9856 60.3682C88.9067 60.4091 88.8248 60.4442 88.74 60.4676C88.6523 60.491 88.5734 60.4997 88.4974 60.4939C88.4301 60.488 88.3541 60.4676 88.2664 60.4296C88.1816 60.3916 88.1056 60.3477 88.0413 60.2951C86.3399 58.9766 84.8489 57.6289 83.5713 56.249C82.2938 54.8692 81.3144 53.4805 80.6333 52.0831C79.955 50.6857 79.6656 49.3058 79.7679 47.9406C79.8293 47.1103 80.0223 46.359 80.3409 45.6866C80.6596 45.0142 81.0805 44.4441 81.6009 43.9734C82.1213 43.5027 82.7177 43.1548 83.3872 42.9268C84.0566 42.6988 84.7729 42.614 85.5359 42.6696C86.4276 42.7368 87.2461 43.0408 87.9887 43.5817C88.7312 44.1225 89.2721 44.8154 89.6112 45.6544C90.079 44.8738 90.7192 44.2716 91.5348 43.8477C92.3505 43.4238 93.2071 43.2455 94.0987 43.3127C94.8617 43.3712 95.5575 43.5612 96.1861 43.8886C96.8146 44.2131 97.3496 44.6487 97.794 45.1925C98.2383 45.7363 98.5687 46.3648 98.7821 47.0752C98.9955 47.7885 99.0715 48.5603 99.0101 49.3906L99.016 49.3935Z" fill="url(#paint18_linear_1770_23776)"/>
<path d="M44.4298 52.3057C43.9796 52.5103 43.5352 52.7062 43.0938 52.8962C43.5352 52.7062 43.9796 52.5103 44.4298 52.3057V52.3057Z" fill="url(#paint19_linear_1770_23776)"/>
<path d="M36.9883 55.0238C37.0848 55.0004 37.1812 54.98 37.2806 54.9566C37.7747 54.8338 38.3009 54.6847 38.8534 54.5093C38.3009 54.6847 37.7747 54.8338 37.2806 54.9566C37.1812 54.9829 37.0848 55.0033 36.9883 55.0238Z" fill="url(#paint20_linear_1770_23776)"/>
<path d="M63.0826 44.5728C63.5591 42.9971 64.2374 41.4944 65.1202 40.0765C65.6903 39.1615 66.3335 38.2932 67.038 37.4688C67.687 36.7087 68.3945 35.9895 69.1517 35.3084C69.8826 34.6535 70.6573 34.0308 71.4846 33.452C74.0806 31.6424 77.0713 30.2771 80.3749 29.3971C80.7695 29.2919 81.17 29.2013 81.5735 29.1165C81.9652 29.0346 82.357 28.9586 82.7545 28.8914C83.1054 28.8329 83.4591 28.7774 83.8158 28.7247C83.8508 28.2921 83.8918 27.8594 83.9005 27.4209C83.9386 25.1377 83.5877 22.9334 82.8627 20.8402C82.7779 20.6005 82.6932 20.3578 82.5996 20.121C82.3891 19.5889 82.1552 19.0627 81.8951 18.5482C80.4859 15.7475 78.4746 13.2304 75.9107 11.0671C74.0748 9.51762 71.9904 8.18745 69.6955 7.08823C69.1575 6.83096 68.6138 6.57954 68.0525 6.34859C67.6315 6.17318 67.2017 6.00655 66.7662 5.84576C65.4594 5.36631 64.1029 4.96872 62.7025 4.65883C61.77 4.45127 60.8169 4.28171 59.8492 4.15015C58.3934 3.95135 56.8995 3.84026 55.3705 3.81395C55.3617 3.81395 55.3559 3.81395 55.3471 3.81395C55.1337 3.81103 54.9203 3.80811 54.7098 3.80811C53.2802 3.80811 51.877 3.88704 50.5059 4.04198C49.5908 4.14723 48.6904 4.28463 47.8046 4.45711C46.4773 4.7173 45.1823 5.0535 43.9281 5.46571C43.0452 5.75513 42.1886 6.07671 41.3554 6.42752C38.8588 7.47997 36.596 8.8043 34.5993 10.38C31.9653 12.4586 29.8692 14.9056 28.3694 17.6565C27.966 18.3991 27.6181 19.1592 27.3199 19.9368C27.2322 20.1649 27.1504 20.3929 27.0714 20.6209C26.9896 20.8636 26.9106 21.1062 26.8375 21.3518C26.3552 22.9918 26.0979 24.6991 26.0687 26.462C26.0599 26.9765 26.0774 27.4852 26.1067 27.9939C26.2353 30.1163 26.6943 32.1832 27.4953 34.1507C27.9952 35.3815 28.6121 36.5684 29.3371 37.6968C30.0621 38.8253 30.8953 39.8982 31.8308 40.9068C31.9477 41.0325 32.0735 41.1553 32.1933 41.281C32.5441 41.6406 32.9008 41.9943 33.275 42.3334C33.3305 42.3831 33.3861 42.4299 33.4387 42.4796C33.8129 42.8129 34.2017 43.1374 34.5993 43.4502C35.8184 44.412 37.1427 45.2803 38.5635 46.0345C38.8968 46.207 39.157 46.4087 39.3587 46.6192C39.6978 46.9701 39.8762 47.3413 39.9726 47.6395C40.1013 48.043 40.1744 48.6393 39.9259 49.3527C39.8762 49.4959 39.8177 49.6421 39.7388 49.7912C39.6861 49.8818 39.6306 49.9695 39.5751 50.0601C39.2242 50.6419 38.8647 51.1886 38.4817 51.7324C38.4115 51.8288 38.3443 51.9282 38.2741 52.0276C38.0695 52.3112 37.8619 52.586 37.6573 52.8579C37.5696 52.9748 37.4789 53.0918 37.3912 53.2087C37.1749 53.4894 36.9586 53.7671 36.7422 54.0331C36.5142 54.3167 36.2949 54.5769 36.0874 54.8254C35.9617 54.9716 35.8418 55.1148 35.7249 55.2493C36.0961 55.2113 36.52 55.1353 36.9849 55.03C37.0813 55.0066 37.1778 54.9862 37.2772 54.9628C37.7713 54.84 38.2975 54.6909 38.85 54.5155C39.4026 54.3401 39.9814 54.1384 40.5836 53.9162C40.8146 53.8314 41.0485 53.7379 41.2824 53.6472C41.4168 53.5946 41.5542 53.542 41.6887 53.4864C42.1477 53.3023 42.6155 53.1064 43.0861 52.9047C43.5276 52.7146 43.9719 52.5188 44.4221 52.3141C45.7319 51.7119 47.0328 51.057 48.284 50.3671C48.743 50.1157 49.164 49.9578 49.5762 49.8877C49.7341 49.8614 49.8949 49.8438 50.0498 49.8321C50.2077 49.8204 50.3597 49.8146 50.5059 49.8146L50.6403 49.8263L50.7485 49.835C50.9999 49.8701 51.2543 49.9023 51.5115 49.9315C51.8243 49.9666 52.1401 49.9988 52.4587 50.0221C52.7482 50.0455 53.0405 50.0631 53.3299 50.0748C53.6223 50.0894 53.9117 50.0982 54.204 50.104C55.6833 50.1274 57.1275 50.066 58.5395 49.9315C59.3932 49.8497 60.2322 49.7386 61.0596 49.6012C61.2993 49.5602 61.539 49.5193 61.7787 49.4725C61.9512 49.4404 62.1266 49.4111 62.2962 49.3761C62.302 49.2094 62.302 49.0428 62.3079 48.8732C62.3079 48.8177 62.3079 48.7592 62.3137 48.7037C62.3751 47.8851 62.4862 47.0841 62.647 46.2947C62.7055 46.0053 62.7698 45.7188 62.8429 45.4352C62.916 45.1487 62.992 44.8652 63.0767 44.5845L63.0826 44.5728ZM58.7442 38.1383C58.7266 39.2346 57.8233 40.1087 56.727 40.0882L52.8125 40.0239C51.7162 40.0064 50.8421 39.103 50.8625 38.0067L50.9736 31.3179L44.2847 31.2068C43.1884 31.1892 42.3143 30.2859 42.3348 29.1896L42.3991 25.2751C42.4167 24.1788 43.32 23.3047 44.4163 23.3251L51.1052 23.4362L51.2163 16.7473C51.2338 15.651 52.1372 14.7769 53.2335 14.7974L57.148 14.8617C58.2443 14.8792 59.1184 15.7826 59.0979 16.8789L58.9868 23.5678L65.6757 23.6789C66.772 23.6964 67.6461 24.5997 67.6256 25.696L67.5613 29.6106C67.5438 30.7069 66.6404 31.581 65.5441 31.5605L58.8553 31.4494L58.7442 38.1383Z" fill="url(#paint21_linear_1770_23776)"/>
<g filter="url(#filter0_d_1770_23776)">
<path d="M67.5666 29.6103L67.6309 25.6958C67.6485 24.5995 66.7744 23.6961 65.681 23.6786L58.9921 23.5675L59.1032 16.8786C59.1208 15.7823 58.2466 14.879 57.1533 14.8615L53.2388 14.7971C52.1425 14.7796 51.2391 15.6537 51.2216 16.7471L51.1105 23.436L44.4216 23.3249C43.3253 23.3073 42.422 24.1814 42.4044 25.2748L42.3401 29.1893C42.3226 30.2856 43.1967 31.189 44.2901 31.2065L50.9789 31.3176L50.8678 38.0065C50.8503 39.1028 51.7244 40.0061 52.8178 40.0237L56.7323 40.088C57.8286 40.1055 58.7319 39.2314 58.7495 38.138L58.8606 31.4492L65.5494 31.5602C66.6457 31.5778 67.5491 30.7037 67.5666 29.6103V29.6103Z" fill="white"/>
</g>
<g filter="url(#filter1_d_1770_23776)">
<path d="M109.378 36.3085C107.083 34.1276 104.324 32.3297 101.181 30.9673C98.0499 29.605 94.5943 28.7747 90.9137 28.497C89.8115 28.4122 88.7299 28.3976 87.657 28.4181C87.6745 28.1082 87.7125 27.8012 87.7154 27.4884C87.7768 23.7347 86.967 20.1505 85.3036 16.8383C83.6635 13.5728 81.3306 10.6522 78.3721 8.15266C75.4398 5.67649 71.9784 3.69731 68.0815 2.26774C64.1962 0.841087 59.9426 0.0780645 55.4404 0.00497804C50.9442 -0.0622615 46.6876 0.551665 42.7439 1.84676C38.7913 3.1477 35.2569 5.00994 32.2486 7.38964C29.2053 9.7898 26.7788 12.6314 25.0306 15.8384C23.259 19.0922 22.3293 22.6442 22.265 26.4009C22.2124 29.5787 22.7883 32.6717 23.9752 35.5893C25.1534 38.4835 26.8607 41.1468 29.0504 43.5031C30.9886 45.5875 33.2631 47.3913 35.8299 48.8706C35.6282 49.1746 35.4177 49.4787 35.1955 49.7886C34.7248 50.4376 34.2571 51.0515 33.7864 51.6274C33.3215 52.2033 32.9064 52.6945 32.5117 53.1301C31.2342 54.6123 31.2751 55.9541 31.5353 56.8166C31.737 57.486 32.4767 59.0501 35.0084 59.0939C35.0522 59.0939 35.0961 59.0939 35.1399 59.0939C36.0199 59.0939 37.0226 58.9507 38.2037 58.6583C39.3351 58.3777 40.5922 57.9801 41.9282 57.4802C43.2438 56.989 44.6236 56.4131 46.024 55.77C47.4185 55.1297 48.8013 54.4339 50.2396 53.6358C50.2835 53.6271 50.3302 53.6212 50.3741 53.6183C50.9646 53.7001 51.5669 53.7645 52.1779 53.8112C52.8356 53.8609 53.4934 53.8931 54.1512 53.9048C57.0483 53.9457 59.8666 53.7089 62.5474 53.2061C62.4947 52.8903 62.4743 52.5688 62.4392 52.2501C62.4743 52.5688 62.4947 52.8903 62.5474 53.2061C62.6994 54.1182 62.8953 55.0215 63.1818 55.9044C63.9272 58.1964 65.0732 60.3598 66.5905 62.3331C68.0932 64.2889 69.9466 66.0459 72.1012 67.5603C74.2412 69.0658 76.6706 70.3025 79.3193 71.2351C81.965 72.1647 84.8475 72.7552 87.8879 72.9833C88.4288 73.0242 88.9754 73.0476 89.5192 73.0564C89.6888 73.0564 89.8554 73.0564 90.0191 73.0564C90.3845 73.0564 90.7646 73.0622 90.9868 73.0534C92.0188 73.7551 93.0975 74.4275 94.188 75.0531C95.2784 75.6816 96.3601 76.2546 97.4008 76.7545C98.4679 77.2691 99.4677 77.6871 100.371 78.0029C101.386 78.3537 102.248 78.5554 103.017 78.6109C103.148 78.6226 103.277 78.6256 103.403 78.6256C105.397 78.6256 106.127 77.3714 106.358 76.8013C106.607 76.1757 106.867 74.904 105.777 73.375C105.513 73.0213 105.215 72.5974 104.882 72.1004C104.549 71.6034 104.218 71.0772 103.891 70.5217C103.8 70.3697 103.713 70.2206 103.631 70.0744C105.712 69.0775 107.604 67.8234 109.27 66.3324C111.255 64.5549 112.863 62.491 114.053 60.1961C115.254 57.8778 115.962 55.3665 116.161 52.7383C116.395 49.6307 115.898 46.6254 114.681 43.8042C113.489 41.0328 111.705 38.5099 109.381 36.3026L109.378 36.3085ZM62.3223 48.6923C62.3193 48.7478 62.3193 48.8063 62.3164 48.8618C62.3106 49.0285 62.3106 49.1951 62.3047 49.3647C62.1322 49.3997 61.9598 49.429 61.7873 49.4611C61.5475 49.505 61.3078 49.5488 61.0681 49.5898C60.2408 49.7272 59.4017 49.8383 58.5481 49.9201C57.136 50.0546 55.6919 50.116 54.2126 50.0926C53.9202 50.0868 53.6308 50.078 53.3385 50.0634C53.0461 50.0487 52.7567 50.0312 52.4673 50.0107C52.1486 49.9874 51.8329 49.9552 51.5201 49.9201C51.2628 49.8909 51.0085 49.8616 50.7571 49.8236L50.6489 49.8149L50.5144 49.8032C50.3682 49.8032 50.2133 49.809 50.0583 49.8207C49.9034 49.8324 49.7426 49.85 49.5847 49.8763C49.1725 49.9464 48.7516 50.1043 48.2926 50.3557C47.0413 51.0456 45.7404 51.7005 44.4307 52.3027C43.9805 52.5074 43.5361 52.7032 43.0947 52.8933C42.624 53.095 42.1562 53.2909 41.6973 53.475C41.5599 53.5306 41.4254 53.5832 41.2909 53.6358C41.057 53.7265 40.8231 53.82 40.5922 53.9048C39.99 54.1299 39.4111 54.3316 38.8586 54.5041C38.306 54.6795 37.7798 54.8286 37.2858 54.9514C37.1864 54.9777 37.0899 54.9982 36.9934 55.0186C36.5257 55.1239 36.1047 55.1999 35.7334 55.2379C35.8503 55.1034 35.9731 54.9602 36.0959 54.814C36.3035 54.5684 36.5227 54.3053 36.7508 54.0217C36.9671 53.7557 37.1834 53.478 37.3998 53.1973C37.4875 53.0833 37.5781 52.9664 37.6658 52.8465C37.8704 52.5746 38.078 52.2998 38.2827 52.0162C38.3528 51.9168 38.423 51.8204 38.4902 51.721C38.8761 51.1772 39.2328 50.6305 39.5836 50.0487C39.6362 49.9581 39.6918 49.8733 39.7473 49.7798C39.8262 49.6278 39.8847 49.4845 39.9344 49.3413C40.1829 48.6309 40.1098 48.0316 39.9812 47.6281C39.8876 47.3299 39.7064 46.9586 39.3673 46.6078C39.1655 46.3973 38.9054 46.1956 38.5721 46.0231C37.1513 45.2689 35.8299 44.4006 34.6079 43.4388C34.2103 43.126 33.8215 42.8015 33.4473 42.4682C33.3917 42.4185 33.3362 42.3717 33.2835 42.322C32.9093 41.9829 32.5527 41.6292 32.2019 41.2696C32.082 41.1439 31.9563 41.024 31.8394 40.8954C30.9038 39.8868 30.0707 38.8139 29.3456 37.6854C28.6206 36.557 28.0067 35.373 27.5039 34.1393C26.7028 32.1689 26.2409 30.1049 26.1152 27.9825C26.086 27.4738 26.0684 26.9651 26.0772 26.4506C26.1064 24.6877 26.3637 22.9804 26.8461 21.3404C26.9192 21.0948 26.9981 20.8522 27.08 20.6095C27.1589 20.3786 27.2408 20.1505 27.3285 19.9254C27.6266 19.1478 27.9745 18.3877 28.378 17.6451C29.8777 14.8942 31.9738 12.4443 34.6079 10.3686C36.6046 8.7929 38.8673 7.47149 41.364 6.41612C42.1972 6.06531 43.0537 5.74373 43.9366 5.45431C45.1908 5.0421 46.483 4.7059 47.8131 4.44571C48.6989 4.27323 49.5994 4.13583 50.5144 4.03058C51.8855 3.87564 53.2888 3.7967 54.7183 3.7967C54.9288 3.7967 55.1422 3.7967 55.3557 3.80255C55.3644 3.80255 55.3703 3.80255 55.379 3.80255C56.908 3.82886 58.4019 3.93995 59.8549 4.13875C60.8255 4.2703 61.7756 4.43987 62.7082 4.64743C64.1085 4.95732 65.4621 5.35491 66.7718 5.83435C67.2074 5.99515 67.6342 6.16178 68.0581 6.33719C68.6194 6.56814 69.1632 6.81956 69.7011 7.07682C71.996 8.17605 74.0833 9.50622 75.9163 11.0557C78.4802 13.219 80.4945 15.7361 81.9007 18.5368C82.1609 19.0542 82.3947 19.5775 82.6052 20.1096C82.6988 20.3464 82.7865 20.5891 82.8683 20.8288C83.5963 22.922 83.9442 25.1263 83.9062 27.4095C83.9003 27.848 83.8594 28.2807 83.8214 28.7133C83.4647 28.763 83.1139 28.8186 82.7602 28.88C82.3626 28.9472 81.9679 29.0232 81.5791 29.1051C81.1756 29.1899 80.7751 29.2805 80.3805 29.3857C77.077 30.2657 74.0863 31.631 71.4902 33.4406C70.6629 34.0194 69.8882 34.6392 69.1573 35.297C68.4001 35.9781 67.6927 36.6973 67.0436 37.4574C66.3391 38.2818 65.6959 39.153 65.1259 40.0651C64.243 41.483 63.5618 42.9857 63.0882 44.5614C63.0034 44.8421 62.9245 45.1256 62.8543 45.4121C62.7842 45.6957 62.7169 45.9851 62.6585 46.2716C62.5006 47.058 62.3866 47.862 62.3252 48.6806L62.3223 48.6923ZM112.354 52.4606C112.196 54.5743 111.626 56.5885 110.665 58.4478C109.688 60.3305 108.364 62.0291 106.724 63.4967C105.069 64.9759 103.14 66.1833 101.003 67.0779C100.12 67.4375 99.7162 68.0397 99.5379 68.4636C99.3479 68.9051 99.1988 69.6213 99.6051 70.5977C99.8946 71.2058 100.228 71.8314 100.605 72.4658C100.97 73.0856 101.342 73.6732 101.71 74.2257C101.771 74.3193 101.833 74.407 101.891 74.4976C101.804 74.4684 101.713 74.4392 101.616 74.4041C100.848 74.138 99.9823 73.7726 99.0497 73.3224C98.0937 72.8605 97.0939 72.3313 96.0824 71.7496C95.0708 71.1707 94.074 70.548 93.1209 69.899C92.7379 69.6388 92.3725 69.4664 91.9954 69.364C91.7176 69.291 91.4487 69.2442 91.1827 69.2237L91.0657 69.2149L90.9517 69.2208C90.4986 69.2442 90.0454 69.2529 89.5718 69.2442C89.107 69.2383 88.6392 69.2179 88.1744 69.1828C85.4673 68.9781 82.9151 68.4607 80.5851 67.6392C78.2639 66.8236 76.1473 65.7477 74.2938 64.4439C72.455 63.1517 70.8792 61.6607 69.6134 60.0119C68.3592 58.3835 67.4149 56.609 66.8068 54.7321C66.5496 53.9399 66.3742 53.1271 66.2543 52.3057C65.7427 52.4577 65.237 52.6155 64.7166 52.7471C65.2399 52.6155 65.7456 52.4577 66.2543 52.3057C66.0935 51.2152 66.0438 50.1043 66.1257 48.9788C66.1432 48.7624 66.1871 48.5519 66.2105 48.3385C66.4707 46.0992 67.1752 43.9972 68.3592 42.0969C69.6835 39.9716 71.4727 38.1152 73.6711 36.5833C75.9017 35.028 78.489 33.8499 81.3598 33.0868C81.9153 32.9377 82.4883 32.8267 83.0584 32.7156C84.371 32.4612 85.7275 32.315 87.119 32.2595C88.268 32.2127 89.4315 32.2127 90.6243 32.3004C93.8781 32.546 96.9185 33.2739 99.6578 34.4638C102.391 35.6507 104.777 37.2001 106.747 39.0712C108.694 40.9217 110.179 43.0237 111.17 45.3186C112.141 47.5667 112.539 49.9698 112.348 52.4577L112.354 52.4606Z" fill="white"/>
</g>
<path d="M62.3026 49.3647C62.1301 49.3998 61.9576 49.4291 61.7852 49.4612C61.9576 49.4291 62.133 49.3998 62.3026 49.3647Z" fill="white"/>
<path d="M61.0669 49.5898C60.2396 49.7272 59.4005 49.8383 58.5469 49.9202C59.4005 49.8383 60.2396 49.7272 61.0669 49.5898Z" fill="white"/>
<path d="M48.2916 50.3589C47.0403 51.0488 45.7394 51.7037 44.4297 52.3059C45.7394 51.7037 47.0403 51.0488 48.2916 50.3589V50.3589Z" fill="white"/>
<path d="M35.7266 55.2461C36.0978 55.2081 36.5217 55.1321 36.9866 55.0269C36.5188 55.1321 36.0978 55.2081 35.7266 55.2461Z" fill="white"/>
<path d="M38.5697 46.0311C37.1489 45.2769 35.8275 44.4086 34.6055 43.4468C35.8246 44.4086 37.1489 45.2769 38.5697 46.0311Z" fill="white"/>
<path d="M33.4489 42.4763C33.3933 42.4266 33.3378 42.3798 33.2852 42.3301C33.3407 42.3798 33.3962 42.4266 33.4489 42.4763Z" fill="white"/>
<path d="M43.0966 52.8955C42.626 53.0972 42.1582 53.2931 41.6992 53.4773C42.1582 53.2931 42.626 53.0972 43.0966 52.8955Z" fill="white"/>
<path d="M38.8594 54.5104C39.4119 54.335 39.9908 54.1332 40.593 53.911C40.8239 53.8263 41.0578 53.7327 41.2917 53.6421C41.0578 53.7327 40.8239 53.8263 40.593 53.911C39.9908 54.1362 39.4119 54.3379 38.8594 54.5104Z" fill="white"/>
<path d="M37.3976 53.2026C37.1813 53.4833 36.9649 53.761 36.7486 54.027C36.5206 54.3106 36.3013 54.5708 36.0938 54.8193C36.3013 54.5737 36.5206 54.3106 36.7486 54.027C36.9649 53.761 37.1813 53.4833 37.3976 53.2026Z" fill="white"/>
<path d="M48.293 50.3577C48.752 50.1063 49.1729 49.9485 49.5851 49.8783C49.743 49.852 49.9038 49.8344 50.0587 49.8228C49.9038 49.8344 49.743 49.852 49.5851 49.8783C49.1729 49.9485 48.752 50.1063 48.293 50.3577Z" fill="white"/>
<path d="M38.4924 51.729C38.4222 51.8255 38.355 51.9249 38.2848 52.0243C38.0802 52.3079 37.8726 52.5827 37.668 52.8545C37.8726 52.5827 38.0802 52.3079 38.2848 52.0243C38.355 51.9249 38.4251 51.8284 38.4924 51.729Z" fill="white"/>
<path d="M51.5195 49.9199C51.8323 49.955 52.1481 49.9872 52.4667 50.0106C52.7562 50.0339 53.0485 50.0515 53.3379 50.0632C53.0456 50.0486 52.7562 50.031 52.4667 50.0106C52.1481 49.9872 51.8323 49.955 51.5195 49.9199Z" fill="white"/>
<path d="M82.7631 28.894C82.3655 28.9613 81.9709 29.0373 81.582 29.1192C81.9738 29.0373 82.3655 28.9613 82.7631 28.894Z" fill="white"/>
<path d="M62.3125 48.8612C62.3125 48.8057 62.3125 48.7472 62.3183 48.6916C62.3797 47.8731 62.4908 47.072 62.6516 46.2827C62.4938 47.0691 62.3797 47.8731 62.3183 48.6916C62.3154 48.7472 62.3154 48.8057 62.3125 48.8612Z" fill="white"/>
<path d="M39.9368 49.3501C39.8871 49.4933 39.8286 49.6395 39.7497 49.7886C39.697 49.8792 39.6415 49.9669 39.5859 50.0576C39.6415 49.9669 39.6941 49.8822 39.7497 49.7886C39.8286 49.6366 39.8871 49.4933 39.9368 49.3501Z" fill="white"/>
<path d="M50.0625 49.8227C50.2204 49.811 50.3724 49.8052 50.5186 49.8052L50.653 49.8169L50.5186 49.8052C50.3724 49.8052 50.2174 49.811 50.0625 49.8227Z" fill="white"/>
<path d="M83.9089 27.4245C83.9031 27.863 83.8621 28.2956 83.8241 28.7283C83.8592 28.2956 83.9002 27.863 83.9089 27.4245C83.9469 25.1412 83.5961 22.9369 82.8711 20.8438C83.599 22.9369 83.9469 25.1412 83.9089 27.4245Z" fill="white"/>
<path d="M29.3477 37.6978C30.0727 38.8262 30.9059 39.8991 31.8414 40.9077C31.9583 41.0334 32.084 41.1562 32.2039 41.2819C32.084 41.1562 31.9583 41.0363 31.8414 40.9077C30.9059 39.8991 30.0727 38.8262 29.3477 37.6978V37.6978Z" fill="white"/>
<path d="M67.0391 37.4681C67.6881 36.708 68.3955 35.9888 69.1527 35.3076C68.3955 35.9888 67.6881 36.708 67.0391 37.4681Z" fill="white"/>
<path d="M63.0854 44.5732C63.0007 44.8539 62.9217 45.1375 62.8516 45.424C62.9246 45.1375 63.0007 44.8539 63.0854 44.5732Z" fill="white"/>
<g filter="url(#filter2_d_1770_23776)">
<path d="M97.8039 45.1953C97.3596 44.6516 96.8216 44.2189 96.196 43.8915C95.5675 43.567 94.8717 43.374 94.1087 43.3155C93.217 43.2483 92.3634 43.4266 91.5448 43.8505C90.7291 44.2744 90.086 44.8767 89.6211 45.6572C89.285 44.8153 88.7441 44.1253 87.9986 43.5845C87.2561 43.0437 86.4375 42.7367 85.5459 42.6724C84.7828 42.6139 84.0666 42.7016 83.3971 42.9296C82.7276 43.1577 82.1312 43.5085 81.6109 43.9762C81.0905 44.4469 80.6695 45.017 80.3509 45.6894C80.0322 46.3618 79.8422 47.1131 79.7779 47.9434C79.6755 49.3086 79.965 50.6885 80.6432 52.0859C81.3215 53.4833 82.3008 54.872 83.5813 56.2518C84.8588 57.6317 86.3498 58.9824 88.0513 60.2979C88.1156 60.3505 88.1887 60.3944 88.2764 60.4324C88.3611 60.4704 88.4371 60.4909 88.5073 60.4967C88.5804 60.5026 88.6623 60.4938 88.75 60.4704C88.8377 60.447 88.9195 60.4148 88.9955 60.371C90.8753 59.3244 92.5505 58.2135 94.021 57.0383C95.4915 55.8659 96.6667 54.6381 97.5496 53.3605C98.4295 52.083 98.9236 50.7587 99.0259 49.3963C99.0873 48.5661 99.0113 47.7943 98.7979 47.081C98.5845 46.3676 98.2541 45.7391 97.8098 45.1982L97.8039 45.1953Z" fill="white"/>
</g>
<path d="M26.1211 27.9941C26.2468 30.1166 26.7087 32.1835 27.5097 34.1509C28.0096 35.3846 28.6265 36.5686 29.3515 37.6971C28.6265 36.5686 28.0126 35.3846 27.5097 34.1509C26.7087 32.1805 26.2468 30.1166 26.1211 27.9941V27.9941Z" fill="url(#paint22_linear_1770_23776)"/>
<path d="M47.8086 4.46054C48.6944 4.28806 49.5948 4.15065 50.5099 4.04541C49.5948 4.15065 48.6944 4.28806 47.8086 4.46054Z" fill="url(#paint23_linear_1770_23776)"/>
<path d="M26.8477 21.3549C26.9207 21.1093 26.9997 20.8667 27.0815 20.624C26.9997 20.8667 26.9207 21.1093 26.8477 21.3549V21.3549Z" fill="url(#paint24_linear_1770_23776)"/>
<path d="M55.353 3.81688C55.1396 3.81396 54.9261 3.81104 54.7157 3.81104C53.2861 3.81104 51.8828 3.88997 50.5117 4.04491C51.8828 3.88997 53.2861 3.81104 54.7157 3.81104C54.9261 3.81104 55.1396 3.81104 55.353 3.81688Z" fill="url(#paint25_linear_1770_23776)"/>
<path d="M27.0781 20.624C27.1571 20.3931 27.2389 20.165 27.3266 19.9399C27.2389 20.168 27.1571 20.396 27.0781 20.624Z" fill="white"/>
<path d="M68.0508 6.34912C68.6121 6.58007 69.1558 6.83149 69.6938 7.08876C69.1558 6.83149 68.6121 6.58007 68.0508 6.34912Z" fill="white"/>
<path d="M68.0531 6.34796C67.6321 6.17255 67.2023 6.00592 66.7667 5.84513C65.4599 5.36568 64.1035 4.96809 62.7031 4.6582C64.1035 4.96809 65.457 5.36568 66.7667 5.84513C67.2023 6.00592 67.6292 6.17255 68.0531 6.34796Z" fill="white"/>
<path d="M26.8493 21.356C26.3669 22.996 26.1096 24.7033 26.0804 26.4662C26.0716 26.9807 26.0892 27.4894 26.1184 27.9981C26.0892 27.4894 26.0716 26.9807 26.0804 26.4662C26.1096 24.7033 26.3669 22.996 26.8493 21.356V21.356Z" fill="white"/>
<path d="M47.8085 4.46045C46.4813 4.72064 45.1862 5.05391 43.932 5.46904C43.0491 5.75846 42.1926 6.08005 41.3594 6.43086C42.1926 6.08005 43.0491 5.75846 43.932 5.46904C45.1862 5.05683 46.4784 4.72064 47.8085 4.46045V4.46045Z" fill="white"/>
<path d="M59.8586 4.15407C58.4027 3.95527 56.9088 3.84418 55.3828 3.81787C55.374 3.81787 55.3681 3.81787 55.3594 3.81787C55.3681 3.81787 55.374 3.81787 55.3828 3.81787C56.9117 3.84418 58.4056 3.95527 59.8615 4.15407H59.8586Z" fill="white"/>
<path d="M1.81889 131.06L22.2961 106.182H2.28828V103.19H26.814V105.889L6.45413 130.766H26.7553V133.759H1.81889V131.06ZM45.8505 134.346C43.66 134.346 41.6259 133.935 39.7484 133.113C37.8708 132.253 36.2475 131.099 34.8784 129.652C33.5094 128.165 32.4337 126.464 31.6514 124.547C30.9082 122.63 30.5366 120.577 30.5366 118.386C30.5366 115.531 31.182 112.91 32.4728 110.524C33.8027 108.138 35.6216 106.241 37.9295 104.833C40.2373 103.385 42.8581 102.662 45.7918 102.662C48.8037 102.662 51.4245 103.385 53.6541 104.833C55.9228 106.28 57.7026 108.197 58.9934 110.583C60.2842 112.93 60.9296 115.511 60.9296 118.328C60.9296 118.64 60.9296 118.953 60.9296 119.266C60.9296 119.54 60.9101 119.755 60.871 119.912H34.7024C34.898 122.102 35.5043 124.058 36.5213 125.779C37.5774 127.461 38.9269 128.811 40.5698 129.828C42.2518 130.806 44.0707 131.294 46.0265 131.294C48.0214 131.294 49.899 130.786 51.6592 129.769C53.4585 128.752 54.7102 127.422 55.4143 125.779L58.8761 126.718C58.2502 128.165 57.2919 129.476 56.001 130.649C54.7102 131.823 53.1847 132.742 51.4245 133.407C49.7034 134.033 47.8454 134.346 45.8505 134.346ZM34.5851 117.037H57.1745C57.0181 114.807 56.4118 112.851 55.3556 111.169C54.3386 109.487 52.9891 108.177 51.3071 107.238C49.6643 106.26 47.8454 105.771 45.8505 105.771C43.8555 105.771 42.0366 106.26 40.3938 107.238C38.7509 108.177 37.4014 109.507 36.3453 111.228C35.3283 112.91 34.7415 114.846 34.5851 117.037ZM67.2614 90.9268H71.2512V126.835C71.2512 128.361 71.525 129.358 72.0726 129.828C72.6203 130.297 73.2852 130.532 74.0676 130.532C74.7716 130.532 75.4757 130.453 76.1798 130.297C76.8839 130.141 77.4902 129.984 77.9987 129.828L78.7028 133.055C77.9596 133.368 77.0404 133.622 75.9451 133.817C74.889 134.013 73.9698 134.111 73.1875 134.111C71.3881 134.111 69.9408 133.583 68.8456 132.527C67.7895 131.471 67.2614 130.023 67.2614 128.185V90.9268ZM83.2477 90.9268H87.2376V126.835C87.2376 128.361 87.5114 129.358 88.059 129.828C88.6066 130.297 89.2716 130.532 90.0539 130.532C90.758 130.532 91.4621 130.453 92.1662 130.297C92.8703 130.141 93.4765 129.984 93.9851 129.828L94.6891 133.055C93.9459 133.368 93.0267 133.622 91.9315 133.817C90.8753 134.013 89.9561 134.111 89.1738 134.111C87.3745 134.111 85.9272 133.583 84.8319 132.527C83.7758 131.471 83.2477 130.023 83.2477 128.185V90.9268ZM112.084 134.346C109.893 134.346 107.859 133.935 105.982 133.113C104.143 132.253 102.539 131.099 101.17 129.652C99.8404 128.165 98.8038 126.483 98.0606 124.606C97.3174 122.689 96.9458 120.675 96.9458 118.562C96.9458 116.372 97.3174 114.338 98.0606 112.46C98.8038 110.543 99.8599 108.861 101.229 107.414C102.598 105.928 104.202 104.774 106.04 103.952C107.918 103.092 109.952 102.662 112.142 102.662C114.333 102.662 116.347 103.092 118.186 103.952C120.024 104.774 121.628 105.928 122.997 107.414C124.366 108.861 125.422 110.543 126.165 112.46C126.909 114.338 127.28 116.372 127.28 118.562C127.28 120.675 126.909 122.689 126.165 124.606C125.422 126.483 124.366 128.165 122.997 129.652C121.667 131.099 120.063 132.253 118.186 133.113C116.347 133.935 114.313 134.346 112.084 134.346ZM100.994 118.621C100.994 120.89 101.483 122.963 102.461 124.84C103.478 126.679 104.828 128.146 106.51 129.241C108.192 130.297 110.05 130.825 112.084 130.825C114.118 130.825 115.976 130.277 117.658 129.182C119.34 128.087 120.689 126.601 121.706 124.723C122.723 122.806 123.232 120.733 123.232 118.504C123.232 116.235 122.723 114.162 121.706 112.284C120.689 110.407 119.34 108.92 117.658 107.825C115.976 106.73 114.118 106.182 112.084 106.182C110.05 106.182 108.192 106.749 106.51 107.884C104.867 109.018 103.537 110.524 102.52 112.401C101.503 114.24 100.994 116.313 100.994 118.621Z" fill="#494949"/>
<path d="M47.3413 155.887H46.2292V146.286H47.3413V147.731H47.3784C47.6626 147.175 48.0703 146.755 48.6017 146.471C49.133 146.174 49.7138 146.026 50.344 146.026C50.7888 146.026 51.1657 146.076 51.4746 146.174C51.7835 146.273 52.043 146.409 52.2531 146.582C52.4755 146.743 52.6547 146.934 52.7906 147.157C52.9389 147.379 53.0624 147.62 53.1613 147.88C53.4825 147.249 53.9089 146.786 54.4402 146.489C54.9839 146.181 55.6017 146.026 56.2937 146.026C56.9486 146.026 57.4676 146.137 57.8506 146.36C58.246 146.57 58.5488 146.854 58.7588 147.212C58.9689 147.558 59.1048 147.96 59.1666 148.417C59.2407 148.874 59.2778 149.344 59.2778 149.826V155.887H58.1657V149.251C58.1657 148.559 58.0174 148.016 57.7209 147.62C57.4367 147.225 56.8992 147.027 56.1083 147.027C55.7006 147.027 55.3052 147.12 54.9221 147.305C54.5514 147.478 54.2239 147.75 53.9397 148.121C53.8162 148.281 53.7111 148.473 53.6247 148.695C53.5505 148.905 53.4887 149.128 53.4393 149.362C53.3899 149.597 53.3528 149.832 53.3281 150.067C53.3157 150.302 53.3096 150.518 53.3096 150.715V155.887H52.1975V149.251C52.1975 148.559 52.0492 148.016 51.7526 147.62C51.4684 147.225 50.9309 147.027 50.1401 147.027C49.7323 147.027 49.3369 147.12 48.9538 147.305C48.5831 147.478 48.2557 147.75 47.9715 148.121C47.8479 148.281 47.7429 148.473 47.6564 148.695C47.5823 148.905 47.5205 149.128 47.471 149.362C47.4216 149.597 47.3846 149.832 47.3598 150.067C47.3475 150.302 47.3413 150.518 47.3413 150.715V155.887ZM68.7679 150.419C68.7679 149.949 68.6999 149.511 68.564 149.103C68.4404 148.683 68.2489 148.324 67.9894 148.028C67.7422 147.719 67.4272 147.478 67.0441 147.305C66.661 147.12 66.2224 147.027 65.7281 147.027C65.2339 147.027 64.7952 147.12 64.4121 147.305C64.0414 147.49 63.7202 147.738 63.4483 148.046C63.1888 148.355 62.9788 148.714 62.8181 149.121C62.6575 149.529 62.5525 149.962 62.503 150.419H68.7679ZM62.503 151.346C62.503 151.865 62.571 152.359 62.7069 152.828C62.8428 153.286 63.0406 153.687 63.3 154.033C63.5719 154.367 63.9117 154.639 64.3195 154.849C64.7272 155.046 65.1968 155.145 65.7281 155.145C66.4572 155.145 67.0812 154.954 67.6001 154.571C68.1191 154.188 68.4651 153.644 68.6381 152.94H69.8799C69.744 153.397 69.5649 153.823 69.3424 154.219C69.12 154.602 68.842 154.941 68.5084 155.238C68.1747 155.522 67.7793 155.745 67.3221 155.905C66.8649 156.066 66.3336 156.146 65.7281 156.146C64.962 156.146 64.3009 156.016 63.7449 155.757C63.1888 155.497 62.7316 155.145 62.3733 154.7C62.0149 154.243 61.7493 153.712 61.5763 153.106C61.4033 152.489 61.3168 151.828 61.3168 151.123C61.3168 150.419 61.4157 149.758 61.6134 149.14C61.8234 148.522 62.1138 147.985 62.4845 147.527C62.8676 147.058 63.3309 146.693 63.8746 146.434C64.4183 146.162 65.0361 146.026 65.7281 146.026C67.0503 146.026 68.0882 146.483 68.842 147.398C69.5957 148.3 69.9664 149.616 69.9541 151.346H62.503ZM72.7652 152.884C72.9382 153.712 73.2471 154.299 73.6919 154.645C74.1491 154.979 74.7978 155.145 75.6381 155.145C76.0459 155.145 76.398 155.096 76.6946 154.997C76.9911 154.898 77.2321 154.768 77.4174 154.608C77.6152 154.435 77.7634 154.243 77.8623 154.033C77.9611 153.823 78.0106 153.601 78.0106 153.366C78.0106 152.896 77.8561 152.55 77.5472 152.328C77.2506 152.093 76.8738 151.914 76.4166 151.79C75.9594 151.655 75.4651 151.543 74.9338 151.457C74.4024 151.358 73.9082 151.216 73.451 151.031C72.9938 150.845 72.6107 150.58 72.3018 150.234C72.0052 149.888 71.857 149.399 71.857 148.769C71.857 147.966 72.1473 147.311 72.7281 146.805C73.3212 146.286 74.1553 146.026 75.2303 146.026C76.2683 146.026 77.1085 146.261 77.7511 146.73C78.406 147.188 78.8014 147.96 78.9373 149.047H77.8067C77.7078 148.306 77.4236 147.787 76.9541 147.49C76.4969 147.181 75.9161 147.027 75.2118 147.027C74.5075 147.027 73.9699 147.181 73.5992 147.49C73.2285 147.787 73.0432 148.182 73.0432 148.677C73.0432 149.109 73.1915 149.443 73.488 149.678C73.797 149.9 74.18 150.085 74.6372 150.234C75.0944 150.369 75.5887 150.493 76.12 150.604C76.6513 150.715 77.1456 150.876 77.6028 151.086C78.06 151.284 78.4369 151.556 78.7334 151.902C79.0423 152.248 79.1968 152.73 79.1968 153.347C79.1968 153.805 79.0979 154.212 78.9002 154.571C78.7025 154.917 78.4307 155.207 78.0847 155.442C77.7387 155.677 77.3248 155.85 76.8429 155.961C76.3733 156.084 75.8543 156.146 75.2859 156.146C74.7175 156.146 74.2109 156.06 73.7661 155.887C73.3336 155.726 72.9629 155.497 72.654 155.201C72.345 154.904 72.1041 154.558 71.9311 154.163C71.7581 153.768 71.6593 153.341 71.6345 152.884H72.7652ZM82.0326 152.884C82.2056 153.712 82.5146 154.299 82.9594 154.645C83.4166 154.979 84.0653 155.145 84.9056 155.145C85.3133 155.145 85.6655 155.096 85.9621 154.997C86.2586 154.898 86.4996 154.768 86.6849 154.608C86.8826 154.435 87.0309 154.243 87.1298 154.033C87.2286 153.823 87.278 153.601 87.278 153.366C87.278 152.896 87.1236 152.55 86.8147 152.328C86.5181 152.093 86.1412 151.914 85.684 151.79C85.2268 151.655 84.7326 151.543 84.2012 151.457C83.6699 151.358 83.1756 151.216 82.7184 151.031C82.2612 150.845 81.8782 150.58 81.5693 150.234C81.2727 149.888 81.1244 149.399 81.1244 148.769C81.1244 147.966 81.4148 147.311 81.9956 146.805C82.5887 146.286 83.4228 146.026 84.4978 146.026C85.5358 146.026 86.376 146.261 87.0185 146.73C87.6735 147.188 88.0689 147.96 88.2048 149.047H87.0742C86.9753 148.306 86.6911 147.787 86.2215 147.49C85.7644 147.181 85.1836 147.027 84.4793 147.027C83.7749 147.027 83.2374 147.181 82.8667 147.49C82.496 147.787 82.3107 148.182 82.3107 148.677C82.3107 149.109 82.459 149.443 82.7555 149.678C83.0644 149.9 83.4475 150.085 83.9047 150.234C84.3619 150.369 84.8561 150.493 85.3875 150.604C85.9188 150.715 86.4131 150.876 86.8703 151.086C87.3275 151.284 87.7043 151.556 88.0009 151.902C88.3098 152.248 88.4643 152.73 88.4643 153.347C88.4643 153.805 88.3654 154.212 88.1677 154.571C87.97 154.917 87.6982 155.207 87.3522 155.442C87.0062 155.677 86.5922 155.85 86.1103 155.961C85.6408 156.084 85.1218 156.146 84.5534 156.146C83.985 156.146 83.4784 156.06 83.0335 155.887C82.6011 155.726 82.2304 155.497 81.9214 155.201C81.6125 154.904 81.3716 154.558 81.1986 154.163C81.0256 153.768 80.9267 153.341 80.902 152.884H82.0326ZM97.602 150.419C97.602 149.949 97.534 149.511 97.3981 149.103C97.2746 148.683 97.083 148.324 96.8235 148.028C96.5764 147.719 96.2613 147.478 95.8783 147.305C95.4952 147.12 95.0565 147.027 94.5623 147.027C94.068 147.027 93.6293 147.12 93.2463 147.305C92.8756 147.49 92.5543 147.738 92.2825 148.046C92.023 148.355 91.8129 148.714 91.6523 149.121C91.4917 149.529 91.3866 149.962 91.3372 150.419H97.602ZM91.3372 151.346C91.3372 151.865 91.4052 152.359 91.5411 152.828C91.677 153.286 91.8747 153.687 92.1342 154.033C92.406 154.367 92.7458 154.639 93.1536 154.849C93.5614 155.046 94.0309 155.145 94.5623 155.145C95.2913 155.145 95.9153 154.954 96.4343 154.571C96.9533 154.188 97.2993 153.644 97.4723 152.94H98.7141C98.5782 153.397 98.399 153.823 98.1766 154.219C97.9542 154.602 97.6761 154.941 97.3425 155.238C97.0089 155.522 96.6135 155.745 96.1563 155.905C95.6991 156.066 95.1677 156.146 94.5623 156.146C93.7962 156.146 93.1351 156.016 92.579 155.757C92.023 155.497 91.5658 155.145 91.2074 154.7C90.8491 154.243 90.5834 153.712 90.4104 153.106C90.2375 152.489 90.151 151.828 90.151 151.123C90.151 150.419 90.2498 149.758 90.4475 149.14C90.6576 148.522 90.948 147.985 91.3187 147.527C91.7017 147.058 92.1651 146.693 92.7088 146.434C93.2525 146.162 93.8703 146.026 94.5623 146.026C95.8844 146.026 96.9224 146.483 97.6761 147.398C98.4299 148.3 98.8006 149.616 98.7882 151.346H91.3372ZM102.063 155.887H100.951V146.286H102.063V147.62C102.508 147.151 102.965 146.768 103.434 146.471C103.916 146.174 104.491 146.026 105.158 146.026C105.751 146.026 106.301 146.131 106.808 146.341C107.314 146.539 107.741 146.891 108.087 147.398C108.321 147.744 108.457 148.102 108.494 148.473C108.544 148.831 108.568 149.208 108.568 149.603V155.887H107.456V149.622C107.456 148.757 107.265 148.108 106.882 147.676C106.499 147.243 105.862 147.027 104.973 147.027C104.627 147.027 104.312 147.083 104.027 147.194C103.743 147.293 103.484 147.429 103.249 147.602C103.027 147.775 102.835 147.972 102.674 148.195C102.514 148.417 102.39 148.652 102.304 148.899C102.192 149.208 102.124 149.505 102.1 149.789C102.075 150.073 102.063 150.382 102.063 150.715V155.887ZM118.664 151.123C118.664 150.542 118.59 150.005 118.441 149.511C118.305 149.004 118.102 148.572 117.83 148.213C117.558 147.843 117.218 147.552 116.81 147.342C116.403 147.132 115.939 147.027 115.42 147.027C114.951 147.027 114.518 147.114 114.123 147.287C113.727 147.447 113.381 147.688 113.085 148.009C112.788 148.331 112.553 148.726 112.38 149.196C112.22 149.653 112.139 150.184 112.139 150.79C112.115 151.395 112.164 151.963 112.288 152.495C112.411 153.014 112.609 153.471 112.881 153.866C113.153 154.262 113.499 154.577 113.919 154.812C114.339 155.034 114.839 155.145 115.42 155.145C115.927 155.145 116.378 155.04 116.773 154.83C117.181 154.608 117.521 154.317 117.793 153.959C118.077 153.588 118.293 153.162 118.441 152.68C118.59 152.186 118.664 151.667 118.664 151.123ZM118.664 146.286H119.776V154.96C119.776 155.603 119.708 156.214 119.572 156.795C119.448 157.388 119.22 157.907 118.886 158.352C118.553 158.797 118.095 159.149 117.515 159.408C116.934 159.68 116.186 159.816 115.272 159.816C114.568 159.816 113.962 159.723 113.455 159.538C112.949 159.365 112.535 159.143 112.214 158.871C111.892 158.599 111.645 158.296 111.472 157.963C111.312 157.641 111.225 157.339 111.213 157.054H112.399C112.485 157.413 112.621 157.703 112.807 157.926C112.992 158.16 113.208 158.34 113.455 158.463C113.715 158.599 113.999 158.692 114.308 158.741C114.617 158.791 114.938 158.815 115.272 158.815C116.026 158.815 116.631 158.685 117.088 158.426C117.546 158.167 117.892 157.827 118.126 157.407C118.361 156.986 118.509 156.511 118.571 155.979C118.645 155.448 118.676 154.904 118.664 154.348C118.305 154.941 117.811 155.392 117.181 155.701C116.563 155.998 115.914 156.146 115.235 156.146C114.506 156.146 113.869 156.01 113.326 155.738C112.794 155.454 112.35 155.084 111.991 154.626C111.645 154.157 111.386 153.613 111.213 152.995C111.04 152.377 110.953 151.735 110.953 151.068C110.953 150.363 111.034 149.702 111.194 149.084C111.355 148.467 111.608 147.935 111.954 147.49C112.312 147.033 112.764 146.675 113.307 146.415C113.851 146.156 114.512 146.026 115.29 146.026C115.599 146.026 115.914 146.069 116.236 146.156C116.557 146.242 116.866 146.366 117.162 146.527C117.471 146.687 117.749 146.891 117.997 147.138C118.256 147.385 118.466 147.663 118.627 147.972H118.664V146.286ZM129.531 150.419C129.531 149.949 129.463 149.511 129.327 149.103C129.204 148.683 129.012 148.324 128.753 148.028C128.506 147.719 128.191 147.478 127.808 147.305C127.425 147.12 126.986 147.027 126.492 147.027C125.997 147.027 125.559 147.12 125.176 147.305C124.805 147.49 124.484 147.738 124.212 148.046C123.952 148.355 123.742 148.714 123.582 149.121C123.421 149.529 123.316 149.962 123.267 150.419H129.531ZM123.267 151.346C123.267 151.865 123.335 152.359 123.47 152.828C123.606 153.286 123.804 153.687 124.064 154.033C124.335 154.367 124.675 154.639 125.083 154.849C125.491 155.046 125.96 155.145 126.492 155.145C127.221 155.145 127.845 154.954 128.364 154.571C128.883 154.188 129.229 153.644 129.402 152.94H130.643C130.508 153.397 130.328 153.823 130.106 154.219C129.884 154.602 129.605 154.941 129.272 155.238C128.938 155.522 128.543 155.745 128.086 155.905C127.628 156.066 127.097 156.146 126.492 156.146C125.726 156.146 125.064 156.016 124.508 155.757C123.952 155.497 123.495 155.145 123.137 154.7C122.778 154.243 122.513 153.712 122.34 153.106C122.167 152.489 122.08 151.828 122.08 151.123C122.08 150.419 122.179 149.758 122.377 149.14C122.587 148.522 122.877 147.985 123.248 147.527C123.631 147.058 124.094 146.693 124.638 146.434C125.182 146.162 125.8 146.026 126.492 146.026C127.814 146.026 128.852 146.483 129.605 147.398C130.359 148.3 130.73 149.616 130.718 151.346H123.267ZM134.048 155.887H132.936V146.286H134.048V148.084H134.085C134.394 147.317 134.789 146.786 135.271 146.489C135.765 146.181 136.414 146.026 137.217 146.026V147.231C136.587 147.219 136.068 147.317 135.66 147.527C135.252 147.738 134.925 148.022 134.678 148.38C134.443 148.738 134.276 149.165 134.177 149.659C134.091 150.141 134.048 150.648 134.048 151.179V155.887Z" fill="#494949"/>
<defs>
<filter id="filter0_d_1770_23776" x="40.5287" y="14.7969" width="27.1042" height="27.1027" filterUnits="userSpaceOnUse" color-interpolation-filters="sRGB">
<feFlood flood-opacity="0" result="BackgroundImageFix"/>
<feColorMatrix in="SourceAlpha" type="matrix" values="0 0 0 0 0 0 0 0 0 0 0 0 0 0 0 0 0 0 127 0" result="hardAlpha"/>
<feOffset dx="-0.905592" dy="0.905592"/>
<feGaussianBlur stdDeviation="0.452796"/>
<feColorMatrix type="matrix" values="0 0 0 0 0 0 0 0 0 0 0 0 0 0 0 0 0 0 0.2 0"/>
<feBlend mode="normal" in2="BackgroundImageFix" result="effect1_dropShadow_1770_23776"/>
<feBlend mode="normal" in="SourceGraphic" in2="effect1_dropShadow_1770_23776" result="shape"/>
</filter>
<filter id="filter1_d_1770_23776" x="20.4505" y="0" width="95.7682" height="80.4367" filterUnits="userSpaceOnUse" color-interpolation-filters="sRGB">
<feFlood flood-opacity="0" result="BackgroundImageFix"/>
<feColorMatrix in="SourceAlpha" type="matrix" values="0 0 0 0 0 0 0 0 0 0 0 0 0 0 0 0 0 0 127 0" result="hardAlpha"/>
<feOffset dx="-0.905592" dy="0.905592"/>
<feGaussianBlur stdDeviation="0.452796"/>
<feColorMatrix type="matrix" values="0 0 0 0 0 0 0 0 0 0 0 0 0 0 0 0 0 0 0.25 0"/>
<feBlend mode="normal" in2="BackgroundImageFix" result="effect1_dropShadow_1770_23776"/>
<feBlend mode="normal" in="SourceGraphic" in2="effect1_dropShadow_1770_23776" result="shape"/>
</filter>
<filter id="filter2_d_1770_23776" x="77.9466" y="42.6548" width="21.1002" height="19.6549" filterUnits="userSpaceOnUse" color-interpolation-filters="sRGB">
<feFlood flood-opacity="0" result="BackgroundImageFix"/>
<feColorMatrix in="SourceAlpha" type="matrix" values="0 0 0 0 0 0 0 0 0 0 0 0 0 0 0 0 0 0 127 0" result="hardAlpha"/>
<feOffset dx="-0.905592" dy="0.905592"/>
<feGaussianBlur stdDeviation="0.452796"/>
<feColorMatrix type="matrix" values="0 0 0 0 0 0 0 0 0 0 0 0 0 0 0 0 0 0 0.2 0"/>
<feBlend mode="normal" in2="BackgroundImageFix" result="effect1_dropShadow_1770_23776"/>
<feBlend mode="normal" in="SourceGraphic" in2="effect1_dropShadow_1770_23776" result="shape"/>
</filter>
<linearGradient id="paint0_linear_1770_23776" x1="37.5329" y1="-24.9591" x2="37.5329" y2="103.593" gradientUnits="userSpaceOnUse">
<stop stop-color="#27C5DA"/>
<stop offset="1" stop-color="#05A0F0"/>
</linearGradient>
<linearGradient id="paint1_linear_1770_23776" x1="34.3473" y1="-24.958" x2="34.3473" y2="103.592" gradientUnits="userSpaceOnUse">
<stop stop-color="#27C5DA"/>
<stop offset="1" stop-color="#05A0F0"/>
</linearGradient>
<linearGradient id="paint2_linear_1770_23776" x1="39.7365" y1="-24.9583" x2="39.7365" y2="103.592" gradientUnits="userSpaceOnUse">
<stop stop-color="#27C5DA"/>
<stop offset="1" stop-color="#05A0F0"/>
</linearGradient>
<linearGradient id="paint3_linear_1770_23776" x1="39.0389" y1="-24.9589" x2="39.0389" y2="103.592" gradientUnits="userSpaceOnUse">
<stop stop-color="#27C5DA"/>
<stop offset="1" stop-color="#05A0F0"/>
</linearGradient>
<linearGradient id="paint4_linear_1770_23776" x1="32.744" y1="-24.9586" x2="32.744" y2="103.592" gradientUnits="userSpaceOnUse">
<stop stop-color="#27C5DA"/>
<stop offset="1" stop-color="#05A0F0"/>
</linearGradient>
<linearGradient id="paint5_linear_1770_23776" x1="35.9078" y1="-24.9593" x2="35.9078" y2="103.591" gradientUnits="userSpaceOnUse">
<stop stop-color="#27C5DA"/>
<stop offset="1" stop-color="#05A0F0"/>
</linearGradient>
<linearGradient id="paint6_linear_1770_23776" x1="65.0651" y1="-24.9588" x2="65.0651" y2="103.592" gradientUnits="userSpaceOnUse">
<stop stop-color="#27C5DA"/>
<stop offset="1" stop-color="#05A0F0"/>
</linearGradient>
<linearGradient id="paint7_linear_1770_23776" x1="41.4908" y1="-24.9593" x2="41.4908" y2="103.592" gradientUnits="userSpaceOnUse">
<stop stop-color="#27C5DA"/>
<stop offset="1" stop-color="#05A0F0"/>
</linearGradient>
<linearGradient id="paint8_linear_1770_23776" x1="83.2899" y1="-24.9579" x2="83.2899" y2="103.592" gradientUnits="userSpaceOnUse">
<stop stop-color="#27C5DA"/>
<stop offset="1" stop-color="#05A0F0"/>
</linearGradient>
<linearGradient id="paint9_linear_1770_23776" x1="82.7331" y1="-24.9583" x2="82.7331" y2="103.592" gradientUnits="userSpaceOnUse">
<stop stop-color="#27C5DA"/>
<stop offset="1" stop-color="#05A0F0"/>
</linearGradient>
<linearGradient id="paint10_linear_1770_23776" x1="76.1523" y1="-24.9586" x2="76.1523" y2="103.592" gradientUnits="userSpaceOnUse">
<stop stop-color="#27C5DA"/>
<stop offset="1" stop-color="#05A0F0"/>
</linearGradient>
<linearGradient id="paint11_linear_1770_23776" x1="34.0281" y1="-24.9582" x2="34.0281" y2="103.592" gradientUnits="userSpaceOnUse">
<stop stop-color="#27C5DA"/>
<stop offset="1" stop-color="#05A0F0"/>
</linearGradient>
<linearGradient id="paint12_linear_1770_23776" x1="75.3647" y1="-24.959" x2="75.3647" y2="103.591" gradientUnits="userSpaceOnUse">
<stop stop-color="#27C5DA"/>
<stop offset="1" stop-color="#05A0F0"/>
</linearGradient>
<linearGradient id="paint13_linear_1770_23776" x1="61.4299" y1="-24.9596" x2="61.4299" y2="103.592" gradientUnits="userSpaceOnUse">
<stop stop-color="#27C5DA"/>
<stop offset="1" stop-color="#05A0F0"/>
</linearGradient>
<linearGradient id="paint14_linear_1770_23776" x1="55.9407" y1="-24.96" x2="55.9407" y2="103.593" gradientUnits="userSpaceOnUse">
<stop stop-color="#27C5DA"/>
<stop offset="1" stop-color="#05A0F0"/>
</linearGradient>
<linearGradient id="paint15_linear_1770_23776" x1="62.7566" y1="-24.959" x2="62.7566" y2="103.591" gradientUnits="userSpaceOnUse">
<stop stop-color="#27C5DA"/>
<stop offset="1" stop-color="#05A0F0"/>
</linearGradient>
<linearGradient id="paint16_linear_1770_23776" x1="62.3105" y1="-24.958" x2="62.3105" y2="103.592" gradientUnits="userSpaceOnUse">
<stop stop-color="#27C5DA"/>
<stop offset="1" stop-color="#05A0F0"/>
</linearGradient>
<linearGradient id="paint17_linear_1770_23776" x1="51.084" y1="-24.959" x2="51.084" y2="103.592" gradientUnits="userSpaceOnUse">
<stop stop-color="#27C5DA"/>
<stop offset="1" stop-color="#05A0F0"/>
</linearGradient>
<linearGradient id="paint18_linear_1770_23776" x1="89.2429" y1="-24.9588" x2="89.2429" y2="103.592" gradientUnits="userSpaceOnUse">
<stop stop-color="#27C5DA"/>
<stop offset="1" stop-color="#05A0F0"/>
</linearGradient>
<linearGradient id="paint19_linear_1770_23776" x1="43.7603" y1="-24.9586" x2="43.7603" y2="103.592" gradientUnits="userSpaceOnUse">
<stop stop-color="#27C5DA"/>
<stop offset="1" stop-color="#05A0F0"/>
</linearGradient>
<linearGradient id="paint20_linear_1770_23776" x1="37.9209" y1="-24.9589" x2="37.9209" y2="103.591" gradientUnits="userSpaceOnUse">
<stop stop-color="#27C5DA"/>
<stop offset="1" stop-color="#05A0F0"/>
</linearGradient>
<linearGradient id="paint21_linear_1770_23776" x1="54.9905" y1="-24.9587" x2="54.9905" y2="103.592" gradientUnits="userSpaceOnUse">
<stop stop-color="#27C5DA"/>
<stop offset="1" stop-color="#05A0F0"/>
</linearGradient>
<linearGradient id="paint22_linear_1770_23776" x1="27.7348" y1="-24.9585" x2="27.7348" y2="103.592" gradientUnits="userSpaceOnUse">
<stop stop-color="#27C5DA"/>
<stop offset="1" stop-color="#05A0F0"/>
</linearGradient>
<linearGradient id="paint23_linear_1770_23776" x1="49.1592" y1="-24.9582" x2="49.1592" y2="103.592" gradientUnits="userSpaceOnUse">
<stop stop-color="#27C5DA"/>
<stop offset="1" stop-color="#05A0F0"/>
</linearGradient>
<linearGradient id="paint24_linear_1770_23776" x1="26.9646" y1="-24.9586" x2="26.9646" y2="103.592" gradientUnits="userSpaceOnUse">
<stop stop-color="#27C5DA"/>
<stop offset="1" stop-color="#05A0F0"/>
</linearGradient>
<linearGradient id="paint25_linear_1770_23776" x1="52.9294" y1="-24.9587" x2="52.9294" y2="103.592" gradientUnits="userSpaceOnUse">
<stop stop-color="#27C5DA"/>
<stop offset="1" stop-color="#05A0F0"/>
</linearGradient>
</defs>
</svg>
