<svg width="44" height="44" viewBox="0 0 44 44" fill="none" xmlns="http://www.w3.org/2000/svg">
<g filter="url(#filter0_d_1721_23175)">
<rect x="2" y="1" width="36" height="36" rx="18" fill="white" shape-rendering="crispEdges"/>
<path d="M15.0324 21.1043H19.9895C20.2285 21.1043 20.4254 21.0234 20.5801 20.8617C20.7418 20.7 20.8227 20.5031 20.8227 20.2711V13.8164C20.8227 13.5844 20.7418 13.3875 20.5801 13.2258C20.4254 13.064 20.2285 12.9832 19.9895 12.9832C19.7574 12.9832 19.5605 13.064 19.3988 13.2258C19.2371 13.3875 19.1562 13.5844 19.1562 13.8164V19.4379H15.0324C14.7934 19.4379 14.593 19.5187 14.4312 19.6805C14.2695 19.8422 14.1887 20.0391 14.1887 20.2711C14.1887 20.5031 14.2695 20.7 14.4312 20.8617C14.593 21.0234 14.7934 21.1043 15.0324 21.1043ZM20 30.1641C21.4203 30.1641 22.7527 29.8934 23.9973 29.352C25.2488 28.8105 26.3527 28.0617 27.309 27.1055C28.2652 26.1562 29.0141 25.0559 29.5555 23.8043C30.0969 22.5527 30.3676 21.2168 30.3676 19.7965C30.3676 18.3762 30.0934 17.0437 29.5449 15.7992C29.0035 14.5476 28.2547 13.4437 27.2984 12.4875C26.3492 11.5312 25.2488 10.7859 23.9973 10.2515C22.7457 9.71014 21.4098 9.43944 19.9895 9.43944C18.5762 9.43944 17.2437 9.71014 15.9922 10.2515C14.7406 10.7859 13.6367 11.5312 12.6805 12.4875C11.7312 13.4437 10.9859 14.5476 10.4445 15.7992C9.90312 17.0437 9.63241 18.3762 9.63241 19.7965C9.63241 21.2168 9.90312 22.5527 10.4445 23.8043C10.9859 25.0559 11.7312 26.1562 12.6805 27.1055C13.6367 28.0617 14.7406 28.8105 15.9922 29.352C17.2437 29.8934 18.5797 30.1641 20 30.1641ZM20 27.9809C18.868 27.9809 17.8062 27.7699 16.8148 27.348C15.8234 26.9262 14.9516 26.3426 14.1992 25.5973C13.4539 24.8449 12.8703 23.973 12.4484 22.9816C12.0266 21.9902 11.8156 20.9285 11.8156 19.7965C11.8156 18.6644 12.0266 17.6027 12.4484 16.6113C12.8703 15.6199 13.4539 14.7516 14.1992 14.0062C14.9516 13.2539 15.8199 12.6668 16.8043 12.2449C17.7957 11.823 18.8574 11.6121 19.9895 11.6121C21.1285 11.6121 22.1902 11.823 23.1746 12.2449C24.166 12.6668 25.0344 13.2539 25.7797 14.0062C26.532 14.7516 27.1191 15.6199 27.541 16.6113C27.9699 17.6027 28.1844 18.6644 28.1844 19.7965C28.1914 20.9285 27.9805 21.9902 27.5516 22.9816C27.1297 23.973 26.5461 24.8449 25.8008 25.5973C25.0555 26.3426 24.1871 26.9262 23.1957 27.348C22.2043 27.7699 21.1391 27.9809 20 27.9809Z" fill="url(#paint0_linear_1721_23175)"/>
</g>
<defs>
<filter id="filter0_d_1721_23175" x="0.0540525" y="0.0270264" width="43.7838" height="43.7838" filterUnits="userSpaceOnUse" color-interpolation-filters="sRGB">
<feFlood flood-opacity="0" result="BackgroundImageFix"/>
<feColorMatrix in="SourceAlpha" type="matrix" values="0 0 0 0 0 0 0 0 0 0 0 0 0 0 0 0 0 0 127 0" result="hardAlpha"/>
<feOffset dx="1.94595" dy="2.91892"/>
<feGaussianBlur stdDeviation="1.94595"/>
<feComposite in2="hardAlpha" operator="out"/>
<feColorMatrix type="matrix" values="0 0 0 0 0.516667 0 0 0 0 0.516667 0 0 0 0 0.516667 0 0 0 0.2 0"/>
<feBlend mode="normal" in2="BackgroundImageFix" result="effect1_dropShadow_1721_23175"/>
<feBlend mode="normal" in="SourceGraphic" in2="effect1_dropShadow_1721_23175" result="shape"/>
</filter>
<linearGradient id="paint0_linear_1721_23175" x1="20" y1="6" x2="20" y2="32" gradientUnits="userSpaceOnUse">
<stop stop-color="#2ABEBE"/>
<stop offset="1" stop-color="#08A5F1"/>
</linearGradient>
</defs>
</svg>
