<svg width="213" height="67" viewBox="0 0 213 67" fill="none" xmlns="http://www.w3.org/2000/svg">
<g filter="url(#filter0_d_1721_23378)">
<path d="M13.9703 21.9893C14.9678 46.9273 12.9727 51.9149 2 59.8951C18.8899 60.8886 22.9157 54.6255 25.9045 49.976L25.9405 49.9199L13.9703 21.9893Z" fill="white"/>
<rect x="11.9766" y="1" width="195" height="59" rx="29.5" fill="white"/>
<path d="M32.096 28H35.5504C38.2649 28 39.8635 26.3136 39.8635 23.4423V23.4298C39.8635 20.5648 38.2586 18.9536 35.5504 18.9536H32.096V28ZM33.9893 26.4327V20.5146H35.3247C36.986 20.5146 37.9326 21.549 37.9326 23.436V23.4486C37.9326 25.4046 37.0173 26.4327 35.3247 26.4327H33.9893ZM40.9293 28H42.7599V24.2385C42.7599 23.2605 43.2865 22.7214 44.1893 22.7214C44.4526 22.7214 44.7033 22.759 44.8538 22.8217V21.2105C44.7159 21.1729 44.5278 21.1415 44.3272 21.1415C43.5435 21.1415 42.9981 21.6243 42.7975 22.4518H42.7599V21.2795H40.9293V28ZM45.8694 28.1066C46.4336 28.1066 46.885 27.6552 46.885 27.091C46.885 26.5205 46.4336 26.0754 45.8694 26.0754C45.2989 26.0754 44.8538 26.5205 44.8538 27.091C44.8538 27.6552 45.2989 28.1066 45.8694 28.1066ZM49.9632 28H51.8565V24.4391H55.5365V22.9408H51.8565V20.5146H55.8875V18.9536H49.9632V28ZM59.7243 28.1379C61.6426 28.1379 62.5705 27.0032 62.7773 26.0127L62.7961 25.9437H61.116L61.1035 25.9813C60.9718 26.3575 60.5142 26.7712 59.7619 26.7712C58.8278 26.7712 58.2447 26.1443 58.2259 25.0723H62.8526V24.5081C62.8526 22.4769 61.6175 21.1415 59.649 21.1415C57.6805 21.1415 56.4204 22.5082 56.4204 24.646V24.6523C56.4204 26.8026 57.668 28.1379 59.7243 28.1379ZM59.6804 22.5082C60.4389 22.5082 60.9844 22.9909 61.0972 23.9188H58.2447C58.3638 23.0097 58.9281 22.5082 59.6804 22.5082ZM63.7992 28H65.6298V24.2385C65.6298 23.2605 66.1564 22.7214 67.0592 22.7214C67.3225 22.7214 67.5732 22.759 67.7237 22.8217V21.2105C67.5858 21.1729 67.3977 21.1415 67.1971 21.1415C66.4134 21.1415 65.868 21.6243 65.6674 22.4518H65.6298V21.2795H63.7992V28ZM68.476 28H70.3066V24.1382C70.3066 23.2605 70.8269 22.6587 71.6482 22.6587C72.4695 22.6587 72.8832 23.1602 72.8832 24.0379V28H74.7138V23.6617C74.7138 22.0882 73.8738 21.1415 72.3942 21.1415C71.3786 21.1415 70.689 21.6117 70.3442 22.3828H70.3066V21.2795H68.476V28ZM77.8735 28.1066C78.7574 28.1066 79.4721 27.6865 79.8545 26.9969H79.8922V28H81.7227V23.3922C81.7227 22.038 80.6006 21.1415 78.864 21.1415C77.0898 21.1415 76.0241 22.0318 75.9238 23.2731L75.9175 23.3483H77.5914L77.6039 23.2919C77.6917 22.8593 78.1054 22.5396 78.7888 22.5396C79.5035 22.5396 79.8922 22.9094 79.8922 23.505V23.9188L78.2308 24.0191C76.5632 24.1257 75.6166 24.8403 75.6166 26.0628V26.0754C75.6166 27.2602 76.5256 28.1066 77.8735 28.1066ZM77.4284 25.9813V25.9688C77.4284 25.4923 77.7983 25.1914 78.5067 25.1475L79.8922 25.0598V25.5425C79.8922 26.2446 79.2903 26.7712 78.4691 26.7712C77.8359 26.7712 77.4284 26.4766 77.4284 25.9813ZM82.9076 28H84.7382V24.1382C84.7382 23.2605 85.2586 22.6587 86.0798 22.6587C86.9011 22.6587 87.3148 23.1602 87.3148 24.0379V28H89.1454V23.6617C89.1454 22.0882 88.3054 21.1415 86.8258 21.1415C85.8102 21.1415 85.1206 21.6117 84.7758 22.3828H84.7382V21.2795H82.9076V28ZM92.7941 28.1379C93.7658 28.1379 94.5056 27.6489 94.8629 26.8527H94.9005V28H96.7311V18.9536H94.9005V22.4455H94.8629C94.4993 21.6305 93.747 21.1415 92.7941 21.1415C91.1014 21.1415 90.0607 22.4455 90.0607 24.6335V24.6397C90.0607 26.8214 91.1014 28.1379 92.7941 28.1379ZM93.4085 26.6208C92.4932 26.6208 91.9227 25.8622 91.9227 24.6397V24.6335C91.9227 23.4047 92.4994 22.6587 93.4085 22.6587C94.2924 22.6587 94.9068 23.4235 94.9068 24.6335V24.6397C94.9068 25.8559 94.2987 26.6208 93.4085 26.6208ZM101.038 28.1379C103.069 28.1379 104.367 26.8339 104.367 24.6397V24.6272C104.367 22.4518 103.044 21.1415 101.032 21.1415C99.0256 21.1415 97.7091 22.4643 97.7091 24.6272V24.6397C97.7091 26.8277 98.9943 28.1379 101.038 28.1379ZM101.044 26.7023C100.142 26.7023 99.5711 25.9563 99.5711 24.6397V24.6272C99.5711 23.3295 100.148 22.5772 101.032 22.5772C101.922 22.5772 102.505 23.3295 102.505 24.6272V24.6397C102.505 25.95 101.935 26.7023 101.044 26.7023ZM108.016 28H109.702V21.8813H109.752L112.197 28H113.388L115.827 21.8813H115.883V28H117.57V18.9536H115.382L112.812 25.4547H112.774L110.204 18.9536H108.016V28ZM120.78 28.1066C121.664 28.1066 122.378 27.6865 122.761 26.9969H122.798V28H124.629V23.3922C124.629 22.038 123.507 21.1415 121.77 21.1415C119.996 21.1415 118.93 22.0318 118.83 23.2731L118.824 23.3483H120.498L120.51 23.2919C120.598 22.8593 121.012 22.5396 121.695 22.5396C122.41 22.5396 122.798 22.9094 122.798 23.505V23.9188L121.137 24.0191C119.469 24.1257 118.523 24.8403 118.523 26.0628V26.0754C118.523 27.2602 119.432 28.1066 120.78 28.1066ZM120.335 25.9813V25.9688C120.335 25.4923 120.704 25.1914 121.413 25.1475L122.798 25.0598V25.5425C122.798 26.2446 122.196 26.7712 121.375 26.7712C120.742 26.7712 120.335 26.4766 120.335 25.9813ZM128.102 28.1379C129.118 28.1379 129.807 27.6615 130.152 26.8904H130.19V28H132.02V21.2795H130.19V25.1413C130.19 26.0189 129.669 26.6208 128.848 26.6208C128.027 26.6208 127.613 26.113 127.613 25.2353V21.2795H125.782V25.6177C125.782 27.1913 126.622 28.1379 128.102 28.1379ZM133.211 28H135.042V24.2385C135.042 23.2605 135.569 22.7214 136.471 22.7214C136.735 22.7214 136.985 22.759 137.136 22.8217V21.2105C136.998 21.1729 136.81 21.1415 136.609 21.1415C135.826 21.1415 135.28 21.6243 135.08 22.4518H135.042V21.2795H133.211V28ZM140.747 28.1379C142.778 28.1379 144.076 26.8339 144.076 24.6397V24.6272C144.076 22.4518 142.753 21.1415 140.741 21.1415C138.735 21.1415 137.418 22.4643 137.418 24.6272V24.6397C137.418 26.8277 138.703 28.1379 140.747 28.1379ZM140.753 26.7023C139.85 26.7023 139.28 25.9563 139.28 24.6397V24.6272C139.28 23.3295 139.857 22.5772 140.741 22.5772C141.631 22.5772 142.214 23.3295 142.214 24.6272V24.6397C142.214 25.95 141.643 26.7023 140.753 26.7023Z" fill="#7ECBF2"/>
<path d="M144.696 29.7742H145.474L146.389 26.7086H145.248L144.696 29.7742ZM152.602 28.1254C154.075 28.1254 155.147 27.1662 155.323 25.9249L155.329 25.881H154.257L154.244 25.9312C154.063 26.6584 153.492 27.1599 152.602 27.1599C151.473 27.1599 150.696 26.2634 150.696 24.7463V24.74C150.696 23.2605 151.455 22.3201 152.589 22.3201C153.549 22.3201 154.075 22.8969 154.238 23.5489L154.251 23.599H155.316L155.31 23.5489C155.172 22.433 154.213 21.3547 152.589 21.3547C150.778 21.3547 149.58 22.6712 149.58 24.7275V24.7338C149.58 26.8089 150.753 28.1254 152.602 28.1254ZM156.946 20.3767C157.329 20.3767 157.63 20.0695 157.63 19.6934C157.63 19.3109 157.329 19.01 156.946 19.01C156.57 19.01 156.263 19.3109 156.263 19.6934C156.263 20.0695 156.57 20.3767 156.946 20.3767ZM156.401 28H157.492V21.4801H156.401V28ZM158.978 28H160.068V23.9752C160.068 22.9847 160.62 22.3954 161.467 22.3954C161.73 22.3954 161.962 22.4267 162.05 22.4581V21.3986C161.962 21.386 161.799 21.3547 161.611 21.3547C160.877 21.3547 160.313 21.8311 160.094 22.5834H160.068V21.4801H158.978V28ZM165.165 28.1254C166.156 28.1254 166.82 27.6803 167.171 27.0722H167.197V28H168.287V21.4801H167.197V25.3168C167.197 26.4264 166.526 27.1599 165.498 27.1599C164.495 27.1599 163.999 26.5769 163.999 25.5174V21.4801H162.908V25.7118C162.908 27.1975 163.736 28.1254 165.165 28.1254ZM169.71 28H170.801V23.9752C170.801 22.9847 171.353 22.3954 172.199 22.3954C172.463 22.3954 172.695 22.4267 172.782 22.4581V21.3986C172.695 21.386 172.532 21.3547 172.344 21.3547C171.61 21.3547 171.046 21.8311 170.826 22.5834H170.801V21.4801H169.71V28ZM176.118 30.3196C177.885 30.3196 178.995 29.3291 178.995 27.8182V21.4801H177.904V22.5834H177.879C177.478 21.8562 176.751 21.3547 175.829 21.3547C174.174 21.3547 173.039 22.6712 173.039 24.6962V24.7024C173.039 26.7399 174.162 28.0627 175.804 28.0627C176.738 28.0627 177.49 27.5988 177.879 26.8778H177.904V27.7116C177.904 28.721 177.252 29.3541 176.105 29.3541C175.215 29.3541 174.594 29.0658 174.387 28.5956L174.362 28.5391H173.265L173.278 28.5956C173.491 29.561 174.506 30.3196 176.118 30.3196ZM176.042 27.0972C174.883 27.0972 174.155 26.1819 174.155 24.7024V24.6962C174.155 23.248 174.883 22.3201 176.042 22.3201C177.146 22.3201 177.904 23.2605 177.904 24.6962V24.7024C177.904 26.1506 177.152 27.0972 176.042 27.0972ZM181.02 20.3767C181.402 20.3767 181.703 20.0695 181.703 19.6934C181.703 19.3109 181.402 19.01 181.02 19.01C180.644 19.01 180.337 19.3109 180.337 19.6934C180.337 20.0695 180.644 20.3767 181.02 20.3767ZM180.475 28H181.565V21.4801H180.475V28ZM186.493 20.7215C187.114 20.7215 187.484 20.1886 187.484 19.1291V19.0539H186.719V19.1166C186.719 19.6495 186.618 19.9002 186.38 19.9002C186.192 19.9002 186.004 19.7561 185.791 19.5742L185.565 19.3799C185.333 19.1793 185.064 19.0414 184.713 19.0414C184.092 19.0414 183.722 19.5742 183.722 20.6337V20.709H184.487V20.6463C184.487 20.1134 184.587 19.8626 184.825 19.8626C185.007 19.8626 185.183 20.0131 185.39 20.1886L185.615 20.383C185.847 20.5836 186.136 20.7215 186.493 20.7215ZM184.957 28.1254C185.828 28.1254 186.612 27.6552 186.995 26.9405H187.02V28H188.11V23.4925C188.11 22.1885 187.145 21.3547 185.603 21.3547C184.067 21.3547 183.133 22.2198 183.039 23.2919L183.032 23.3608H184.086L184.098 23.3044C184.224 22.7214 184.75 22.3201 185.59 22.3201C186.499 22.3201 187.02 22.8029 187.02 23.599V24.1445L185.151 24.251C183.653 24.3388 182.788 25.0347 182.788 26.1443V26.1569C182.788 27.3417 183.659 28.1254 184.957 28.1254ZM183.904 26.1569V26.1443C183.904 25.5362 184.405 25.1475 185.277 25.0974L187.02 24.9908V25.5237C187.02 26.4703 186.23 27.1787 185.202 27.1787C184.418 27.1787 183.904 26.7838 183.904 26.1569ZM192.198 28.1254C193.997 28.1254 195.213 26.8214 195.213 24.74V24.7275C195.213 22.6461 193.991 21.3547 192.192 21.3547C190.392 21.3547 189.176 22.6524 189.176 24.7275V24.74C189.176 26.8151 190.386 28.1254 192.198 28.1254ZM192.204 27.1599C191.051 27.1599 190.292 26.276 190.292 24.74V24.7275C190.292 23.2041 191.057 22.3201 192.192 22.3201C193.345 22.3201 194.098 23.1978 194.098 24.7275V24.74C194.098 26.2697 193.351 27.1599 192.204 27.1599ZM33.889 43H35.0049L37.3998 36.4801H36.265L34.4595 41.8402H34.4344L32.6352 36.4801H31.4879L33.889 43ZM40.0391 43.1254C40.9105 43.1254 41.6941 42.6552 42.0766 41.9405H42.1016V43H43.1925V38.4925C43.1925 37.1885 42.227 36.3547 40.6848 36.3547C39.1489 36.3547 38.2148 37.2198 38.1207 38.2919L38.1144 38.3608H39.1677L39.1802 38.3044C39.3056 37.7214 39.8322 37.3201 40.6723 37.3201C41.5813 37.3201 42.1016 37.8029 42.1016 38.599V39.1445L40.2334 39.251C38.7351 39.3388 37.8699 40.0347 37.8699 41.1443V41.1569C37.8699 42.3417 38.7414 43.1254 40.0391 43.1254ZM38.9859 41.1569V41.1443C38.9859 40.5362 39.4874 40.1475 40.3588 40.0974L42.1016 39.9908V40.5237C42.1016 41.4703 41.3117 42.1787 40.2836 42.1787C39.4999 42.1787 38.9859 41.7838 38.9859 41.1569ZM46.8913 43.1254C48.3457 43.1254 49.424 42.3229 49.424 41.1819V41.1757C49.424 40.2478 48.9476 39.7275 47.631 39.4078L46.5966 39.157C45.8757 38.9815 45.581 38.6743 45.581 38.2292V38.2229C45.581 37.6461 46.07 37.2637 46.8599 37.2637C47.6687 37.2637 48.1514 37.6837 48.2391 38.3169L48.2454 38.3608H49.2861L49.2798 38.2793C49.1983 37.1885 48.2893 36.3547 46.8599 36.3547C45.4494 36.3547 44.4651 37.1509 44.4651 38.2731V38.2793C44.4651 39.2197 45.0607 39.7902 46.2894 40.0848L47.3238 40.3356C48.0636 40.5174 48.3081 40.7807 48.3081 41.2509V41.2572C48.3081 41.8465 47.7815 42.2164 46.8975 42.2164C46.0073 42.2164 45.5246 41.8339 45.3929 41.1819L45.3804 41.1193H44.2896L44.2958 41.1757C44.4275 42.3417 45.3553 43.1254 46.8913 43.1254ZM53.2607 43.1254C54.734 43.1254 55.806 42.1662 55.9816 40.9249L55.9878 40.881H54.9158L54.9033 40.9312C54.7215 41.6584 54.151 42.1599 53.2607 42.1599C52.1323 42.1599 51.3549 41.2634 51.3549 39.7463V39.74C51.3549 38.2605 52.1135 37.3201 53.2482 37.3201C54.2074 37.3201 54.734 37.8969 54.897 38.5489L54.9095 38.599H55.9753L55.969 38.5489C55.8311 37.433 54.8719 36.3547 53.2482 36.3547C51.4364 36.3547 50.239 37.6712 50.239 39.7275V39.7338C50.239 41.8089 51.4113 43.1254 53.2607 43.1254ZM59.2165 43.1254C60.207 43.1254 60.8715 42.6803 61.2226 42.0722H61.2477V43H62.3385V36.4801H61.2477V40.3168C61.2477 41.4264 60.5769 42.1599 59.5487 42.1599C58.5457 42.1599 58.0504 41.5769 58.0504 40.5174V36.4801H56.9596V40.7118C56.9596 42.1975 57.7871 43.1254 59.2165 43.1254ZM63.818 43H64.9089V33.9536H63.818V43ZM68.2879 43.1254C69.1593 43.1254 69.943 42.6552 70.3254 41.9405H70.3505V43H71.4413V38.4925C71.4413 37.1885 70.4759 36.3547 68.9337 36.3547C67.3977 36.3547 66.4636 37.2198 66.3696 38.2919L66.3633 38.3608H67.4165L67.4291 38.3044C67.5544 37.7214 68.081 37.3201 68.9211 37.3201C69.8301 37.3201 70.3505 37.8029 70.3505 38.599V39.1445L68.4823 39.251C66.9839 39.3388 66.1188 40.0347 66.1188 41.1443V41.1569C66.1188 42.3417 66.9902 43.1254 68.2879 43.1254ZM67.2347 41.1569V41.1443C67.2347 40.5362 67.7362 40.1475 68.6077 40.0974L70.3505 39.9908V40.5237C70.3505 41.4703 69.5606 42.1787 68.5324 42.1787C67.7488 42.1787 67.2347 41.7838 67.2347 41.1569ZM72.8268 43H73.9176V38.9752C73.9176 37.9847 74.4693 37.3954 75.3157 37.3954C75.579 37.3954 75.8109 37.4267 75.8987 37.4581V36.3986C75.8109 36.386 75.6479 36.3547 75.4599 36.3547C74.7264 36.3547 74.1621 36.8311 73.9427 37.5834H73.9176V36.4801H72.8268V43ZM82.1052 43.1254C83.5283 43.1254 84.594 42.2728 84.8072 41.1945L84.8197 41.1318H83.7477L83.7289 41.1882C83.5408 41.7462 82.9578 42.1599 82.1302 42.1599C80.9704 42.1599 80.2307 41.3763 80.2056 40.0347H84.9012V39.6335C84.9012 37.6775 83.8166 36.3547 82.0362 36.3547C80.2558 36.3547 79.1022 37.7402 79.1022 39.7588V39.7651C79.1022 41.8151 80.2307 43.1254 82.1052 43.1254ZM82.0299 37.3201C82.9829 37.3201 83.685 37.9157 83.7916 39.1821H80.2244C80.3435 37.9659 81.0833 37.3201 82.0299 37.3201ZM90.5435 43.1254C91.4149 43.1254 92.1985 42.6552 92.5809 41.9405H92.606V43H93.6968V38.4925C93.6968 37.1885 92.7314 36.3547 91.1892 36.3547C89.6532 36.3547 88.7191 37.2198 88.6251 38.2919L88.6188 38.3608H89.672L89.6846 38.3044C89.81 37.7214 90.3366 37.3201 91.1766 37.3201C92.0857 37.3201 92.606 37.8029 92.606 38.599V39.1445L90.7378 39.251C89.2395 39.3388 88.3743 40.0347 88.3743 41.1443V41.1569C88.3743 42.3417 89.2457 43.1254 90.5435 43.1254ZM89.4902 41.1569V41.1443C89.4902 40.5362 89.9918 40.1475 90.8632 40.0974L92.606 39.9908V40.5237C92.606 41.4703 91.8161 42.1787 90.788 42.1787C90.0043 42.1787 89.4902 41.7838 89.4902 41.1569ZM95.0823 43H96.1732V39.1633C96.1732 38.0536 96.844 37.3201 97.8721 37.3201C98.8752 37.3201 99.3704 37.9032 99.3704 38.9627V43H100.461V38.7683C100.461 37.2825 99.6337 36.3547 98.2044 36.3547C97.2139 36.3547 96.5493 36.7998 96.1982 37.4079H96.1732V36.4801H95.0823V43ZM104.611 45.3196C106.379 45.3196 107.489 44.3291 107.489 42.8182V36.4801H106.398V37.5834H106.373C105.972 36.8562 105.245 36.3547 104.323 36.3547C102.668 36.3547 101.533 37.6712 101.533 39.6962V39.7024C101.533 41.7399 102.655 43.0627 104.298 43.0627C105.232 43.0627 105.984 42.5988 106.373 41.8778H106.398V42.7116C106.398 43.721 105.746 44.3541 104.599 44.3541C103.709 44.3541 103.088 44.0658 102.881 43.5956L102.856 43.5391H101.759L101.772 43.5956C101.985 44.561 103 45.3196 104.611 45.3196ZM104.536 42.0972C103.376 42.0972 102.649 41.1819 102.649 39.7024V39.6962C102.649 38.248 103.376 37.3201 104.536 37.3201C105.64 37.3201 106.398 38.2605 106.398 39.6962V39.7024C106.398 41.1506 105.646 42.0972 104.536 42.0972ZM109.514 35.3767C109.896 35.3767 110.197 35.0695 110.197 34.6934C110.197 34.3109 109.896 34.01 109.514 34.01C109.138 34.01 108.831 34.3109 108.831 34.6934C108.831 35.0695 109.138 35.3767 109.514 35.3767ZM108.969 43H110.059V36.4801H108.969V43ZM114.247 43.1254C116.046 43.1254 117.263 41.8214 117.263 39.74V39.7275C117.263 37.6461 116.04 36.3547 114.241 36.3547C112.442 36.3547 111.225 37.6524 111.225 39.7275V39.74C111.225 41.8151 112.435 43.1254 114.247 43.1254ZM114.253 42.1599C113.1 42.1599 112.341 41.276 112.341 39.74V39.7275C112.341 38.2041 113.106 37.3201 114.241 37.3201C115.394 37.3201 116.147 38.1978 116.147 39.7275V39.74C116.147 41.2697 115.401 42.1599 114.253 42.1599ZM118.422 43H119.513V33.9536H118.422V43ZM123.689 43.1254C125.488 43.1254 126.704 41.8214 126.704 39.74V39.7275C126.704 37.6461 125.482 36.3547 123.682 36.3547C121.883 36.3547 120.667 37.6524 120.667 39.7275V39.74C120.667 41.8151 121.877 43.1254 123.689 43.1254ZM123.695 42.1599C122.541 42.1599 121.783 41.276 121.783 39.74V39.7275C121.783 38.2041 122.548 37.3201 123.682 37.3201C124.836 37.3201 125.588 38.1978 125.588 39.7275V39.74C125.588 41.2697 124.842 42.1599 123.695 42.1599ZM130.566 45.3196C132.334 45.3196 133.443 44.3291 133.443 42.8182V36.4801H132.353V37.5834H132.327C131.926 36.8562 131.199 36.3547 130.277 36.3547C128.622 36.3547 127.488 37.6712 127.488 39.6962V39.7024C127.488 41.7399 128.61 43.0627 130.252 43.0627C131.186 43.0627 131.939 42.5988 132.327 41.8778H132.353V42.7116C132.353 43.721 131.701 44.3541 130.553 44.3541C129.663 44.3541 129.042 44.0658 128.836 43.5956L128.81 43.5391H127.713L127.726 43.5956C127.939 44.561 128.955 45.3196 130.566 45.3196ZM130.491 42.0972C129.331 42.0972 128.604 41.1819 128.604 39.7024V39.6962C128.604 38.248 129.331 37.3201 130.491 37.3201C131.594 37.3201 132.353 38.2605 132.353 39.6962V39.7024C132.353 41.1506 131.6 42.0972 130.491 42.0972ZM135.468 35.3767C135.851 35.3767 136.152 35.0695 136.152 34.6934C136.152 34.3109 135.851 34.01 135.468 34.01C135.092 34.01 134.785 34.3109 134.785 34.6934C134.785 35.0695 135.092 35.3767 135.468 35.3767ZM134.923 43H136.014V36.4801H134.923V43ZM139.813 43.1254C141.267 43.1254 142.346 42.3229 142.346 41.1819V41.1757C142.346 40.2478 141.869 39.7275 140.553 39.4078L139.518 39.157C138.797 38.9815 138.503 38.6743 138.503 38.2292V38.2229C138.503 37.6461 138.992 37.2637 139.781 37.2637C140.59 37.2637 141.073 37.6837 141.161 38.3169L141.167 38.3608H142.208L142.201 38.2793C142.12 37.1885 141.211 36.3547 139.781 36.3547C138.371 36.3547 137.387 37.1509 137.387 38.2731V38.2793C137.387 39.2197 137.982 39.7902 139.211 40.0848L140.245 40.3356C140.985 40.5174 141.23 40.7807 141.23 41.2509V41.2572C141.23 41.8465 140.703 42.2164 139.819 42.2164C138.929 42.2164 138.446 41.8339 138.314 41.1819L138.302 41.1193H137.211L137.217 41.1757C137.349 42.3417 138.277 43.1254 139.813 43.1254ZM145.599 43.1254C145.812 43.1254 146.044 43.1003 146.182 43.0815V42.1975C146.088 42.2038 145.963 42.2226 145.831 42.2226C145.248 42.2226 144.941 42.0283 144.941 41.3324V37.3828H146.182V36.4801H144.941V34.7184H143.813V36.4801H142.86V37.3828H143.813V41.3387C143.813 42.5862 144.402 43.1254 145.599 43.1254ZM149.135 43.1254C150.006 43.1254 150.79 42.6552 151.173 41.9405H151.198V43H152.288V38.4925C152.288 37.1885 151.323 36.3547 149.781 36.3547C148.245 36.3547 147.311 37.2198 147.217 38.2919L147.21 38.3608H148.264L148.276 38.3044C148.402 37.7214 148.928 37.3201 149.768 37.3201C150.677 37.3201 151.198 37.8029 151.198 38.599V39.1445L149.329 39.251C147.831 39.3388 146.966 40.0347 146.966 41.1443V41.1569C146.966 42.3417 147.837 43.1254 149.135 43.1254ZM148.082 41.1569V41.1443C148.082 40.5362 148.583 40.1475 149.455 40.0974L151.198 39.9908V40.5237C151.198 41.4703 150.408 42.1787 149.38 42.1787C148.596 42.1787 148.082 41.7838 148.082 41.1569Z" fill="url(#paint0_linear_1721_23378)"/>
</g>
<defs>
<filter id="filter0_d_1721_23378" x="0.236683" y="0.118341" width="212.03" height="66.0533" filterUnits="userSpaceOnUse" color-interpolation-filters="sRGB">
<feFlood flood-opacity="0" result="BackgroundImageFix"/>
<feColorMatrix in="SourceAlpha" type="matrix" values="0 0 0 0 0 0 0 0 0 0 0 0 0 0 0 0 0 0 127 0" result="hardAlpha"/>
<feOffset dx="1.76332" dy="2.64498"/>
<feGaussianBlur stdDeviation="1.76332"/>
<feComposite in2="hardAlpha" operator="out"/>
<feColorMatrix type="matrix" values="0 0 0 0 0.516667 0 0 0 0 0.516667 0 0 0 0 0.516667 0 0 0 0.2 0"/>
<feBlend mode="normal" in2="BackgroundImageFix" result="effect1_dropShadow_1721_23378"/>
<feBlend mode="normal" in="SourceGraphic" in2="effect1_dropShadow_1721_23378" result="shape"/>
</filter>
<linearGradient id="paint0_linear_1721_23378" x1="126.344" y1="-13" x2="126.344" y2="74" gradientUnits="userSpaceOnUse">
<stop stop-color="#414955"/>
<stop offset="1" stop-color="#13181F"/>
</linearGradient>
</defs>
</svg>
